<mxfile host="app.diagrams.net" modified="2023-05-19T00:30:49.888Z" agent="Mozilla/5.0 (Windows NT 10.0; Win64; x64; rv:109.0) Gecko/20100101 Firefox/113.0" etag="5UXKd97MrzYo5O9S5RXy" version="21.1.8" type="device" pages="9">
  <diagram id="BvDWm6Im-eBRRAz-csMV" name="defects">
    <mxGraphModel dx="1050" dy="566" grid="1" gridSize="10" guides="1" tooltips="1" connect="1" arrows="1" fold="1" page="1" pageScale="1" pageWidth="827" pageHeight="1169" math="0" shadow="0">
      <root>
        <mxCell id="0" />
        <mxCell id="1" parent="0" />
        <mxCell id="-h4ocxniBs4kMFvYi5GS-1" style="edgeStyle=orthogonalEdgeStyle;rounded=0;orthogonalLoop=1;jettySize=auto;html=1;exitX=1;exitY=0.5;exitDx=0;exitDy=0;entryX=0;entryY=0.5;entryDx=0;entryDy=0;fontSize=14;endArrow=none;endFill=0;" parent="1" source="RG2EM5B9qRwQGjLWmJp7-1" target="RG2EM5B9qRwQGjLWmJp7-2" edge="1">
          <mxGeometry relative="1" as="geometry" />
        </mxCell>
        <mxCell id="-h4ocxniBs4kMFvYi5GS-2" style="edgeStyle=orthogonalEdgeStyle;rounded=0;orthogonalLoop=1;jettySize=auto;html=1;exitX=1;exitY=0.5;exitDx=0;exitDy=0;entryX=0;entryY=0.5;entryDx=0;entryDy=0;fontSize=14;endArrow=none;endFill=0;" parent="1" source="RG2EM5B9qRwQGjLWmJp7-1" target="RG2EM5B9qRwQGjLWmJp7-3" edge="1">
          <mxGeometry relative="1" as="geometry" />
        </mxCell>
        <mxCell id="-h4ocxniBs4kMFvYi5GS-3" style="edgeStyle=orthogonalEdgeStyle;rounded=0;orthogonalLoop=1;jettySize=auto;html=1;exitX=1;exitY=0.5;exitDx=0;exitDy=0;entryX=0;entryY=0.5;entryDx=0;entryDy=0;fontSize=14;endArrow=none;endFill=0;" parent="1" source="RG2EM5B9qRwQGjLWmJp7-1" target="RG2EM5B9qRwQGjLWmJp7-4" edge="1">
          <mxGeometry relative="1" as="geometry" />
        </mxCell>
        <mxCell id="RG2EM5B9qRwQGjLWmJp7-1" value="&lt;font style=&quot;font-size: 14px;&quot;&gt;Дефект&lt;/font&gt;" style="rounded=0;whiteSpace=wrap;html=1;" parent="1" vertex="1">
          <mxGeometry x="10" y="370" width="140" height="60" as="geometry" />
        </mxCell>
        <mxCell id="-h4ocxniBs4kMFvYi5GS-15" style="edgeStyle=orthogonalEdgeStyle;rounded=0;orthogonalLoop=1;jettySize=auto;html=1;exitX=1;exitY=0.5;exitDx=0;exitDy=0;entryX=0;entryY=0.5;entryDx=0;entryDy=0;fontSize=14;endArrow=none;endFill=0;" parent="1" source="RG2EM5B9qRwQGjLWmJp7-2" target="-h4ocxniBs4kMFvYi5GS-8" edge="1">
          <mxGeometry relative="1" as="geometry" />
        </mxCell>
        <mxCell id="-h4ocxniBs4kMFvYi5GS-16" style="edgeStyle=orthogonalEdgeStyle;rounded=0;orthogonalLoop=1;jettySize=auto;html=1;exitX=1;exitY=0.5;exitDx=0;exitDy=0;entryX=0;entryY=0.5;entryDx=0;entryDy=0;fontSize=14;endArrow=none;endFill=0;" parent="1" source="RG2EM5B9qRwQGjLWmJp7-2" target="-h4ocxniBs4kMFvYi5GS-7" edge="1">
          <mxGeometry relative="1" as="geometry" />
        </mxCell>
        <mxCell id="-h4ocxniBs4kMFvYi5GS-17" style="edgeStyle=orthogonalEdgeStyle;rounded=0;orthogonalLoop=1;jettySize=auto;html=1;exitX=1;exitY=0.5;exitDx=0;exitDy=0;entryX=0;entryY=0.5;entryDx=0;entryDy=0;fontSize=14;endArrow=none;endFill=0;" parent="1" source="RG2EM5B9qRwQGjLWmJp7-2" target="-h4ocxniBs4kMFvYi5GS-6" edge="1">
          <mxGeometry relative="1" as="geometry" />
        </mxCell>
        <mxCell id="RG2EM5B9qRwQGjLWmJp7-2" value="&lt;font style=&quot;font-size: 14px;&quot;&gt;Причина возникновения&lt;/font&gt;" style="rounded=0;whiteSpace=wrap;html=1;" parent="1" vertex="1">
          <mxGeometry x="250" y="100" width="140" height="60" as="geometry" />
        </mxCell>
        <mxCell id="-h4ocxniBs4kMFvYi5GS-24" style="edgeStyle=orthogonalEdgeStyle;rounded=0;orthogonalLoop=1;jettySize=auto;html=1;exitX=1;exitY=0.5;exitDx=0;exitDy=0;entryX=0;entryY=0.5;entryDx=0;entryDy=0;fontSize=14;endArrow=none;endFill=0;" parent="1" source="RG2EM5B9qRwQGjLWmJp7-3" target="-h4ocxniBs4kMFvYi5GS-10" edge="1">
          <mxGeometry relative="1" as="geometry" />
        </mxCell>
        <mxCell id="-h4ocxniBs4kMFvYi5GS-25" style="edgeStyle=orthogonalEdgeStyle;rounded=0;orthogonalLoop=1;jettySize=auto;html=1;exitX=1;exitY=0.5;exitDx=0;exitDy=0;entryX=0;entryY=0.5;entryDx=0;entryDy=0;fontSize=14;endArrow=none;endFill=0;" parent="1" source="RG2EM5B9qRwQGjLWmJp7-3" target="-h4ocxniBs4kMFvYi5GS-11" edge="1">
          <mxGeometry relative="1" as="geometry" />
        </mxCell>
        <mxCell id="-h4ocxniBs4kMFvYi5GS-26" style="edgeStyle=orthogonalEdgeStyle;rounded=0;orthogonalLoop=1;jettySize=auto;html=1;exitX=1;exitY=0.5;exitDx=0;exitDy=0;entryX=0;entryY=0.5;entryDx=0;entryDy=0;fontSize=14;endArrow=none;endFill=0;" parent="1" source="RG2EM5B9qRwQGjLWmJp7-3" target="-h4ocxniBs4kMFvYi5GS-14" edge="1">
          <mxGeometry relative="1" as="geometry" />
        </mxCell>
        <mxCell id="RG2EM5B9qRwQGjLWmJp7-3" value="&lt;font style=&quot;font-size: 14px;&quot;&gt;Приоритетность исправления&lt;/font&gt;" style="rounded=0;whiteSpace=wrap;html=1;" parent="1" vertex="1">
          <mxGeometry x="250" y="640" width="140" height="60" as="geometry" />
        </mxCell>
        <mxCell id="-h4ocxniBs4kMFvYi5GS-18" style="edgeStyle=orthogonalEdgeStyle;rounded=0;orthogonalLoop=1;jettySize=auto;html=1;exitX=1;exitY=0.5;exitDx=0;exitDy=0;entryX=0;entryY=0.5;entryDx=0;entryDy=0;fontSize=14;endArrow=none;endFill=0;" parent="1" source="RG2EM5B9qRwQGjLWmJp7-4" target="-h4ocxniBs4kMFvYi5GS-5" edge="1">
          <mxGeometry relative="1" as="geometry" />
        </mxCell>
        <mxCell id="-h4ocxniBs4kMFvYi5GS-19" style="edgeStyle=orthogonalEdgeStyle;rounded=0;orthogonalLoop=1;jettySize=auto;html=1;exitX=1;exitY=0.5;exitDx=0;exitDy=0;entryX=0;entryY=0.5;entryDx=0;entryDy=0;fontSize=14;endArrow=none;endFill=0;" parent="1" source="RG2EM5B9qRwQGjLWmJp7-4" target="-h4ocxniBs4kMFvYi5GS-4" edge="1">
          <mxGeometry relative="1" as="geometry" />
        </mxCell>
        <mxCell id="-h4ocxniBs4kMFvYi5GS-20" style="edgeStyle=orthogonalEdgeStyle;rounded=0;orthogonalLoop=1;jettySize=auto;html=1;exitX=1;exitY=0.5;exitDx=0;exitDy=0;entryX=0;entryY=0.5;entryDx=0;entryDy=0;fontSize=14;endArrow=none;endFill=0;" parent="1" source="RG2EM5B9qRwQGjLWmJp7-4" target="-h4ocxniBs4kMFvYi5GS-9" edge="1">
          <mxGeometry relative="1" as="geometry" />
        </mxCell>
        <mxCell id="-h4ocxniBs4kMFvYi5GS-21" style="edgeStyle=orthogonalEdgeStyle;rounded=0;orthogonalLoop=1;jettySize=auto;html=1;exitX=1;exitY=0.5;exitDx=0;exitDy=0;entryX=0;entryY=0.5;entryDx=0;entryDy=0;fontSize=14;endArrow=none;endFill=0;" parent="1" source="RG2EM5B9qRwQGjLWmJp7-4" target="-h4ocxniBs4kMFvYi5GS-13" edge="1">
          <mxGeometry relative="1" as="geometry" />
        </mxCell>
        <mxCell id="-h4ocxniBs4kMFvYi5GS-22" style="edgeStyle=orthogonalEdgeStyle;rounded=0;orthogonalLoop=1;jettySize=auto;html=1;exitX=1;exitY=0.5;exitDx=0;exitDy=0;entryX=0;entryY=0.5;entryDx=0;entryDy=0;fontSize=14;endArrow=none;endFill=0;" parent="1" source="RG2EM5B9qRwQGjLWmJp7-4" target="-h4ocxniBs4kMFvYi5GS-12" edge="1">
          <mxGeometry relative="1" as="geometry" />
        </mxCell>
        <mxCell id="RG2EM5B9qRwQGjLWmJp7-4" value="&lt;font style=&quot;font-size: 14px;&quot;&gt;Влияние на работоспособность&lt;/font&gt;" style="rounded=0;whiteSpace=wrap;html=1;" parent="1" vertex="1">
          <mxGeometry x="250" y="350" width="140" height="60" as="geometry" />
        </mxCell>
        <mxCell id="-h4ocxniBs4kMFvYi5GS-4" value="&lt;font style=&quot;font-size: 14px;&quot;&gt;Критический&lt;br&gt;&lt;/font&gt;" style="rounded=0;whiteSpace=wrap;html=1;" parent="1" vertex="1">
          <mxGeometry x="470" y="300" width="140" height="60" as="geometry" />
        </mxCell>
        <mxCell id="-h4ocxniBs4kMFvYi5GS-5" value="&lt;font style=&quot;font-size: 14px;&quot;&gt;Блокирующий&lt;br&gt;&lt;/font&gt;" style="rounded=0;whiteSpace=wrap;html=1;" parent="1" vertex="1">
          <mxGeometry x="470" y="230" width="140" height="60" as="geometry" />
        </mxCell>
        <mxCell id="-h4ocxniBs4kMFvYi5GS-6" value="&lt;font style=&quot;font-size: 14px;&quot;&gt;Архитектурный&lt;/font&gt;" style="rounded=0;whiteSpace=wrap;html=1;" parent="1" vertex="1">
          <mxGeometry x="470" y="150" width="140" height="60" as="geometry" />
        </mxCell>
        <mxCell id="-h4ocxniBs4kMFvYi5GS-7" value="&lt;font style=&quot;font-size: 14px;&quot;&gt;Технический&lt;/font&gt;" style="rounded=0;whiteSpace=wrap;html=1;" parent="1" vertex="1">
          <mxGeometry x="470" y="80" width="140" height="60" as="geometry" />
        </mxCell>
        <mxCell id="-h4ocxniBs4kMFvYi5GS-8" value="&lt;font style=&quot;font-size: 14px;&quot;&gt;Программный&lt;/font&gt;" style="rounded=0;whiteSpace=wrap;html=1;" parent="1" vertex="1">
          <mxGeometry x="470" y="10" width="140" height="60" as="geometry" />
        </mxCell>
        <mxCell id="-h4ocxniBs4kMFvYi5GS-9" value="&lt;font style=&quot;font-size: 14px;&quot;&gt;Серьезный&lt;br&gt;&lt;/font&gt;" style="rounded=0;whiteSpace=wrap;html=1;" parent="1" vertex="1">
          <mxGeometry x="470" y="370" width="140" height="60" as="geometry" />
        </mxCell>
        <mxCell id="-h4ocxniBs4kMFvYi5GS-10" value="&lt;font style=&quot;font-size: 14px;&quot;&gt;С высоким приоритетом&lt;br&gt;&lt;/font&gt;" style="rounded=0;whiteSpace=wrap;html=1;" parent="1" vertex="1">
          <mxGeometry x="470" y="590" width="140" height="60" as="geometry" />
        </mxCell>
        <mxCell id="-h4ocxniBs4kMFvYi5GS-11" value="&lt;font style=&quot;font-size: 14px;&quot;&gt;Со средним приоритетом&lt;br&gt;&lt;/font&gt;" style="rounded=0;whiteSpace=wrap;html=1;" parent="1" vertex="1">
          <mxGeometry x="470" y="660" width="140" height="60" as="geometry" />
        </mxCell>
        <mxCell id="-h4ocxniBs4kMFvYi5GS-12" value="&lt;font style=&quot;font-size: 14px;&quot;&gt;Тривиальный&lt;br&gt;&lt;/font&gt;" style="rounded=0;whiteSpace=wrap;html=1;" parent="1" vertex="1">
          <mxGeometry x="470" y="510" width="140" height="60" as="geometry" />
        </mxCell>
        <mxCell id="-h4ocxniBs4kMFvYi5GS-13" value="&lt;font style=&quot;font-size: 14px;&quot;&gt;Незначительный&lt;br&gt;&lt;/font&gt;" style="rounded=0;whiteSpace=wrap;html=1;" parent="1" vertex="1">
          <mxGeometry x="470" y="440" width="140" height="60" as="geometry" />
        </mxCell>
        <mxCell id="-h4ocxniBs4kMFvYi5GS-14" value="&lt;font style=&quot;font-size: 14px;&quot;&gt;С низким приоритетом&lt;br&gt;&lt;/font&gt;" style="rounded=0;whiteSpace=wrap;html=1;" parent="1" vertex="1">
          <mxGeometry x="470" y="730" width="140" height="60" as="geometry" />
        </mxCell>
      </root>
    </mxGraphModel>
  </diagram>
  <diagram id="sRrURWONcFWQODKtrLFJ" name="methods">
    <mxGraphModel dx="1038" dy="564" grid="1" gridSize="10" guides="1" tooltips="1" connect="1" arrows="1" fold="1" page="1" pageScale="1" pageWidth="827" pageHeight="1169" math="0" shadow="0">
      <root>
        <mxCell id="0" />
        <mxCell id="1" parent="0" />
        <mxCell id="1HgTSXIzLpWgtpHPQofH-17" style="edgeStyle=orthogonalEdgeStyle;rounded=0;orthogonalLoop=1;jettySize=auto;html=1;exitX=1;exitY=0.5;exitDx=0;exitDy=0;entryX=0;entryY=0.5;entryDx=0;entryDy=0;fontSize=14;endArrow=none;endFill=0;" parent="1" source="1HgTSXIzLpWgtpHPQofH-1" target="1HgTSXIzLpWgtpHPQofH-3" edge="1">
          <mxGeometry relative="1" as="geometry" />
        </mxCell>
        <mxCell id="1HgTSXIzLpWgtpHPQofH-18" style="edgeStyle=orthogonalEdgeStyle;rounded=0;orthogonalLoop=1;jettySize=auto;html=1;exitX=1;exitY=0.5;exitDx=0;exitDy=0;entryX=0;entryY=0.5;entryDx=0;entryDy=0;fontSize=14;endArrow=none;endFill=0;" parent="1" source="1HgTSXIzLpWgtpHPQofH-1" target="1HgTSXIzLpWgtpHPQofH-4" edge="1">
          <mxGeometry relative="1" as="geometry">
            <Array as="points">
              <mxPoint x="190" y="385" />
              <mxPoint x="190" y="365" />
            </Array>
          </mxGeometry>
        </mxCell>
        <mxCell id="1HgTSXIzLpWgtpHPQofH-19" style="edgeStyle=orthogonalEdgeStyle;rounded=0;orthogonalLoop=1;jettySize=auto;html=1;exitX=1;exitY=0.5;exitDx=0;exitDy=0;entryX=0;entryY=0.5;entryDx=0;entryDy=0;fontSize=14;endArrow=none;endFill=0;" parent="1" source="1HgTSXIzLpWgtpHPQofH-1" target="1HgTSXIzLpWgtpHPQofH-5" edge="1">
          <mxGeometry relative="1" as="geometry" />
        </mxCell>
        <mxCell id="1HgTSXIzLpWgtpHPQofH-1" value="&lt;font style=&quot;font-size: 14px;&quot;&gt;Методы для обнаружения дефектов ПО&lt;br&gt;&lt;/font&gt;" style="rounded=0;whiteSpace=wrap;html=1;" parent="1" vertex="1">
          <mxGeometry x="30" y="350" width="140" height="70" as="geometry" />
        </mxCell>
        <mxCell id="1HgTSXIzLpWgtpHPQofH-3" value="&lt;font style=&quot;font-size: 14px;&quot;&gt;Статические&lt;/font&gt;" style="rounded=0;whiteSpace=wrap;html=1;" parent="1" vertex="1">
          <mxGeometry x="210" y="220" width="140" height="70" as="geometry" />
        </mxCell>
        <mxCell id="1HgTSXIzLpWgtpHPQofH-20" style="edgeStyle=orthogonalEdgeStyle;rounded=0;orthogonalLoop=1;jettySize=auto;html=1;exitX=1;exitY=0.5;exitDx=0;exitDy=0;entryX=0;entryY=0.5;entryDx=0;entryDy=0;fontSize=14;endArrow=none;endFill=0;" parent="1" source="1HgTSXIzLpWgtpHPQofH-4" target="1HgTSXIzLpWgtpHPQofH-7" edge="1">
          <mxGeometry relative="1" as="geometry" />
        </mxCell>
        <mxCell id="1HgTSXIzLpWgtpHPQofH-21" style="edgeStyle=orthogonalEdgeStyle;rounded=0;orthogonalLoop=1;jettySize=auto;html=1;exitX=1;exitY=0.5;exitDx=0;exitDy=0;entryX=0;entryY=0.5;entryDx=0;entryDy=0;fontSize=14;endArrow=none;endFill=0;" parent="1" source="1HgTSXIzLpWgtpHPQofH-4" target="1HgTSXIzLpWgtpHPQofH-8" edge="1">
          <mxGeometry relative="1" as="geometry" />
        </mxCell>
        <mxCell id="1HgTSXIzLpWgtpHPQofH-4" value="&lt;font style=&quot;font-size: 14px;&quot;&gt;Динамические&lt;/font&gt;" style="rounded=0;whiteSpace=wrap;html=1;" parent="1" vertex="1">
          <mxGeometry x="211" y="330" width="140" height="70" as="geometry" />
        </mxCell>
        <mxCell id="1HgTSXIzLpWgtpHPQofH-5" value="&lt;font style=&quot;font-size: 14px;&quot;&gt;Эксплутационные&lt;/font&gt;" style="rounded=0;whiteSpace=wrap;html=1;" parent="1" vertex="1">
          <mxGeometry x="210" y="440" width="140" height="70" as="geometry" />
        </mxCell>
        <mxCell id="LTPem9raHas0-pxO56FS-2" style="edgeStyle=orthogonalEdgeStyle;rounded=0;orthogonalLoop=1;jettySize=auto;html=1;exitX=1;exitY=0.5;exitDx=0;exitDy=0;entryX=0;entryY=0.5;entryDx=0;entryDy=0;endArrow=none;endFill=0;" parent="1" source="1HgTSXIzLpWgtpHPQofH-7" target="1HgTSXIzLpWgtpHPQofH-12" edge="1">
          <mxGeometry relative="1" as="geometry" />
        </mxCell>
        <mxCell id="LTPem9raHas0-pxO56FS-3" style="edgeStyle=orthogonalEdgeStyle;rounded=0;orthogonalLoop=1;jettySize=auto;html=1;exitX=1;exitY=0.5;exitDx=0;exitDy=0;entryX=0;entryY=0.5;entryDx=0;entryDy=0;endArrow=none;endFill=0;" parent="1" source="1HgTSXIzLpWgtpHPQofH-7" target="1HgTSXIzLpWgtpHPQofH-10" edge="1">
          <mxGeometry relative="1" as="geometry" />
        </mxCell>
        <mxCell id="LTPem9raHas0-pxO56FS-4" style="edgeStyle=orthogonalEdgeStyle;rounded=0;orthogonalLoop=1;jettySize=auto;html=1;exitX=1;exitY=0.5;exitDx=0;exitDy=0;entryX=0;entryY=0.5;entryDx=0;entryDy=0;endArrow=none;endFill=0;" parent="1" source="1HgTSXIzLpWgtpHPQofH-7" target="1HgTSXIzLpWgtpHPQofH-11" edge="1">
          <mxGeometry relative="1" as="geometry" />
        </mxCell>
        <mxCell id="LTPem9raHas0-pxO56FS-5" style="edgeStyle=orthogonalEdgeStyle;rounded=0;orthogonalLoop=1;jettySize=auto;html=1;exitX=1;exitY=0.5;exitDx=0;exitDy=0;entryX=0;entryY=0.5;entryDx=0;entryDy=0;endArrow=none;endFill=0;" parent="1" source="1HgTSXIzLpWgtpHPQofH-7" target="1HgTSXIzLpWgtpHPQofH-13" edge="1">
          <mxGeometry relative="1" as="geometry" />
        </mxCell>
        <mxCell id="LTPem9raHas0-pxO56FS-6" style="edgeStyle=orthogonalEdgeStyle;rounded=0;orthogonalLoop=1;jettySize=auto;html=1;exitX=1;exitY=0.5;exitDx=0;exitDy=0;entryX=0;entryY=0.5;entryDx=0;entryDy=0;endArrow=none;endFill=0;" parent="1" source="1HgTSXIzLpWgtpHPQofH-7" target="1HgTSXIzLpWgtpHPQofH-14" edge="1">
          <mxGeometry relative="1" as="geometry" />
        </mxCell>
        <mxCell id="LTPem9raHas0-pxO56FS-7" style="edgeStyle=orthogonalEdgeStyle;rounded=0;orthogonalLoop=1;jettySize=auto;html=1;exitX=1;exitY=0.5;exitDx=0;exitDy=0;entryX=0;entryY=0.5;entryDx=0;entryDy=0;endArrow=none;endFill=0;" parent="1" source="1HgTSXIzLpWgtpHPQofH-7" target="1HgTSXIzLpWgtpHPQofH-15" edge="1">
          <mxGeometry relative="1" as="geometry" />
        </mxCell>
        <mxCell id="1HgTSXIzLpWgtpHPQofH-7" value="&lt;font style=&quot;font-size: 14px;&quot;&gt;Функциональные&lt;/font&gt;" style="rounded=0;whiteSpace=wrap;html=1;" parent="1" vertex="1">
          <mxGeometry x="390" y="280" width="140" height="70" as="geometry" />
        </mxCell>
        <mxCell id="1HgTSXIzLpWgtpHPQofH-8" value="&lt;font style=&quot;font-size: 14px;&quot;&gt;Нефункциональные&lt;/font&gt;" style="rounded=0;whiteSpace=wrap;html=1;" parent="1" vertex="1">
          <mxGeometry x="390" y="380" width="140" height="70" as="geometry" />
        </mxCell>
        <mxCell id="1HgTSXIzLpWgtpHPQofH-10" value="&lt;div&gt;&lt;font style=&quot;font-size: 14px;&quot;&gt;Интеграционное тестирование&lt;/font&gt;&lt;/div&gt;" style="rounded=0;whiteSpace=wrap;html=1;" parent="1" vertex="1">
          <mxGeometry x="590" y="130" width="140" height="70" as="geometry" />
        </mxCell>
        <mxCell id="1HgTSXIzLpWgtpHPQofH-11" value="&lt;font style=&quot;font-size: 14px;&quot;&gt;Модульное тестирование&lt;br&gt;&lt;/font&gt;" style="rounded=0;whiteSpace=wrap;html=1;" parent="1" vertex="1">
          <mxGeometry x="590" y="30" width="140" height="70" as="geometry" />
        </mxCell>
        <mxCell id="1HgTSXIzLpWgtpHPQofH-12" value="&lt;font style=&quot;font-size: 14px;&quot;&gt;Системное тестирование&lt;br&gt;&lt;/font&gt;" style="rounded=0;whiteSpace=wrap;html=1;" parent="1" vertex="1">
          <mxGeometry x="590" y="230" width="140" height="70" as="geometry" />
        </mxCell>
        <mxCell id="1HgTSXIzLpWgtpHPQofH-13" value="&lt;font style=&quot;font-size: 14px;&quot;&gt;Регрессионное тестирование&lt;br&gt;&lt;/font&gt;" style="rounded=0;whiteSpace=wrap;html=1;" parent="1" vertex="1">
          <mxGeometry x="590" y="330" width="140" height="70" as="geometry" />
        </mxCell>
        <mxCell id="1HgTSXIzLpWgtpHPQofH-14" value="&lt;font style=&quot;font-size: 14px;&quot;&gt;Приемочное тестирование&lt;br&gt;&lt;/font&gt;" style="rounded=0;whiteSpace=wrap;html=1;" parent="1" vertex="1">
          <mxGeometry x="590" y="430" width="140" height="70" as="geometry" />
        </mxCell>
        <mxCell id="1HgTSXIzLpWgtpHPQofH-15" value="&lt;font style=&quot;font-size: 14px;&quot;&gt;Дымовое тестирование&lt;br&gt;&lt;/font&gt;" style="rounded=0;whiteSpace=wrap;html=1;" parent="1" vertex="1">
          <mxGeometry x="590" y="530" width="140" height="70" as="geometry" />
        </mxCell>
      </root>
    </mxGraphModel>
  </diagram>
  <diagram id="z1iRpeuhR7Olx0Kj-0dt" name="ML">
    <mxGraphModel dx="1050" dy="566" grid="1" gridSize="10" guides="1" tooltips="1" connect="1" arrows="1" fold="1" page="1" pageScale="1" pageWidth="827" pageHeight="1169" math="0" shadow="0">
      <root>
        <mxCell id="0" />
        <mxCell id="1" parent="0" />
        <mxCell id="DHFTfzdUtgNYVa4CZ0DP-2" value="" style="ellipse;whiteSpace=wrap;html=1;" parent="1" vertex="1">
          <mxGeometry x="40" y="80" width="410" height="260" as="geometry" />
        </mxCell>
        <mxCell id="DHFTfzdUtgNYVa4CZ0DP-3" value="" style="ellipse;whiteSpace=wrap;html=1;" parent="1" vertex="1">
          <mxGeometry x="140" y="140" width="300" height="180" as="geometry" />
        </mxCell>
        <mxCell id="DHFTfzdUtgNYVa4CZ0DP-4" value="&lt;font style=&quot;font-size: 14px;&quot;&gt;Глубокое обучение&lt;br&gt;&lt;/font&gt;" style="ellipse;whiteSpace=wrap;html=1;" parent="1" vertex="1">
          <mxGeometry x="230" y="200" width="194" height="100" as="geometry" />
        </mxCell>
        <mxCell id="DHFTfzdUtgNYVa4CZ0DP-5" value="Машинное обучение" style="text;html=1;strokeColor=none;fillColor=none;align=center;verticalAlign=middle;whiteSpace=wrap;rounded=0;fontSize=14;" parent="1" vertex="1">
          <mxGeometry x="180" y="164" width="180" height="30" as="geometry" />
        </mxCell>
        <mxCell id="DHFTfzdUtgNYVa4CZ0DP-6" value="Искусственный интеллект" style="text;html=1;strokeColor=none;fillColor=none;align=center;verticalAlign=middle;whiteSpace=wrap;rounded=0;fontSize=14;" parent="1" vertex="1">
          <mxGeometry x="110" y="110" width="220" height="20" as="geometry" />
        </mxCell>
      </root>
    </mxGraphModel>
  </diagram>
  <diagram id="P48-kE9jJApvZTyxsnBl" name="teacher">
    <mxGraphModel dx="1038" dy="564" grid="1" gridSize="10" guides="1" tooltips="1" connect="1" arrows="1" fold="1" page="1" pageScale="1" pageWidth="827" pageHeight="1169" math="0" shadow="0">
      <root>
        <mxCell id="0" />
        <mxCell id="1" parent="0" />
        <mxCell id="GllaegxKeiJy-0iBLiIl-7" style="edgeStyle=orthogonalEdgeStyle;rounded=0;orthogonalLoop=1;jettySize=auto;html=1;exitX=0.5;exitY=1;exitDx=0;exitDy=0;entryX=0.5;entryY=0;entryDx=0;entryDy=0;fontSize=14;endArrow=classic;endFill=1;endSize=6;" parent="1" source="GllaegxKeiJy-0iBLiIl-1" target="GllaegxKeiJy-0iBLiIl-4" edge="1">
          <mxGeometry relative="1" as="geometry" />
        </mxCell>
        <mxCell id="GllaegxKeiJy-0iBLiIl-1" value="Алгоритм машинного обучения" style="rounded=0;whiteSpace=wrap;html=1;fontSize=14;" parent="1" vertex="1">
          <mxGeometry x="320" y="220" width="160" height="60" as="geometry" />
        </mxCell>
        <mxCell id="GllaegxKeiJy-0iBLiIl-6" style="edgeStyle=orthogonalEdgeStyle;rounded=0;orthogonalLoop=1;jettySize=auto;html=1;exitX=0.5;exitY=1;exitDx=0;exitDy=0;entryX=0.5;entryY=0;entryDx=0;entryDy=0;fontSize=14;endArrow=classic;endFill=1;endSize=6;" parent="1" source="GllaegxKeiJy-0iBLiIl-2" target="GllaegxKeiJy-0iBLiIl-1" edge="1">
          <mxGeometry relative="1" as="geometry" />
        </mxCell>
        <mxCell id="GllaegxKeiJy-0iBLiIl-2" value="Обучающие данные" style="rounded=0;whiteSpace=wrap;html=1;fontSize=14;" parent="1" vertex="1">
          <mxGeometry x="320" y="100" width="160" height="60" as="geometry" />
        </mxCell>
        <mxCell id="GllaegxKeiJy-0iBLiIl-8" style="edgeStyle=orthogonalEdgeStyle;rounded=0;orthogonalLoop=1;jettySize=auto;html=1;exitX=1;exitY=0.5;exitDx=0;exitDy=0;entryX=0;entryY=0.5;entryDx=0;entryDy=0;fontSize=14;endArrow=classic;endFill=1;endSize=6;" parent="1" source="GllaegxKeiJy-0iBLiIl-3" target="GllaegxKeiJy-0iBLiIl-4" edge="1">
          <mxGeometry relative="1" as="geometry" />
        </mxCell>
        <mxCell id="GllaegxKeiJy-0iBLiIl-3" value="Новые данные" style="rounded=0;whiteSpace=wrap;html=1;fontSize=14;" parent="1" vertex="1">
          <mxGeometry x="110" y="350" width="160" height="60" as="geometry" />
        </mxCell>
        <mxCell id="GllaegxKeiJy-0iBLiIl-9" style="edgeStyle=orthogonalEdgeStyle;rounded=0;orthogonalLoop=1;jettySize=auto;html=1;exitX=1;exitY=0.5;exitDx=0;exitDy=0;entryX=0;entryY=0.5;entryDx=0;entryDy=0;fontSize=14;endArrow=classic;endFill=1;endSize=6;" parent="1" source="GllaegxKeiJy-0iBLiIl-4" target="GllaegxKeiJy-0iBLiIl-5" edge="1">
          <mxGeometry relative="1" as="geometry" />
        </mxCell>
        <mxCell id="GllaegxKeiJy-0iBLiIl-4" value="Прогнозирующая модель" style="rounded=0;whiteSpace=wrap;html=1;fontSize=14;" parent="1" vertex="1">
          <mxGeometry x="320" y="350" width="160" height="60" as="geometry" />
        </mxCell>
        <mxCell id="GllaegxKeiJy-0iBLiIl-5" value="Прогноз" style="rounded=0;whiteSpace=wrap;html=1;fontSize=14;" parent="1" vertex="1">
          <mxGeometry x="530" y="350" width="160" height="60" as="geometry" />
        </mxCell>
      </root>
    </mxGraphModel>
  </diagram>
  <diagram id="_4wIVjsefEJhvtjjnxqe" name="reinforcement">
    <mxGraphModel dx="1050" dy="566" grid="1" gridSize="10" guides="1" tooltips="1" connect="1" arrows="1" fold="1" page="1" pageScale="1" pageWidth="827" pageHeight="1169" math="0" shadow="0">
      <root>
        <mxCell id="0" />
        <mxCell id="1" parent="0" />
        <mxCell id="aZjFsW8LUTP29EJPac4E-6" style="edgeStyle=orthogonalEdgeStyle;rounded=0;orthogonalLoop=1;jettySize=auto;html=1;exitX=1;exitY=0.5;exitDx=0;exitDy=0;entryX=0.5;entryY=1;entryDx=0;entryDy=0;fontSize=14;endArrow=classic;endFill=1;endSize=6;" parent="1" source="aZjFsW8LUTP29EJPac4E-2" target="aZjFsW8LUTP29EJPac4E-3" edge="1">
          <mxGeometry relative="1" as="geometry" />
        </mxCell>
        <mxCell id="aZjFsW8LUTP29EJPac4E-2" value="Агент" style="rounded=0;whiteSpace=wrap;html=1;fontSize=14;" parent="1" vertex="1">
          <mxGeometry x="150" y="270" width="120" height="50" as="geometry" />
        </mxCell>
        <mxCell id="aZjFsW8LUTP29EJPac4E-4" style="edgeStyle=orthogonalEdgeStyle;rounded=0;orthogonalLoop=1;jettySize=auto;html=1;exitX=0;exitY=0.25;exitDx=0;exitDy=0;entryX=0.25;entryY=0;entryDx=0;entryDy=0;fontSize=14;endArrow=classic;endFill=1;endSize=6;" parent="1" source="aZjFsW8LUTP29EJPac4E-3" target="aZjFsW8LUTP29EJPac4E-2" edge="1">
          <mxGeometry relative="1" as="geometry" />
        </mxCell>
        <mxCell id="aZjFsW8LUTP29EJPac4E-5" style="edgeStyle=orthogonalEdgeStyle;rounded=0;orthogonalLoop=1;jettySize=auto;html=1;exitX=0;exitY=0.75;exitDx=0;exitDy=0;entryX=0.75;entryY=0;entryDx=0;entryDy=0;fontSize=14;endArrow=classic;endFill=1;endSize=6;" parent="1" source="aZjFsW8LUTP29EJPac4E-3" target="aZjFsW8LUTP29EJPac4E-2" edge="1">
          <mxGeometry relative="1" as="geometry" />
        </mxCell>
        <mxCell id="aZjFsW8LUTP29EJPac4E-3" value="Среда" style="rounded=0;whiteSpace=wrap;html=1;fontSize=14;" parent="1" vertex="1">
          <mxGeometry x="354" y="110" width="120" height="50" as="geometry" />
        </mxCell>
        <mxCell id="aZjFsW8LUTP29EJPac4E-7" value="Награда" style="text;html=1;strokeColor=none;fillColor=none;align=center;verticalAlign=middle;whiteSpace=wrap;rounded=0;fontSize=14;" parent="1" vertex="1">
          <mxGeometry x="110" y="140" width="60" height="30" as="geometry" />
        </mxCell>
        <mxCell id="aZjFsW8LUTP29EJPac4E-8" value="Состояние" style="text;html=1;strokeColor=none;fillColor=none;align=center;verticalAlign=middle;whiteSpace=wrap;rounded=0;fontSize=14;" parent="1" vertex="1">
          <mxGeometry x="260" y="180" width="60" height="30" as="geometry" />
        </mxCell>
        <mxCell id="aZjFsW8LUTP29EJPac4E-9" value="Действие" style="text;html=1;strokeColor=none;fillColor=none;align=center;verticalAlign=middle;whiteSpace=wrap;rounded=0;fontSize=14;" parent="1" vertex="1">
          <mxGeometry x="430" y="240" width="60" height="30" as="geometry" />
        </mxCell>
      </root>
    </mxGraphModel>
  </diagram>
  <diagram id="bpER06FYqhhtl5loqvo9" name="process">
    <mxGraphModel dx="1050" dy="566" grid="1" gridSize="10" guides="1" tooltips="1" connect="1" arrows="1" fold="1" page="1" pageScale="1" pageWidth="827" pageHeight="1169" math="0" shadow="0">
      <root>
        <mxCell id="0" />
        <mxCell id="1" parent="0" />
        <mxCell id="LnJRWbe0wSDpx0MPoHch-3" style="edgeStyle=orthogonalEdgeStyle;rounded=0;orthogonalLoop=1;jettySize=auto;html=1;exitX=1;exitY=0.5;exitDx=0;exitDy=0;entryX=0;entryY=0.5;entryDx=0;entryDy=0;" parent="1" source="wLhlxP10D3SxjrnmDck9-1" target="wLhlxP10D3SxjrnmDck9-2" edge="1">
          <mxGeometry relative="1" as="geometry" />
        </mxCell>
        <mxCell id="wLhlxP10D3SxjrnmDck9-1" value="Хранилище ПО" style="shape=datastore;whiteSpace=wrap;html=1;" parent="1" vertex="1">
          <mxGeometry x="100" y="210" width="70" height="90" as="geometry" />
        </mxCell>
        <mxCell id="LnJRWbe0wSDpx0MPoHch-18" style="edgeStyle=orthogonalEdgeStyle;rounded=0;orthogonalLoop=1;jettySize=auto;html=1;exitX=1;exitY=0.5;exitDx=0;exitDy=0;entryX=0;entryY=0.5;entryDx=0;entryDy=0;" parent="1" source="wLhlxP10D3SxjrnmDck9-2" target="LnJRWbe0wSDpx0MPoHch-16" edge="1">
          <mxGeometry relative="1" as="geometry" />
        </mxCell>
        <mxCell id="wLhlxP10D3SxjrnmDck9-2" value="&lt;div&gt;Разметка&lt;/div&gt;&lt;div&gt;данных&lt;/div&gt;" style="rounded=0;whiteSpace=wrap;html=1;" parent="1" vertex="1">
          <mxGeometry x="220" y="230" width="110" height="50" as="geometry" />
        </mxCell>
        <mxCell id="LnJRWbe0wSDpx0MPoHch-20" style="edgeStyle=orthogonalEdgeStyle;rounded=0;orthogonalLoop=1;jettySize=auto;html=1;exitX=1;exitY=0.5;exitDx=0;exitDy=0;shape=flexArrow;endWidth=8.43601895734597;endSize=5.731753554502369;" parent="1" edge="1">
          <mxGeometry relative="1" as="geometry">
            <mxPoint x="589" y="255" as="sourcePoint" />
            <mxPoint x="629" y="255" as="targetPoint" />
          </mxGeometry>
        </mxCell>
        <mxCell id="LnJRWbe0wSDpx0MPoHch-4" value="Извлечение признаков" style="rounded=0;whiteSpace=wrap;html=1;" parent="1" vertex="1">
          <mxGeometry x="480" y="230" width="110" height="50" as="geometry" />
        </mxCell>
        <mxCell id="LnJRWbe0wSDpx0MPoHch-6" value="Размеченные данные" style="text;html=1;strokeColor=none;fillColor=none;align=center;verticalAlign=middle;whiteSpace=wrap;rounded=0;" parent="1" vertex="1">
          <mxGeometry x="337" y="280" width="136" height="30" as="geometry" />
        </mxCell>
        <mxCell id="LnJRWbe0wSDpx0MPoHch-30" style="edgeStyle=orthogonalEdgeStyle;rounded=0;orthogonalLoop=1;jettySize=auto;html=1;exitX=0.5;exitY=1;exitDx=0;exitDy=0;" parent="1" source="LnJRWbe0wSDpx0MPoHch-7" edge="1">
          <mxGeometry relative="1" as="geometry">
            <mxPoint x="781" y="320" as="targetPoint" />
          </mxGeometry>
        </mxCell>
        <mxCell id="LnJRWbe0wSDpx0MPoHch-7" value="&lt;span class=&quot;HwtZe&quot; lang=&quot;ru&quot;&gt;&lt;span class=&quot;jCAhz ChMk0b&quot;&gt;&lt;span class=&quot;ryNqvb&quot;&gt;Обучение модели машинного обучения&lt;/span&gt;&lt;/span&gt;&lt;/span&gt;" style="rounded=0;whiteSpace=wrap;html=1;" parent="1" vertex="1">
          <mxGeometry x="726" y="230" width="110" height="50" as="geometry" />
        </mxCell>
        <mxCell id="LnJRWbe0wSDpx0MPoHch-29" style="edgeStyle=orthogonalEdgeStyle;rounded=0;orthogonalLoop=1;jettySize=auto;html=1;exitX=0.5;exitY=1;exitDx=0;exitDy=0;dashed=1;" parent="1" source="LnJRWbe0wSDpx0MPoHch-8" edge="1">
          <mxGeometry relative="1" as="geometry">
            <mxPoint x="750" y="350" as="targetPoint" />
            <Array as="points">
              <mxPoint x="658" y="350" />
              <mxPoint x="750" y="350" />
            </Array>
          </mxGeometry>
        </mxCell>
        <mxCell id="LnJRWbe0wSDpx0MPoHch-8" value="Признаки" style="text;html=1;strokeColor=none;fillColor=none;align=center;verticalAlign=middle;whiteSpace=wrap;rounded=0;" parent="1" vertex="1">
          <mxGeometry x="627.5" y="280" width="60" height="30" as="geometry" />
        </mxCell>
        <mxCell id="LnJRWbe0wSDpx0MPoHch-21" style="edgeStyle=orthogonalEdgeStyle;rounded=0;orthogonalLoop=1;jettySize=auto;html=1;entryX=0;entryY=0.5;entryDx=0;entryDy=0;" parent="1" target="LnJRWbe0wSDpx0MPoHch-7" edge="1">
          <mxGeometry relative="1" as="geometry">
            <mxPoint x="686" y="255" as="sourcePoint" />
            <mxPoint x="726" y="255" as="targetPoint" />
          </mxGeometry>
        </mxCell>
        <mxCell id="LnJRWbe0wSDpx0MPoHch-13" value="" style="shape=image;verticalLabelPosition=bottom;labelBackgroundColor=default;verticalAlign=top;aspect=fixed;imageAspect=0;image=data:image/png,iVBORw0KGgoAAAANSUhEUgAAAgAAAAIACAMAAADDpiTIAAAAA3NCSVQICAjb4U/gAAAACXBIWXMAAIM8AACDPAGwo/07AAAAGXRFWHRTb2Z0d2FyZQB3d3cuaW5rc2NhcGUub3Jnm+48GgAAAs1QTFRF////AAAAAAAAAAAAAAAAAAAAAAAAAAAAAAAAAAAAAAAAAAAAAAAAAAAAAAAAAAAAAAAAAAAAAAAAAAAAAAAAAAAAAAAAAAAAAAAAAAAAAAAAAAAAAAAAAAAAAAAAAAAAAAAAAAAAAAAAAAAAAAAAAAAAAAAAAAAAAAAAAAAAAAAAAAAAAAAAAAAAAAAAAAAAAAAAAAAAAAAAAAAAAAAAAAAAAAAAAAAAAAAAAAAAAAAAAAAAAAAAAAAAAAAAAAAAAAAAAAAAAAAAAAAAAAAAAAAAAAAAAAAAAAAAAAAAAAAAAAAAAAAAAAAAAAAAAAAAAAAAAAAAAAAAAAAAAAAAAAAAAAAAAAAAAAAAAAAAAAAAAAAAAAAAAAAAAAAAAAAAAAAAAAAAAAAAAAAAAAAAAAAAAAAAAAAAAAAAAAAAAAAAAAAAAAAAAAAAAAAAAAAAAAAAAAAAAAAAAAAAAAAAAAAAAAAAAAAAAAAAAAAAAAAAAAAAAAAAAAAAAAAAAAAAAAAAAAAAAAAAAAAAAAAAAAAAAAAAAAAAAAAAAAAAAAAAAAAAAAAAAAAAAAAAAAAAAAAAAAAAAAAAAAAAAAAAAAAAAAAAAAAAAAAAAAAAAAAAAAAAAAAAAAAAAAAAAAAAAAAAAAAAAAAAAAAAAAAAAAAAAAAAAAAAAAAAAAAAAAAAAAAAAAAAAAAAAAAAAAAAAAAAAAAAAAAAAAAAAAAAAAAAAAAAAAAAAAAAAAAAAAAAAAAAAAAAAAAAAAAAAAAAAAAAAAAAAAAAAAAAAAAAAAAAAAAAAAAAAAAAAAAAAAAAAAAAAAAAAAAAAAAAAAAAAAAAAAAAAAAAAAAAAAAAAAAAAAAAAAAAAAAAAAAAAAAAAAAAAAAAAAAAAAAAAAAAAAAAAAAAAAAAAAAAAAAAAAAAAAAAAAAAAAAAAAAAAAAAAAAAAAAAAAAAAAAAgdeEKgAAAO50Uk5TAAECAwQFBgcICQoLDA0ODxAREhMUFRYXGBkaGxwdHh8gISIjJSgpKissLS4vMDEyMzQ1Njc4OTo7PD0+P0BBQkNERUZHSElLTE1OT1BRUlNUVVZXWFlaXF1eYGFiY2RlaGlqa2xtbm9xcnN0dXZ3eHl6e3x9fn+AgYKDhIWGh4iJiouMjY6PkJGSk5SWl5iZmpucnZ6foKGio6Slpqeoqqusra6vsLGys7S1tre4u72+v8DBwsPExcbHycrLzM3Oz9HS1NXW19jZ2tvc3d7f4OHi4+Tl5ufo6err7O3u7/Dx8vP09fb3+Pn6+/z9/uHxWAQAACSNSURBVHja7Z37f05XvsdX8kQkIXdycT0dVaFqyslonZiIuuVkMKWOE62UDh1UHdLqmAYpEVpH6piUSYIp51QIbY3SEqEMGsQtlETUpTSRhCT7bzg/nF4O+7v3s/ez13fttfJ8Pz/m9Tz7+13fzzv72XtdGWu36pC2ZMPuY7WtmgO11h7bvWFJWgdGUkzhk7bc0bjpzpZJ4VRThRSd16hxVmNeNNVVEXWcf1tD0O35Ham2KmhctYak6nFUXfm1sFVDU+tCqq/kCtmsoWpzCNVYZsVVaMiqiKMqy6vgQxq6DgVTnaXVJk2ANlGdZdU8TYjmUaXlVFqLGABa0qjWMspTqQlSpYeqLaFmaMI0g6otn8JqxAFQE0b1lk6LNYFaTPWW7gngpkgAbtJTgGxK0YQqhSoumfKNrHrY5EAPja6aTxWXTOdBn4qn9g10ctXAvlOLwQufp4rLpSTIpaujeVx69FXo2klUc6mUBXhUx2ngLq4OuHgW1Vz6l8DxvC4+nl4EpVeB3qIyflcv01+9gGoulUr1Fs3ld/W5+quXUs2l0hG9RcP4XX2Y/upHqOZS6aLeolh+V4/VX/0i1VwqAVPBo/hdPQqYIk41JwBIBACJACARACQCgEQAkAgAEgFAIgBIBACJACARACQCgEQAkAgAEgFAIgBIjDHGAkMIAFghge3c+if+8NfP/1Hbot2t+nL7eyOCCYCfFDzive1fVt3VWmr/8flf//BE+/y/f2HNmUdLWF82K5EAYCxxVln9o9c+s+aF9nYvCJh0CtyC+/0Efwcg4X1wY/NTkwLak/0TThgts27I6+rPAHTNazCqzIkJ7QaBrl+YbbVwb6L/AjDxnlllvujaPvz/9WXzzTbacgL8E4CAnDbzylz+dXvwf+p9r/ut7IrwRwAidnktzP2p6vufY2nnxR7+B0APS/ta5qjuf661PZfO9fA3AHqcs1aZXL/w3zkBqgFg1X/FCbDsv2MCFAPAuv9KE2DDf6cEqAWAHf8VJsCW/w4JUAoAe/4rS4BN/50RoBIAdv1XlADb/jsiQCEA7PuvJAE++O+EAHUA8MV/BQnwyX8HBCgDgG/+K0eAj/77ToAqAPjqv2IEmPlff3DnFf4EKAKAqf+1n1fcbx8EmPh/eIiHMRa37CFnAtQAwMT/h8viGWOeIYfbAQHG/je/+dNJG4Mr+RKgBAAm/lcO/vEznjebVSfAxP+MXz4VfYwrASoAYOL/8ZhfPpahOAHW/OdNgAIAWPRfdQKs+s+ZAPkBsOy/2gRY958vAdIDYMN/xjIeqEqAHf+5EiA7ALb8V5cAe/7zJEByAGz6ryoBdv1nLPprTgTIDYBt/xn7nYIE2PefHwE39N/neL5vmP7qN3D9V5EAX/znRUC4/ttNPNvWpL9+OK7/6hHgm/+cCBik/3INz8YBJ5MPQvZfNQJ89Z8PAZOB5ZU8WwcsbZ2M7b9aBPjuPxcCsvVfPcCzeQf0189G918lApz4z1iUYwKK9N/cwbN9O/TXL8L3Xx0CnPnPWNRRZwREAatsl/Ns4HJgVXMUvv+MjVeCAKf+OyYA+AXQMni2MEPz6TfAsf9qEODcf4cEhEKnO8fxbGIcEKAuVID/KhDAw39nBMwCvnSBbyMvACFmifBffgL4+O+EgEhoB4otfFu5Bdq/IVKE/7ITwMt/3wkIOQB9JYtvM7OgGAdCRPgvNwH8/PeVAE8p9IWGCL7tjAA3cyr1iPBfZgJ4+s9Y1BHDy1007HktBD9fzLulxWCYQsO+6Ysc/WdsgqQE8PXflICmmeA3wtfDH0/l3dRUOM56eExoZhNX/2UlgLf/pgRof9PXOmBarcENg/seewEG/9K10/Shwv+mcfZfTgL4+89YpAkBZ8c+9pP7bLnRRxfwb+0Co1jlzz72UDL2LH//ZSQAw39zArTa/IE/f7DvrJ2tRp+rRtiQPKTaKFrrrteTfv7YwPxaDcN/+QjA8d8LAZp2cl3uW3Omv1p01exDUzAaPMUsYt3Hs1+b/86KdSdNk3fiv2wEYPnPWGSF5lDlOE0ud5qXM/8ZmygRAXj+OyegLRmnzclt7vovEwGY/jsmYDVWq1e77L88BOSg+u+QgP1BWM0O2u+y/4xNNF5XL3BX2Uxk/x0RcC0er+Hx11z235SATFH+Jzdh+++AgOahmE0f2uyy/2YENCWL8b97Db7/PhPQgvxvkNnisv9mBNR0F+G/54gI/xmL9OWt68Fk7OZPfuBDWkdjeKbwe0MCjngEAJAlxn/GQv/HdqEb0/Hbn95oO61dnfimYExAFn77Q64I8p+xQLuvXfUjRNwCR9TbTGst9zPgDAm4EoLe/DeE+c8Ym91qp9AnBoh5CBpwwk5WrX9ESMGQgDewGx9xU6D/jI21/t7VujKYCVLwSutgXhuLkoIRATcjkNs+W6j/jEV8aLH/tXq4yJ6w4dUWe6U3RCJlYETAbOSW7xXrP2NsmJXDle7mRDChilh6z0Ja536Ll4EBAXtx2x35QLT/jAW/ccVLnb//czQTrpjlP3hJqyY7FDOBF0ECHkSitnqKeP8ZY0H/dtSkzteXRDFXFJt7y6zvJxP7mQQmYApqzK1u+M8YY/9SXAeW+caHqS4etB00uhB+KL5RkiIgPEjAVtSQ0GT3N8UUO2DQwi8e/QG6dWDtSA9zWUEvrP3q+0d7o8sXDxEEJbQo9hxqRKAP5LBADzr8KvWVJRuL//Kfq5bNHZXIpFGv9EWrPvjwo5JN7746qm+YQPqAn8Z6zICdAeKGMJJr+g1gSGfEeE8CwHnIBvfkAVasPYkYL0Uf7iC54KYO6R3BfPwcrQ+3k0xwUzv1joxGDPcMMP5EJrgpoI/sGcRw8dhbsZDsCdq6BnFOJAsEJkQtIxvc0zJgUhxqHwQwHfDhYPLBLQ0GugJrUCMeBG45ldHkhDuKgQZKcV/LsrGnvJJs+H8cciMbNWZ/jQiQ23+tP27UC0SA3P5fQA67RiMCZPZfW4P93KkRATL7r6G/k31CBMjs/yfooZ9qIQLk9b/lKfzgGzUiQFb/tY0CovdqJAJk9b+xl4j40zQiQE7/tWliMsgjAuT0P09QCoGfEgEy+v+psAnykaeJAPn8Px0pLg2um+GTuPhv87h1h+pOBMjmf3exqRAB/u0/EeDv/hMB/u4/EeDv/hMB/u4/Y92riAD3/a/q7l5aRIB/+08E+Lv/jHUjAtz1v5vbyREB/u0/EeDv/hMB/u4/Y93OEgFu+H+2myxJEgH+7T8R4O/+EwH+7j8R4O/+EwH+7j9jicYEfN2J3LSvTsZbpJ9NlDFhEwJ203aithW4SzH/GUs8Y5hyARlqV2sNi3kmUdacTQiYT47a0x8V9N+MgLbx5KkdjW1V0X8zAuroVcCGIq+p6b8ZAZvIVuvaoKr/ZgSkka9W9ds2Zf03IeB8KDlrTaHnFPafsQQjAt4ia60p28j/BDXyTzBYPV7bkby1ouAag/XfCaq0wIiAV8hcK8pU3X9DAk6SuVZ0XHn/GUuA5wm+QO56Vwo8/y9BrVb0vw+1YhvZ610lUOXu91etGVlQM+7QqKBXBd6AKpelXkM2Q+0YKk9+QdG9kpJHTpgwMjmpV3SQPHkNgeq2WUGSO0PdAUskeMnqN2FRUUXdY/udNtZVFC2a0C/Y/fwWQx0AnRUEgI0FWnLY1YxCUnPKqlo0E7VUleWkhriaZDmQ1lglf8w8tUCBw9zKpsNzb+9r1Cypcd/bz3VwK88wANBaRR+d8oHi9nMlk/g5n9VrtlT/2Zx4V1LtCySTr+jz7EA5bmYhL+15qPmgh3tecuHHYBSQyUBV32hO6tvymuAUAlIK72o+625hSoDghF9tTx2o6/SNeU9oAhELL2kOdWlhhNCU39WnsE5ZAFboG7NVYPjYnDsaB93JiRWY9CZ9AiuUBeAdNzuDE1fVa5xUv0rcRAygI/gdZQGYr29MiaDQvQuaNI5qKugtKPGP2tOU+tf0jfmLkMChS5s1zmpeKmZG24fuPzjz02yXHmjSL2kIupQuIvcP9IFnKwvAx670afQu1ZBUKuB3YJU+7MfKAlCnb8wi7JgdFjVoaGpYhN5FvAhYU6Oq/0lACbFvowO+0VD1zQDsny8gaJKiALwOtAX5ZMPp9zVk3Z+O24JeQMzXFQUAWOD+PWrATsWaABXjbnfxvT7iLjX9fxZY4PoV6k9OpSZElai35K/0AVufVdH/AGhmw1rEgC/be/qrr606tr9s69ay/ceqau11Gja8jNgMaGOI8gAFAZgmdl544Dqr9j04Xbpi+vNdHv16l+enryg9/cDqNdbhHdI5ysVDgXkqHJgPpN1Em3zZcbsl41oqckea9OiFjsytaLF0oe1oy9yCbkGr6sKVA2A9VLZCrGgR+yyYdm1thoXTVSMz1l6zcLF9aKPEH0Hh1itmv6cQrNpopHDxx73/5JeMsnzbDhxV4v2h4DjWlLGxYLhCpeYFhsC9sbeQfgH6XPBiVtveTJvvbp0y97Z5ueiFPkh9mfAshtIQdfyPPACXLBcn3MDr5k61bnval8s+va3V/LrXkebq5cHhDkQqYn/orMtwC37AmVnTx9z/lpK+vl65b4n5E+F1nHtAV4Pfn8uzVNhjJSq7zqhey3F+/03v/60bHZnUZ6PpXeACznPAe4ZbrWVHSf3mN2hydtE9w2rdQ9koLsL0+e/oEKfXH3LU9EkQ5V0g1qSIRdmTB6G/EyZlLS4oPXKx2p5ueHloWory/m/2/ndrJof+msCZt8zeBlH6A5Z6KeUNm9ZcPFJasDjLWg+2JyX/PEoPejXGP0ugSf9PW2EXPkG6FJq8EGzH6BOMqEax4Hx+ireXybDFN5FGUFqHY/yrmPT/fjeGX5gx35n0CmO0a3grkg03F5utzvTMqEEbQluJUaeXjeMd7MEzUI+DxpFQRoZWohlRM8PwLpCGOJx6AmPlfZLh+F/bSs59TkErDX8GGjBGh4NPIA5np8Ex57XgxazHmEnVyRDY2wgzz9JvGxYUY4bIgHo8N1rmQchtQpxC0TgC4zZpOP/nW5RF6P2+NZwjhBFuRCOiIZt0N+S4Q4jhHqBMBZ1u+B/ZE+ftuKfhHQdlnmD6A0RLDsU9NnpTgRisZTJGfQYYzf8sRzuZIKbcaKYoylzhyYi/yVrFo2NLmxFDNWeijJkZzf/eg7gLTdgeo9niKOsFMpsRbXlk47GFiIGu4WwNt8jIf9Qd34KMCMBZ8DL0GqIxC3+JM64VL8x+nPGS3gZvgOXIu1CFGfwKNOCsGovfj+dM67if+9Or0YK0rUb6hzRY/1eJfjJRjMGTYCnSLWd1G5o51T+NY8xHC1GejGRDusH7X0+Grp4Gb4NYi96Sy9Hs+XHjgejbWIRNwTIh9BLc/yNkE7p+cL0uoc3WmIJ1h74dzRgznIHkVBcX4E1ig4dL24Qs4GcsvU3ccPf/vaQvuIjjUR5jjIVj9Dg1FKciLmbp3SxuvMn6SE0z4u4BAanFGKveG8MZY5O4X/bClizcrdUK4PE/YVt+B8Fjg7gHJEdkbeX/UzCJMbaF29Waak4d2LE8Iw67/ong/k/f9WDC1AOcH9CEvpdYtxfzP6s4f5vfi8EWw1noZXOHxUbak7B9oFeBDwBjmECNAT1YJSh6YEyCPXUbMX83aPOdDiwN+nudzEc9x4IDpYVikwBXPtXHSly28eBs7TS2BPjr1TiJG8JywPmfXcQm0QWcKZojc93irgIZLwGPKR4tczsiwN+smaLTmAneUSNkrtxoIOMNbLeg+Q3cBA5cHQ0UnUbgUS8DLBIKmEGzmx3T/3GqzI0IgDoBW4eIT2QINIJ2SeqtPKbqEz7GgH0c+srcCPBYxY1uZLIRyiRF5toBp5HUMj3HDwNlbgT0+N3Sx41M+rS4/zJi82dLf3JKKwP6M2RuQwh0/keJO7lAR3zelXoVP9CDphoAL0FPAC79ZvWFngJeIgBQBU3Jcu1E4m3QlDQCAFPxwPlfbU+7lc3TQIfww3gCAFFzgP+5ve6lsxdIZw4BgKjPgIpnupdOJpDOZwQAnjoA40D1ndzLpxOUTwcCAE3PyfMOaPwm+BwBgKa3gXqPcjMhaGPftwkANAEbAl1ztd8yEFi6s48AwFIIMH91rbspAZu7N4YQAEhKBW64Ge6mlAGklEoAIAmYC9Ti8v6pkS0qzQtSHYAyYJm72zkBGyuUEQBIqtInm+t2Trn6nKoIABwFA7fbkW4nNRL4WQomAFDUD9h9yPX9s0OBnXz6EQAomqDP9bT7WZ3WZzWBAEDRImHbMthRqaj9YgiAIn2uK9zPaoU+qyICQNQb13T3s5ou4btpOwUAWNz2vPtZPQ8srSQAUASMBHRxP6suwGgAAYChIGDyhQx5AZNCgggABEVD61okELC2KpoAQFAvSTtdgQ7qXgQAgpKgpY0SCFhem0QAICgZ2IdWhryA3VyTCQAEjZR04LVMwiGqdgkAMBSwVYa8tqozGEAAEAD0E0A/AfQQSA+B9BpIr4HUEUQdQdQVzEXUFSxINBjk5wDQcLC/A0ATQvwcAJoS5ucA0KRQPweApoX7OQC0MMTPAaClYX4OAC0O9XMAaHm4vwNAG0T4OQC0RYyfA0CbRPk5ALRNnJ8DQBtF+jsAtFWsnwNAm0X7OQC0XbyfA0AHRvg7AHRkjJ8DQIdG+TkAdGycvwNAB0f6OQB0dCxvAOjwaF/VTg6PpuPjfVU7OT4eWNo4VeZGBFyCngKGiE9kCPQEcClA5tpNhZbX7tb/sVjmRrCF0D/eUeE/W4FHoTwWSl26Yn3Cu9kGoBmjZW5FxB2o8jNFpzETyuJOhMyVGw1kvIEtAf56NU7mduRApb8leJVgl1tQFjky1y3uKpDxEpYGNaRuvMQNia3X3H/8hl5GtPpYics2vg5KOY11AO+oWtncYbGR9hQmqimroITbxois5pg2KIdVosKHRdlT7LC5ZaDNdzowtkXjpaaaUwd2LM9A//1IbIKif9dDnP89vgPbn4h+F89YvuPAqZombpZtYYxN0njrwpYs3IehAjDsQWHbMgQdBBMowH34zdpygbtVkxhj4Y0afzUUpyK+EfduBoOuFAXASjB8c2/E3o/U4gYEmxrDGWMsT0PRxQV43eJLwYht6WL8TwcfALSlaAFDFlzE8SiPMcZY9G2cq2vVU7AqEnoJDHhbyKrMfnC9LqGtU51SjWTQ7R83s5qvYakca8fEdDjetz3x/e/5LRwb6/aTXI5mz/wfQ3SsRgvRthrpyawUjlcZg+1/TCUcGWmriqDVbWjmVHf8Kcq4VrQg2n6cKVK9DZ6JypF7I8IM/h8bcJ4A4/fjOdM6zssACyddG4pSmkUG4fagvgwG7TEIi7MrzNBriMY8MnC1GTFQM8q87Q7fGBGAeA8IM/L/G5TFAJnNiLZsfvRFowIxVMtkjOoMuG/05In2HBBj9Dx2fwBGuMktiKZUPPaSHncIMdgDlCfk6UbhKpHeBXpWGkVE2a4w/QGiJYd0HfbBmxDDNY7AqFCxUbhvUfoD+n1rFA9lBs2IRkRDNkHbGM1DvOPUY9wjOxn+R95GuOWkG/aXVWKsThxQj/ibPA+OmVaJF/MExs5ZSYb9420rOb8MBK00fB9vwDgeIvgEnheVaUZRPTNq0KKijNS8bBzvINfR4R4HjSO9LG68iYdqZnjM3nMW38TqdhiOUad1xgG/4zhDZMx3xnHWYbRrOFbX3M3F3t6SPSn553E6HjHmCARuN+mGLuQ0T7BLoUl37HaM+cgROJ3z5/NTPNZ+W7MWF5QeuVhtTze8hEcZLu24zyTirZkc3AmcecskxL6OGK1a6qWUN2xac/FIacHiLPSjrMIHTc4uumeY9T2UKZMRx80qddTxipEhR82ufxxl6lOMSRGLsicPCmcSKyq7zij593DGS0wnSrVudLRusM9G0x/jCzgjXcuN4tVlRzH5FTrrskFnQFeUeH2um7/0lvi81rFviXnXyHWcRamxP8DhLs8KZWoo8oDZDCTuGnjdywvINp/2EHl6m5dH8esDcdqTC4c7EMmUUQg8X+MO0gZafbxNl23bm2mzt65T5l5vMzEuIC1KD4IfOktDmELygCtntLFI4eKPe++MLhll+ZUgcFSJ947Y41ibAY0GwxV6mFpaD7XiI6xoEfusTE1Zm2HhLhqZsdbKNIx9aEsfwP+d9Uw1hddCL+Zo03U6brc2DFKRO9LkSSp0ZG6FtSGx7R2xWhIE9cXWhisHAJsG1Q1vY9/AdZZnJ5wuXTH9+cd6Cbs8P31F6WnLI/Dr8PYjeAGKN009/1kANH0Gc3P3l+2tnamvrTq2v2zr1rL9x6pq7Y29NryM2Iy10CSnAAUBYM8Cb1FfYQZMQhzOfmQ4FbVP9SvgPfZZpqR26ZvyPWrATsUi/C/G3Z36e33EnWr6z14HqtcLN+T0+9j230c+rrgXEHOWogAkAW3BXr854Btc/78ZgNwAaNFbX0UBgM57Rz9Wt8OiBjz7GxahHwYALHi5qqr/7GN9YwTsotK7FMv/0t742efrwxYpC8BsfWM+EBE3/RKG/ZeEbD8AdGe8qiwAr+kb86GQwKFLuS+qal4qZiz2L4KWnQjRfIGjAY//DhQ08bS/qaC3oMSBLcjnKAvAO/rGiNvZPXEVt6UV9asShaUNHELxlrIArADWJAkMH5tzh4f9d3JE7v+4VZ9ArrIAAA807wpNIGKh48fBSwvF7v/7nqCVB0J00v0n2oCUwru+u3+3MEX0MAzw4HxSVf8HCh0PNlTIS3se+uL+wz0vuTALayyQyUBFAciXplczfs5nNp8I6z+b4875b/2AZPLV9N8DzAlqCXMrmw7Pvb3P4or7xn1vP+fa+a9hwIykWo+SAEA3s3JXMwpJzSmrMp3y1VJVlpPq7vTbwwIn06Kq8xmgJYvdzyu434RFRRV1j90NGusqihZN6Bfsfn7QCR5nOisIALjx2BB58guK7pWUPHLChJHJSb2ig+TJayhUt83q+Z8FrmoNZCRvj05g71WWas3oD07NKSF/vWsbOBGpv1qNSKgCn7FSyF7vAueFa1UJSvl/Gl5NRe5a0UmweKcTlPdfyyRzregVTXECjPyvCSZzrahjrdoEJJwx6GXJJm+t6S2DAp5RgoBEI//PhZK11hRqtE/bmUSF/W/7LTlrVWmasgQY+q9tIF+ta5OqBBj7fy2SbLWumDo1CTD2v3UsuWpH49tUJMDYf+2P5Kk9GZ/lJy8BJv6vJUftqkA5AhLPGqa8i0YBbcuz27CcZxMV8/9oJ/LTvjp9rRQB3Yz9Px5Dbvr0KmC8++HZbuQ/EUD+EwHkPxFA/hMB5D8R4Kr/VeS/OwRUdSP/iQDynwgg/4kAt9Sd/HebgO7kPxFA/hMBrvh/jvyXgYBz3cl/IoD8JwLIfyKA/CcCyH8iAF89yH/5COghLo3I0+S/fAScFrb2KvBT8l9GAj4VNfk+j/yXk4A8MRlMI/9lJUDIEcO9Gsl/WQlo7CUg/EbyX14CNuIHf6qF/JeXgJan0GN/Qv7LTMAn2JEHk/9yEzAYOfAa8l9uAtYgx71A/stNwAXcqP3Jf9kJwN1WPJv8l50A3P1YDwIRK6PJC5cIqATsOIgasgY4Xm8wOeGWBgMHItZgBgwEeoGWkQ/uaRnQF4Q5JhgP3HLiyAb3FAcYgnng5TP6cFfIBTd1Re/IM4jhRuvD7SQT3NROvSOjEcOl6MMdIhPc1EGxJ3M9qQ/X4CEX3JMHOBP7ScR4nYFnjt+QDe5pCGAI6jGzAHBHBR672qFn8oRZyzbu3Lh01sSh/9RRGh96pS9a9cGHH5VsXPJK6q8EHjzuAU6arkeNeM7Fs6CemPP3R/s92g4v7Oe690EvrP3q+0fSevDFwkEBYoK/Ca0PQI24FYj48EX8lgb881L4OMVzq1JcfAgJGl14E0yrrljEIakZzUDoraghp2huEBA47ZJmrJu5se7YH5t7yySt45nBbvivTUGNGfnABQLGndTM9cNyF8YjY5b/4CWtmuxQ8f4/QF4ftBds6sPf40Uc+qXmXfeWRoi1P2LpPQtpnU8T7b+2F7nhszWxBMTv0KyperhI/4dXW0xrU4xY/7XZ2OTfFErAoCuaVbWuFHY0cfDKVstp1Y0X6v9N9DvhG5pAAl5s0GzoxAAx/g84YSertvkC/dfeQG99yBVhBAT8qU2zpfoRIvwfUW8vK63AI8z/KyH47c/SBBEQtk2zq8Z0/PanN9pOa3cnQf5rWSK6H4+IISDmqGZfDyZjN3/yAx/S+jpGjP9HhHSKda8xJGAiR/+Pa76oJRO38ZktPqXFc+K0sf81gvYJSm7CJ8BH/zWteShm04c2+5gWPwKM/W9KFvUalKlhE+Cz/5p2DXFOXPw1n9PiRYCx/1omE6YcZAIc+K9p+9HGp4P2O0iLDwEm/ueI7AnLNX4Mm+iy/5q2GqvVqx2lxYMAE/9zxfaFYxLg0H+tDem3MLlNc5kAefzHJMCp/5pWjtPkcqd5OSVAJv9NCZiA6P/JdSvemf/a7I/rzD6EMiY+xSzi9b/Nfm3+OyvWmY9cH4tpP/5jEWDqf23+wJ8/mPT6LsMhmWqEHtEQwwHAlh2zf5maNjC/FukeYOL/csbaCwFm/p8Z+1hH17OGN+UF/Fu7wCjWV48txfGMPYNBgHz+YxBg5v9m/XzngGkG/24Xuc/KDLho0Pv27/rPdt7MnwAZ/edPgIn/9+FxjvD18MdTeTc1FY6zPhz8dNZ9zgTI6T9vAsyOxjLc+aQQ/Hwx75YWg2E2GH28P98D1WT135SA8Rz9P51g+C1PKfSFBs4zYyLAqSn/bbwWP4Hnlvry+s+TAN/8ZyzkgICRcXAWxN/N1iZxJMDEfwm25+BFgK/+MxZ5GfjOFr6t3ALN+Q03/Qo3AuT2nxcBJv6fSfDy3Vn4++VB+yPO8PKdhDNcCJDdfz4EOPGfhdZhb10DbcVS63VxKhcC5PefBwFm/id6/zq0fWEGzxZmAAH+w/vXEp0ToIL/zglw6D+Luof8eLxcf/27VtZgOSbAxP+ljClBwO/w/WesSP/NHTzbB6xPKrL0RYcEqOK/MwKc+w/9Bhzg2TzgTdPitgiOCFDHfycEcPCfTdZ/9xTP1p3SX9/qBHQHBKjkv+8E8PCfDQJGaXg2DpgJP4hhE6CW/74SYOL/Wcv+s3BgkjTPtgET4cMtfznxrE8EqOa/bwTw8Z+xG/rvh/FrWZj+6jdsfN0nAmSZ/4tLAC//GTBdJ4pfw6KASUcMlwAV/TclIMOu/91Y+wGAdbNLgJr+2yWAn/+yA2CXAFX9t0cAR/+lB8AeAer6b0ZAcwae//IDYIcAE//fZay9EMDVfwUAsE6A2v5bJcBs/p99/1UAgHWzNk9Qdf9NCXjzp5n9gyu5+q8EAGYEVP509JbnTeX9NyNAOzzEwxiLX/aQr/9qAGBGwMNlcYwxz5DDmvr+mxKg3a/43GzxlG/+KwKAGQGadmXnQbMNyBTy35wAU/novyoAmBNgqj8z5gcEVPm6zZEqALDuVX7hv48E+Oy/OgD4SIBy/vtEwDnftzlTBwDW/Zxf+O8DAQ78VwkAHwhQ0n/bBDjxXykAbBOwhDE/IMCR/2oBYJMAZf23RYAz/xUDwBYBCvtvgwCH/qsGgA0ClPbfMgFO/VcOAMsEKO6/2a6y/38opAfzNwBYj0orlXmbKa+p9722cpfz7TzUA4BF7PJamIZJrB3o15fNW9mWw2FLLwUBYAE5XvaerR7I2oW6fmHWyntc9hdXEQDGJpoePvhFV9ZOFPD7U4Y3uTw+rVQTANY1z/BctBMTAlj7UeBUcEJc4/sJnAIoCgBjCe+Dh1CdmtSe7GeMMc+/fviYSfc/nd2N2+WVBYCxxFllj80DObPmhUDWHvXUvI/3n76jac1XjpStGcN1Q2eFAWCMBY94b/uXVXe1ltp/fP7XPzzB2rc6RiFcVG0AflRIICP5MwAkAoBEAJAIABIBQCIASAQAiQAgEQAkAoBEAJAIABIBQCIASAQAiQAgEQAkAoD0o4DD3WP5XT1Wf/WLVHOpdERv0TB+Vx+mv/oRqrlUAo4Qn8vv6nP1Vy+lmkulAr1FZfyuXqa/egHVXCotBlbXjOd18fHAxRdTzaVSFuBRHafzo+Ogs6mzqOZSKQlaYHd1NI9Lj74KXTuJai6XzoNLbIun9nW02iaw79Ri8MLnqeKSKd9wH/YmBzLc1T6fKi6ZUjShSqGKSybPTZH+3/RQxVV4EUQTvQTKp7Aacf7XhFG95dMMcQDMoGrL+BRQKcr/SnoCkFJpLWL8b0mjWsupeWIAmEeVllWbRPi/ieosrYIP4ft/KJjqLK/iKrD9r4ijKsuskM24/m8OoRpLroWtePa3LqT6yq9x1Vj+V4+j6qqgjvNvY9h/e35Hqq0iis5r5G1/Y1401VUhhU/acofjP3/JpHCqqWrqkLZkw+5jtY6eCVtrj5X9159Sg9pvlf4XteJ6YuppPNMAAAAASUVORK5CYII=;" parent="1" vertex="1">
          <mxGeometry x="635" y="232.5" width="45" height="45" as="geometry" />
        </mxCell>
        <mxCell id="LnJRWbe0wSDpx0MPoHch-32" style="edgeStyle=orthogonalEdgeStyle;rounded=0;orthogonalLoop=1;jettySize=auto;html=1;exitX=1;exitY=0.5;exitDx=0;exitDy=0;dashed=1;" parent="1" source="LnJRWbe0wSDpx0MPoHch-15" edge="1">
          <mxGeometry relative="1" as="geometry">
            <mxPoint x="860" y="351" as="targetPoint" />
          </mxGeometry>
        </mxCell>
        <mxCell id="LnJRWbe0wSDpx0MPoHch-15" value="" style="shape=image;verticalLabelPosition=bottom;labelBackgroundColor=default;verticalAlign=top;aspect=fixed;imageAspect=0;image=data:image/png,iVBORw0KGgoAAAANSUhEUgAAAgAAAAIACAMAAADDpiTIAAAAA3NCSVQICAjb4U/gAAAACXBIWXMAAIDZAACA2QHmjdRnAAAAGXRFWHRTb2Z0d2FyZQB3d3cuaW5rc2NhcGUub3Jnm+48GgAAAwBQTFRF////AAAAAAAAAAAAAAAAAAAAAAAAAAAAAAAAAAAAAAAAAAAAAAAAAAAAAAAAAAAAAAAAAAAAAAAAAAAAAAAAAAAAAAAAAAAAAAAAAAAAAAAAAAAAAAAAAAAAAAAAAAAAAAAAAAAAAAAAAAAAAAAAAAAAAAAAAAAAAAAAAAAAAAAAAAAAAAAAAAAAAAAAAAAAAAAAAAAAAAAAAAAAAAAAAAAAAAAAAAAAAAAAAAAAAAAAAAAAAAAAAAAAAAAAAAAAAAAAAAAAAAAAAAAAAAAAAAAAAAAAAAAAAAAAAAAAAAAAAAAAAAAAAAAAAAAAAAAAAAAAAAAAAAAAAAAAAAAAAAAAAAAAAAAAAAAAAAAAAAAAAAAAAAAAAAAAAAAAAAAAAAAAAAAAAAAAAAAAAAAAAAAAAAAAAAAAAAAAAAAAAAAAAAAAAAAAAAAAAAAAAAAAAAAAAAAAAAAAAAAAAAAAAAAAAAAAAAAAAAAAAAAAAAAAAAAAAAAAAAAAAAAAAAAAAAAAAAAAAAAAAAAAAAAAAAAAAAAAAAAAAAAAAAAAAAAAAAAAAAAAAAAAAAAAAAAAAAAAAAAAAAAAAAAAAAAAAAAAAAAAAAAAAAAAAAAAAAAAAAAAAAAAAAAAAAAAAAAAAAAAAAAAAAAAAAAAAAAAAAAAAAAAAAAAAAAAAAAAAAAAAAAAAAAAAAAAAAAAAAAAAAAAAAAAAAAAAAAAAAAAAAAAAAAAAAAAAAAAAAAAAAAAAAAAAAAAAAAAAAAAAAAAAAAAAAAAAAAAAAAAAAAAAAAAAAAAAAAAAAAAAAAAAAAAAAAAAAAAAAAAAAAAAAAAAAAAAAAAAAAAAAAAAAAAAAAAAAAAAAAAAAAAAAAAAAAAAAAAAAAAAAAAAAAAAAAAAAAAAAAAAAAAAAAAAAAAAAAAAAAAAAAAAAAAAAAAAAAAAAAAAAAAAAAAAAAAAAAAAAAAAAAAAAAAAAAAAAAAAAAAAAAAAAAAAAAAAAAAAAAAAAAAAAAAAAAAAAAAAAAACyO34QAAAP90Uk5TAAECAwQFBgcICQoLDA0ODxAREhMUFRYXGBkaGxwdHh8gISIjJCUmJygpKissLS4vMDEyMzQ1Njc4OTo7PD0+P0BBQkNERUZHSElKS0xNTk9QUVJTVFVWV1hZWltcXV5fYGFiY2RlZmdoaWprbG1ub3BxcnN0dXZ3eHl6e3x9fn+AgYKDhIWGh4iJiouMjY6PkJGSk5SVlpeYmZqbnJ2en6ChoqOkpaanqKmqq6ytrq+wsbKztLW2t7i5uru8vb6/wMHCw8TFxsfIycrLzM3Oz9DR0tPU1dbX2Nna29zd3t/g4eLj5OXm5+jp6uvs7e7v8PHy8/T19vf4+fr7/P3+6wjZNQAAJJZJREFUeNrtXWdgFcUWvjcFYhISQgktCAIhqCA1gggEEJTeld4EHlUgFCmiIAgiRFCUIohIlyJVkSoCIlINSJfeS0joCUnu3Zfg86nM2b17d2dmd3bP9xN2zpk535e9szNnzjgcCHHhfLp2n8/W7Tx45mZyWuKFI7s3fzWkybNZMC62QECNMTsfSADSj0xrkQvjY20UHLIlWVKA++DkShglqyKw3SaX5BnHhxfEWFkQUbPuSirh2lQf42UxlF3mkrzBby18MGjWQaV1ktc41t6JgbMGcn3llrTg17IYOyt883e9JWlE+ichGD/RUeIXSQeuNMEIio329yV9+AwXCEX+8v9K0o39RTGOouLZwxIF3GmBkRQTVRIlKnAPwliKiEYPJVqIwyUB8dA1XaKH+f4YUMEQK1HFd6gAwT7/3HQFIM3HXwGRUDdNDalpl/asWrL91AN18wCMqjio6Gn5J21zv3pl8vy14RdaombH+UmeFIDfAsKgUIIik/eXtwsjG/nV+vyS8tcgrgcIAv9dSjQuaRAg19AZPeGe0ooQrgmKgTgFEjeXU24bPlVh9rAf9wVEQAP5D4CDdTw3j1yusDOE0TU/CshOAM53UJfmVWm7rAJwd9j8kP0DXhms2sZguQTCK5ghYvoVADn+R3uzklPvtoyVTzDC5kbAaZi4B697Z6fESZksMcwTNDdGy/z8l/HWUPYNMpmiuCRsZkSkgKwdCPfelO8XsALaY5RNjE9Bzq5FaLHlC78DjuGJEfMiHMwBeVRZm7Xs8DwAV4TNi/EgY521misBfgv8hnE2K7KDxz8nazdYD1wPwJOjZsUAiK6NvjosDoYsbsJImxTxAFv38ugyCa0Ku7B+gDnxAvTnOlKfzUqQzeEYa1MC2ga+FqzTKLS1cBxjbUb4XgG46qHXaiSUH4B1hMyIGOhv1U+32al0PywQzPA+wFRT/WbDgSyxgxhtE2IHI6ImAImFWE/QfAhMJYl6l4bhaFwOFgKvAjyVomHYCWSLT8N4mw5jSZpO0bH8OWn5CMbbdFjD7DRXLSAxyJgEcZ98FRr37N0kuoAv8k3gBElTFTqW/YBTY8/yHl7ODot3X/r/iff0y3uWdM6NpP8D/uSCzXVaqRvzjc4PLzrgJ6DagWvHoEgk/i9EkQFaTMt2R9L2EH4jyzZCodTR0VGhyP1jNCKDM4GW7Zqk7a+4vdn63FA+tJwQiwfWMtGHDE1/WrZLAGcMOQ3rjT88Vy442wYzlR2O4WRgWtKyHUra3s1lUNV2q6xlWBMFAKQDVqVm/IEhCwHOUerr3Iyzfa7ydDIoxagZJ9/DF9iPKHCZNzWMVgfbXAALyZgEUjNOJoYlMh9Qwd+8q2L1+zP2FgC5EHiHnvElZJEh1uOpfM3bOmY3Y2wtADJ1K4We8VWE8WTGw2n2yPtKdqmt7CyAL8mA5KBmfA/558Z2NOU1lblNsXOq2kQyHiWpGb9I2D7DdDB5L2qrZnk1wr4CANYBatOy7ZPGNyks6y7Nlxs8ZVsB9CSj0ZGW7Tyk7Z0sxzJXe0XbJbYVQCsyGENp2S5D2l7HcCiD9dQ0fteuAniNjMUUWrbrcS0YVzxNjwBcJW0qgEgyFj/Qst2PtN2H5wetd4XtbSoAJ3k0PIXW6uhmhhNMAhUVytz+8kGPxtEVGnYfvV3hIly7rgftYJa8HQa8k59mNo5tsheZ/ifv30/l7vKz3HO7bSqAKWQoFtCx3A6oOsdsB76BDK0nmj35ZKOjMo/a9NBCZzISSXTueVnO8SvQB07/Sh8CHHL0jYWniyf9bCkA4FtNqkXDcABw+8QYVqNoAVKa9Br8dE24LnI7WwrAHygR+Dmrl3INVqNYDOZ8FZd7vAiYMbbSnr8B64C1cRoro+ResJQcwGgMWe5AVW4UTriBhcwe2HNBuAsQimH6zZYD8rK2sBpDHejjT/EMQl0XVrX/H3IBZydu52SxCMDuVMAMwNlE5SZjgCZf2/M3YDOLWh51eJYJc14F8v49nPwIgtrY8+xgT6hMrM5MOZ+DPAsFvgQ46+epUXeek1RTIy/0c7hIn80OXD+z3iF9XfJ47sfvDMfPVHNjEzSFqqjHYvB5wOTdQFYDmK5pSxOoYTPHngKoDf25XgjXbtC5ErI4i9kAyORTScWZn8pkq/X2FIBjH8TXz9oPT4L3j7iimPWfTD5NVLGs60NmkB+yqQDghdQvtZp7HTS3jF3/L2k7hPod76Rl08IHvuKhrzZrZeBrxdldGwUkn85T024mOfOx65HxrvBd4a9osRV+HjTGMBsQSD4dr6bdKLJdIZsKoAh8njZJgwIiDsBZOQwPX5TWWOOgB9muoj35j5Arp5Dm9a+A3Nk8lqVBIjVWpgcuyiiH/D85E/TuV7GzzNm8WyyLxAZrzD6Ow58Aj/xnfA16sR7gO1nOSlemIyATW79V0ww4Gh+M/JMrQqp/F/NslLPxC9tqPMfJs15qmu0kt0CQf2j+tkjVzlDwyHtyFu6XYDuGreSqk4orj4Cs5SvIP4hHn3jMD/DroVCZgfW1scC7vJvnVu2NK2ImGP+ZGSLDlNOlmh5XaMy8OCAwm/vec6tvyVZjkX/5M/Sf15LLFi/17kGllocDWQ8DWMdKK+6pUWEgG7Yx8q+EpAUtiFmyT5W4U8qtEtkXiIYyGpZ7arQA6Gte5N9TNZUfpgztWLtkDocjsFjVlv0nLL7uqcXDKhxGstP7K8rKAouf55B/1UK4o/LB9EY8hgKVBohX/OUJ2AM0+Rj5p46uXMYS6XXVj3lQizLIP2W4YzmNBjwaOEL++UHgbBX5p4y09ryG84FXlYCdI8Hdz6HIf+aPdt/ttPi/X5fbeKLSwR6syQY9HAQXE0nOh/xn8N/W4feRmwr/CTw312fKlAcA5qB1ZQoETEL+H/OfgYaJFPjfxXVrNf8DmW5sf+JzsMKPMg/ey438/49/h6PwXt3Tvzh/voMaK9uVo+Ne/Gszstzo32Uf+wD5/z//DkeWqTpf/w14jyrkpkJ37h3funDBlmOKixeRyP/f/Geg1T0d/C8vwH9c/XS+sw7lRv7/9WCxJVrngqfrGjGwLMdRATT5z0DJZVokkDI6wJihgVU/UAHa+c/ACyu8lcDDT40rvV7HhQrQzL+rLdyizGpvInj3w3AjhzdQQgVQ5j8D5VerrcIcPyC7wQOcgwqgzn8GQlvM8XwV05W4F4wfYdZfUAGa+PdYu8NZ4b3d8r+wqTvejzFHeZ0cP6ICWPD/GLk7LDqUTGz4nVgz9tVA84zSbxoqgBH/f74JCtXuPSpuxoJVaxZOHz+8T6Mof9MNtGcaKoAZ/0Kgxi1UgJ35dziK7kUF2Jn/jB+qNmfV8HzNNgqwGf8ZyBKb4In+S72y9LeJAuzHf+bixfhkxWWLvlkzHrKHAmzJf+Zna9e1MhpIXtLgf2Xk7KAAu/KficAmc4g8kWuruvyjjrT1FWBn/jPhW7H1oMlLfj6b4ko48cvaT1sXfuL/ra4Au/P/j08DmX/vZ2kFIP+eYWUFKPDfHpm3vgKQf3srAPm3twKQf3srAPm3twKQf3srAPm3twKQf+/R10IKQP7trQDk394KQP7trQDk394KQP7trQAF/jsgv9ZXAPJvbwUg//ZWAPJvbwUg/3TwlqAKQP7trQDk394KQP7trQDk394KQP7trQDk394KQP7trQDk394KUOC/I7KoB32EUADyb28FIP/2VgDyb28FIP/2VgDyb28FIP/2VgDyb28FIP/2VgDyL6oCspdtPnD0xzMWrNy4ccX8GXHvxzYtHYL8mxu96SggpObQpfuTwKs2934zOCYY+bewAgr1+Pqoh0vYXIe+7FoA+beiAsqOild76/Led0rq4r8TcmU2BRSddN67CwtOjX8a+beMAqqs1HChZdriaOTfCgrwa7VH670lO5r6IP+CKyB04HlJB071CUL+BVZA4cl39d5hlzi+APIvqALyLkqXKCB1dk7kX0QFdEyUKOF6C+TfTOilRgEF10kUsTwP8i+WAv5zR6KKhLbIv0AKeGaLRB1rCyD/gijA+dZ9iQFud0H+hVBA5R0SI2x8Gfk3jwLckong6oyM2FkByL+gCnDdvXzlnhv5t5sC3Oc3ftandmTeoMc3GTqD80XV6TdtyyXk3xYKODylSRhsLleLaceRf6HQ00sFpK1tHa5sMX+HDS7k36IKiI8NV2OzwJCjyL/1FJC+oKx6qxWXu5B/Syng0cyi3pl9dl4a8m8ZBaRNifDe7jOzXMi/NRSwvaQ2wxX2Iv8WUMCNjk6thn16JiL/oitgbpgey+HLkX8BkFc2++NBJ722+zySs30tBCNvEqyU4+jo8/qNlz8tZ30mRt4caCnH0MIgGuZDV8nZr4WxNwNy3ZDhZzwlBz7TZBycDcbomwDfyGz59afn4j0ZBUzF6BuPJjLHOVrTdNIdPmLijsH4G42wq/DiX326blrDy4KnApEBgzEX/tOkfkevzHmkyciAsagL8xJL39P78GpQZeTASIRcZDr//xemg66OByALBmIcSMpSJr581oPO3kYWjEMQuFlzitEabe7LkLdL/siDYQBvlHlUnpW7GPBjsC3yYBR8wGX6t9g5fBfytx+JMArNIT5Ws1TcVshjdWTCIPwCsHEvgqXHKGhzeA0yYQxegv4cB/L/7HAXRy4MAZStc8iPrc9AqOrcdOTCCBQBlufdL7P2Cu09PcyJbBiAKdyWgP6FbYDbd5AN/giD6sCUZu+3FuD2ahbkgzugRaC1PBzvAhy/jnxwxyaAh0o8HNeHsg+RD94ITSVp2MLH9X7ScxJuCPBGK+DvsCkf150xQdgEWESScIvTVCzbA9L3Z8gIX/glGZiju5D0fQEp4YtKRk0BM1EHcF4COeGKfiQFJ7k59wUykfGmOL5YTFLwIT/v03E/wGicISmozc/766T3A8gJT4QDmWAcz2jkIgsSpOEREZ5oSApgG0//B0n/VZEVjhhBEjCSp//JpP/eyApHzCYJqMHTf1PSfxyywhFAcmYenv6jgHulkBWOOEde6MLVvz9ZRnIfssIx/uQJjT18e3CSvFcMaeGHouQbeD7fHqwle5ANeeGG6mT4R/DtQRzuBhgJICmHc9XGAWQPopEXbgCWYpvz7UE3PCFmJDoauhOQCSAhqT7ywg09yfBX5NuDBmQP3kBeuGEgGf5n+fYghuzBm8gLNwDn9CP49qA82YM+yAs3DCXDX4RvD4CTyd2RF27oS4a/DN8evIqlYoxEVzL81fj2AChO0gR54YY2ZPgb2O1D1NZoTIa/Dd8e9CF78BLywg21DZ+DAylJLyAv3FCODP+nfHsA1KjOj7xwQ3Yy/Ov59uBXogMpTuSFH8iTgWeN7sBJZIUjDpB127lW7QbOJWxEVjgCqBBXiqf/qniJnLGYaPBeDJAPMhxZ4QhgKXABT//fkf5bICsc8QJJwBWO7v3ukv6fRlY4wveeoUmZlYzVHwI8GtSLn/fhpPeVyAlXfGho1fbtpPchyAlXADWbU3Pxcl7YjTnBRiPcbeB+ELATlBKEnPAFuRjP73ggeTBQ+gEZ4Yx3jCvVBpWo64GMcEYpgIUJfFzPBC6qwL1g7jhL0nAnOw/H+VMkow+nIxzwhSFcjghPxitDTAHozrCbHGq15QZKRbuKIR/8Ad3c0Z+9W2AJSlqFbBiAFgATl4NZe80D7APxPpSAeAxfoFys9DFrr/MBp3uRDEMAXRuVxjg5uxp0W2lr5MIQBCUCZOxkmpzrdxhwecEPuTAG0HxM6sLS4yADritGyC/JQHd532Z4ULzkQ8Dh3RBkwih8Df1B7mV2d1TQMcjfJOTBMLwAEcLulNhcyFt6IeTBOGwEFcDo/sBOoLMlyIKBqOyGOEl6noWvFx9IBnx3IpQxBfyrvMTgtVwiAXQ1Gjkwdi3gDEjLCer5gRHnQUeH8eJ4g/EKyIu0l/KmQI4joJt0LBBsOGbCCtgWStNJrr2wlwkYf8MRchHmJj4fPR+FT8A+TgRg/I1HXZgc6WwkteWGK7AH18sYfTNgrowCblD6ga5+W8bBpxh7UyDsqgxBKT0pWHcOTpMxfxoPg5gETSQ5fKP7Ip8ca+Vsu2tg5E2CiNuyCjips4bwS+dlTV/NjZE3Cf9/SPJIGfOUdsvBcWkKpg+hAszPfwbOaL7L5fVLypZRASLwn5m1XViL4eIbPBpGBQjBvySlzvZ6TeD5hekqDKMChOA/c81msVd1BCusdKuziwoQg//Mr7YNbVQeHMvWaatqq6gAUfh/nL45p4bHpHHf1xY+8MooKkAY/h9/vC/sqpA1XLzH0ptem0QFCMT/Y5ybE1uvqO+/bfkVbzho/iVt9lABYvH/Jx4d+X7RjAkj+vZ7d+IXi384nqrHFipAPP7pAhVgb/5RAWbiP32ZixXNacvdqADT89/WUfU0G/6PRjt6ogLMz7/DETydAf2uuMwEQFSAAPxn4NWLtPk/XfVPy6gAEfh3OELn0uV/2v/Tv1ABIvCfgcbX6NF/4Z/3AqMChODf4QgZcYsO/dcH/XsXCRUgBP+0JPAk/agAYfinIQGAflSAOPzrlQBMPypAIP4zJRC7RxP77p97y2eQoAKE4T8TRYbFe0v/noEFFU2iAgTiPxNR7x1Vz378MM+15lABQvGfiVJjtt72TH7i5vfUXT2DChCM/0w4I1tO2JIkZyhh44ctnlHfI1SAcPz/NSV4fRlpZl4zrytLoQLE5D8DrUg7dTSYQQUIyj8tAaACBOWfmgBQAWLyT08AqAAh+acoAFSAiPzTFAAqQED+qQoAFSAe/3QFgAoQjn/KAkAFiMY/bQGgAgTjn7oAUAFi8U9fAKgAofhnIABUgEj8sxAAKkAg/pkIABUgDv9sBIAKEIZ/RgJABYjCPysBoAIE4Z+ZAFABYvDPTgCoACH4ZygAVIAI/LMUACpAAP6ZCgAVYH7+2QoAFWB6/hkLABVgdv5ZCwAVYHL+mQsAFWBu/tkLABVgav45CAAVYGb+eQgAFWBi/rkIABVgXv75CAAVYFr+OQkAFWBW/nkJABVgUv65CQAVYE7++QkAFWBK/jkKABVgRv55CsA7BURUafzm4PGjujeskN8X+WfGP1cBqFVAwCvDVl355yVFV38eWgL5t4AA1CjAWWP2HeiB4+MrOZF/0QXgUQG5xl6Qr117ZVJu5F9wASgrIHTMPeXyxXdHBCL/YgtASQEjEj1XsL7SzRf5F1oACgpQh6P1kX+hBaBbAdJEH+RfZAHoV8D3Ici/yALQr4CjxZB/kQWgXwGJryD/IgtAvwLSWiL/IgtAvwKSo5F/kQWgXwGX8yP/IgtAvwJ2ByD/IgtAvwIWIv9CC0C/AoYi/0ILQLcCUosh/0ILwNFb5ytgKfIvtgDayHObtCAzG6xQpWb91ibLP/Ui8i+yAHxPysTANbeW/9+PBTVfLxesbci/yALoLBOD70o++eQr+2UebYD8iysA/7NgCG5BHXD2SgUfPuyL/AsrgHZgCI4UhZ+udgN8vDHyL6wANkAh2JpN7vFCp6Hn5yD/ogogbzoQgj9yyDd4/i7Q4KYv8i+oAGKBENx5TqlFI2jhqCryL6gAoIl9O+UmcUCTOORfTAGEAX/O+zwc/sl+i2xzEvkXUwB1gSDU9NRoANDoWeRfSAG8T3r+yWOjrNfJVt2RfyEFsJH03Ntzq1lkq9HIv5ACSCIcuyM8t6pP9nc28i+iALKSjveqaUYeH12P/IsogLyk4y/UtNtNHipF/kUUwHOk41Fq2q0kN4+QfxEF8DLp+D9q2k0j23HMDg7OF1muWv06VcoUy5vFEvwbJ4B6Gjf2RpLtCvPob2SzYV/v+mcBA9fZjdNiawcIzr+p3gDt1LQDVoNzsO7rM10WXJbh78HanoVE5t84ATxDOn5bTbtF5CExth0t+dFZD6mphz+K8ROVf+MEEEA6/kRNu5+IZqcY9jJP/wOq0pNvL23qFJJ/AxeCyH2dtWqaXeSYGBo1L019inp8YxH5N1AAh8nf06c8typN9ncxow6W+sbl3SmFffXE499cewEqPgNG8koIKLpCw7GlX18VjX8DBfC1pvy+38hWsSxmKKNStJ1V2lFDLP4NFMAg0vNDj7tBNYFI1mKwSHFa+3G1VWEi8W+gAIoDUfnKQxvnPmAC7k+7ZyHf6DqweC5aIP6NzAk8BhwJK6ncpLXEYQ5Y7pTOI6uP3hKHfyMFMB4IzF7FpdWIq0CTVpS71eeRpBvLQkTh30gBvORt1Y+n9kE1AkLpzv6WSjTwRxlB+DdSAD7XoOAMk58ALIae30i1T6HbJTpI7iYG/4YeDZsFhmeCTCXg4FXg471p9ijvQYka7gjBv6ECqAQHaB34Ui/yO/jw3VwUO1TsjMQe5uLf2PoAy+EQnW9HbKwEvH0bfnYExe4Uumw//o0VQHG5vZbf6v7rdyBrJ7mLZK5QvEEk13Eb8m9wjaCpsoG6/mWDP38JnHnaLpO/SKYbvb4E7Vbxu35009xxvZu2HjRpyc9nUqzAv8ECyKN4R9CDU9t3nVP8Kj9K72y4/w8euLs1r9kT1xQU6r0xVWz+QxtPAVa9jk2qn41XD0bqe6FSLA8yRdHRmcnVQa2FtFx0W1D+A14ZtztdrqdpO0fHZOHRi6DTevjfQK8jzZX8rC6n9OpoekQ8/p8e/qPHX7AHG97Ox74nYNUPtctt9LJBiyj8Hf/qqQSFb9fLYvFfar7KTKeUWVHMO9PQpZX/O/TOhWfZJ+vlZAsV7QPfuSMO/zHrvAiya0Ul1v0ZopF/Vz16fZgo5+Rubz+V35DTxODfp9lubwO9rT7jO3sXaBPAIIqvRLk34pmS6o20STY//z5dTmgJ9e9sOx+wW0un5tLrgHOHjI+tOb0xE33Z7PwX+knrz+26vCz7FbbJ+x5Np5gH1EnGxwwvfeTfY27+O9zRPuFOaM6yZ75TvOxOWi+a+oNLkKZ5v88YsAjurtsM/Odcrm/NZS7T2zq7ebWkdqsmTd9jYdKaarElMxWsaDz/da7o3cY4F8Oyf1VvqO+JXDVhjcuh8BLAME3G/LaAxlYYTX/gVAobWa4JLBcHC29V2Q33fLoL1e+AXhZptJYDzCh1lzCW/3xHJCrYm5NlL+v/rqYPW8pT/tu4KXmdnKqE58CZlrGFrAqcpLWbfTAXy376yG77/90B6luVsWCagY5LKetDS5uPChi58H9Koobfw9kuCQxOVPJ+oaMPdZfQykiqrquIhkJdN7CiceGzNDNajuZl29uAhrNvykxCP6nOoDI8mJf4mb6PWuDEi5TkbxT/Rc7TzWk6wfxl5lttEpGcGT+qDBtn06ENgNz6bDaG4lbHIP4jL6ok9v4DtZuwBXl0u1b7IZ8s3XH6+NaFcQNaxUSw8pM1iUWiKbS0/KUx/Ed53Km+/e3Hg9pUj8r4tAotUbPt4Mmr7nlqcaaQwzJ4g0miKXTmyZibTYI8zP8vTa1N/DZlrT/runKr+KyWEcBCNomm3wJmXzFifLMVf83HRsts9PpUiVOcOUyyjACusEk0hfLdpxswvObaP6n8eyu8BtyvWYT/EsDgqOwzrSHtXuU/vAj5j+qkwR6XuoJHyc8GruW2hgB6AeKm8pXzJhC0p3mPzudH2Vy/OFXplHmmyeYOfmcNAQA7pHuoGM7tYprDrg6yyXa7C6v+iDgkZ+MtSwgAKDgxnI5l4Jj5KM6DKy+3xb7Ai40OmTPZkpRcygL8hwIDe46OaeB2q9V8B/eUTPqfa6hXZpxj5XYFLPAt+CKQBU7JdBFg2s13cP1l8pwbemuo9UPYUg/xBdCeHNUEWraBH8+cPMeWFV4CPPu896YqwMlEZ/yEF8AH5Kha0LL9JWm7Gs+xdYe//jSd9CkLbxO0F14Ay8hBVaZlezRpuxnHofmBxU7SNS7gtADL5h5xii4AIE2+MC3bPUjbXTgOrQP4N9tfq7lRoLlmogsAuL6a2tS2MdOzTB7XgI7RTUxzgjnl+0QXAPmhRO8GsmgyXh/wG9nrEF87dCT1Bv4GWRR9S4Cc3R6mZjuCDNdUfiOD6ErSlc5XCPoY3Ca4AMjNDnplJ/1c1FLNvcer0J/r2/psjoNsvii2ANJZcpRo4AYKdAzkgs7rFUMTAKNjrfYGoHcPsS/5BljKbWBQHnhHvUb7W28aSO4F0buHOL+BaYHFAKoO6c6ozwIsLbjDhRYAmTCXQM12BQMTqfoAAqir3yx0W0M7oQVArgO4qR1/bGjgfvBaNvN1J/BtMV9oAWwjB0Qt4xlYix/AaVhZ7jPJdHU4BpN2rwu9HAwsb1GriTXKuNclcLOWm8qBLuiap3IiC2Acw+XtmcZ9NE8gXe+iY/kYswwqY9CR4YctsM8QymlYwK0XQ+lYHm+xxUDgZOhRSqafBlKpOY3Kz80s0a0ykGEksgDCgN+04nRM9zXubyUfcJ6TkmnomqenRFbADeor5n8BSMmfyWlQZUjXk2nZnsMwg8IIrGI1XcoJFGLvxGlQr5Gue9KyPdyUFdCovqjdVEqkdzTwZBCQDNSIlu1ODG0bgZIAT91pGF5J2j3Fa1DAck0Fhm+XbiILwHmdxa6Jw1EUOJQzi9eg4kjf1C5+KMWgnIahWCIx+a2Grh9vzWtM88lkYGq1tXLSLqhkNNoxyJxwOCoAX+KPcvAa00ayDgi9V+YjA7McWCAQurFmsF6rUL3YldzGFE+eBqZn/Bxh/CehBQDWUEkM02ezDpQ915TbkP5guQRFJlLvFVsA1SCy9B0Q9ImHCpxn4TakA8wWAjNAvjF/FFsAzjPUz76/BWlqGr8hkaUJHlKzHUyObI3YAoALu57VURO5OlhWpQy/EX1Peg+jZTuStL1QcAGEQKUipW2aK7sWgbKnpXXGfto+T8t2DGn7C8EF4BgDnnvUOqxsh0FzL3McEHAw/VVatluZqgw2pbWN+yBlfbRNANeAxrbyHNB7pP/OtGwDlW/6ii4AaOk0A2m1tNgaD1dTqcVzPC1J/+/Rsj3ZegdEHY7wJLgMlvdXffnJ3Bm1het4gHyA7bRsH7JYPsCf6ClTB2u8l0voOWUKMz7ie2NQILkQ7aJ00wtQ+irZR3wB+OyVUcAar66nev60jJlxnMdzgdkkALhf55DDAqggd4P54SLqjTS4K2PkXCDn4QALAavoWP7JessAf0L2Vr2EtipPvmQbJyciqSHv0bxN9uEBldRNKNHtP5YQQKD8vXr71czglWqr8y8TD5xLpZO4BVWeKmYJATieU7gwZ31pT61bKNzL8Rv/iqq+wF2o82gYBhY5Ljosgg4KVyu45ipNBZw1flVoe8eIv5DVwLIGhfMO5YE8l7lWEYDjK8Vbcg6MhHdzsrw27ZJiwzeMGEs/oCPf6je7hUXdEdMgYLuHu7LOTan5RHHc7G2X3vXQaIwhY4mAJqQv6bUK5bmkhFlGAI7snq8uTr3w68qpI96s26TXmNk/xN9we2wwy6CxbIaqBOpdLQHOnErLHRZC/nMSZazyNWgo4IxG540l0FkXsU+FEIhKoMv/jgCjRhIM7XAe0yXHAOhi75v+lhKAo9QVmvz/mM24kcyjftsfOEme4rAYCp+kx/9yI69UKQd26U3tBmPB6vORVhOAI3w/Lf5nGLtL9j24Lak5MalOOmRvocN6yLaBCv3ukQaPoxLYresaTyhH3QYH+ZwFBeDwGZGun/+bdQwfxyawY/FBWmyFwb+MyxzWRMxlvfxvK2D8KKrBXVurYVswG5zo4i5tUQE4cv+gi37XB75mGMUyuHf7vBZn0SPmWuXigTZXtfP/q0lKJ0bA2c7SVS9rutS8Bdu5ldPCAnCEfKJxJpDQzTS1UwfLdDHFq+veesndH93NYW2U/lED/anTTfRn4S+b5TJB9Seq/3TZF53TYXW8vN5L+pM/K2iuAci+xQ6oPKjQSFZDKaUdNkD0Gi/ovz8xr9n6/458bzeoIPClHfLtezvsgaKjTqtb+NnWJcR8vXduVPhWmedhUShqhcJ4lznsgypf3PJE/7ERhc3Z93Cl3a2Uz6vKzgX8a32VptD0dKjDTvApO/A72dSfi3M7FjRv16unKir3xuyGwJZ1UPP5ScqTnQoO28Ev+s2PVh37Vzjv7lv4Xkuz74e185S2dP/bbrVL/lXBzJmr1Gs91iR7aJLeyGFX+EU8G12zUduW9auVjRTkvqz+quYwKWd3Lv9217lHqh7u7EAIhA9pJ7oNwZiKhS/o8v8RRtTW74BhGE/x0M9Ni/50/P0XEq1T6fD/sAHGUkzEXKXB/7kXMZKiIs9m/fyvDsM4igufkS599KcOxCCKjRqn9PB/pBJGUHQEjErRSv/9t/0xfhZAMY3prisKYuwsgoZ7vKd/ey2Mm4VQ+yfv6F9fFWNmMby8QvW6UMo3FTBeFkSuvqoOwe7qkR1jZVWUHLdH8ehD2s73ozBK1kZow8nx4I9Byr6JdYMxPraAX2SDAV9s2HX43K3URwnnfv9lw4zYekV9bTL4/wK/WeLyaUMZ4gAAAABJRU5ErkJggg==;" parent="1" vertex="1">
          <mxGeometry x="755" y="326" width="50" height="50" as="geometry" />
        </mxCell>
        <mxCell id="LnJRWbe0wSDpx0MPoHch-19" style="edgeStyle=orthogonalEdgeStyle;rounded=0;orthogonalLoop=1;jettySize=auto;html=1;exitX=1;exitY=0.5;exitDx=0;exitDy=0;entryX=0;entryY=0.5;entryDx=0;entryDy=0;" parent="1" source="LnJRWbe0wSDpx0MPoHch-16" target="LnJRWbe0wSDpx0MPoHch-4" edge="1">
          <mxGeometry relative="1" as="geometry" />
        </mxCell>
        <mxCell id="LnJRWbe0wSDpx0MPoHch-16" value="" style="shape=image;verticalLabelPosition=bottom;labelBackgroundColor=default;verticalAlign=top;aspect=fixed;imageAspect=0;image=data:image/png,iVBORw0KGgoAAAANSUhEUgAAAgAAAAIACAYAAAD0eNT6AAAABHNCSVQICAgIfAhkiAAAAAlwSFlzAAAOxAAADsQBlSsOGwAAABl0RVh0U29mdHdhcmUAd3d3Lmlua3NjYXBlLm9yZ5vuPBoAACAASURBVHic7d15sJ1Vme/xb3ISQkboMAYEAmEQIiCDIyBDgwxCQGmxEPWiF1HvdeB6vYCN2jRSLbZa4tUGRG3FtrxlUJBBGZpSmoB0mgjagDIECDSBTEwhJJCcnNw/VsAQTs7Z5+z3ede79/p+qn5VaKVW1nprZ61n7/d91wJJkiRJkiRJkiRJkiRJkiRJkiRJkiRJkiRJkiRJkiRJkiRJkiRJkiRJkiRJkiRJkiRJkiRJkiRJkiRJkiRJkiRJkiRJkiRJkiRJkiRJkiRJkiRJkiRJkiRJkiRJkiRJkiRJkiRJkiRJkiRJkiRJkiRJkiRJkiRJkiRJkiRJkiRJkiRJkiRJkiRJkiRJkiRJkiRJkiRJkiRJkiRJkiRJKsiI3B3QKzYC9gR2BnYCtgO2AP4K2HSdP7cCeBp4ClgIPAjMBe5Z+/9LkjQoC4B8JgCHAkcAbwX2JhUB7ZgLzAZuAX4NPN5me5IkqQITgQ8B1wMvAWuC8wfgC8DUGsYmSZLWszfwA+AF4hf9/tIH3AycCIyMHaokSXoH8BvyLPobylzgE7R/u0GSJK1nH9LP/LkX+4HyEPB+/EVAkqS2jQcuAHrJv8C3mt8D+0ZcDEmSSnA0MJ/8C/pwshL4MjC68qsiSVKXGkP61r+a/At5u7mDtA+BJEkawLakRTP3wl1lngVmVHmRJEnqJvsAj5F/wY5IH3BuZVdKktQ47gQ4PEcBVwBjc3ck2HeAT5OKgm4wCTiB9AvHdNJ2y+Oz9khS1VYCi0ivPF8P/GLtf0ttO5a0H3/ub+l15ft0/quCo4AzgMXkv57GmHrTS5rHpiC14VhgFfk/0HXne3Tur0WTgGvJfw2NMXnzBPAW9Iqe3B3oIG8BrgE2zt2RDPYl/Qrw29wdGaIJpIOR3pG7I5KymwicAtxEemW7eJ36ra5uO5NO2ZucuyOZfZT0U1qn+AXwntydkNQoT5K+1CzI3ZHcOv3ebh3GAjNx8Qe4CHh77k606Bhc/CW91hTSxmfF8xeAwf0L8IHcnWiQx4D9gCW5OzKIOaR+StL6VgO7kc5EKZa/AAzsZFz817c9zb8NMA0Xf0kb1kM6Hr1oFgAbtg3pPXi91vHA+3J3YgBH5+6ApMYrfp6wANiwb+F9/4F8h+Zenx1zd0BS4xU/T4zK3YGGOgT4m9ydAJYCfwKWrf3fz5F+mZhK/k0tNidtF/zpzP3oz5a5OyCp8bbO3YHcLABeayTp238OzwBXA1cCfwAeHeDPjgXeCrwTOJJ0NkHdPgFcDPw5w989kKW5OyCp8Z7N3QE1z/uof4eq/yDdV9+ojX7vC/wYeKnmvs9so89RziH/rmPGmGbnTqR1jATupr4P4B9J2wtX6XWkDXDqGsNqYPeKx9Cug8g/uRhjmp1vIq1jBvV88FYDX6W9b/ytjOXxmsbzo8BxDEcPsJD8E4wxprk5BGkd1xH/oVsCHFrTeKYAd9QwphXAZjWNqVVnkn+CMcY0M7NxIzytYxrpm3nkh+5J4A11DWit8cAvK+j7YPlsXQNq0VjSLl+5JxpjTLPSCxyA3AdgHR8k9nrMJ51Kd0/g39GfF4D3Av8a/Pd8JLj9oVoBHIdvBEh6tbOA23J3Qs1yL3EV50rgwPqG0q+JpIcOIyvrpj0MCOl2y1Pk/9ZhjMmbPuA8pPXsQewH75P1DWVAU0nfiKPGeU5tIxmanYFZ5J+AjDF5Mh/3/tcGfJa4D94NNY6jFZ8mbqy/q3EcwzEDuApYTv4JyRgTmz7SQ9CfA8ah1/ApyORa4F0B7a4G3kj99/0HMhK4FXhbQNu9pPMBng9ou0rjgJ1IeyZMzNwXSdVaCSwAHgYWZ+6LGq6HuJ/FL6pxHENxOHFV9ztrHIckScMWdf+/j3TvuamiHgj8Qp2DkCQNj68Bwl5B7f4bMDeo7Sp8O6jdPYPalSRVyAIgrgD456B2q3IF6RmFqtW90ZEkaRgsANKrcRGiN95p19PAnIB2p+HDpZLUeBYA6Unwqj1Eegq16W4MaHMMzTsXQJK0HgsA2CagzdsD2oxwd1C7EddUklQhCwDYJKDNRwLajPBoULubBrUrSaqIBUA6La9qzwS0GWFeULtjg9qVJFXEAgA2DmjzqYA2IywPatcCQJIazgIg5lW4iDYjbBTU7pqgdiVJFbEAgJcC2pwQ0GaE0UHtLgtqV5JUEQsAeCGgzS0D2oywdVC7FgCS1HAWALAwoM1dA9qMMD2o3aVB7UqSKmIBAE8GtBm1vXDVogqAx4PalSRVxAIA5ge0+QZg84B2q3ZAQJuLgecD2pUkVcgCAP4c0OZI4J0B7VZpK+DAgHY7ZRMkSSqaBQDcE9TuKUHtVuXdQE9AuxEFlSRJlduW9N561VkF7FDjOIZiBHAHMeP+RI3jkCSpLY8Qsxh+p85BDMEMYsa7BtinxnFIkobJc9uTy4APBbT7IumBwIcC2h6uEcDviVmolwGTSb9+NNl4YCfSUdCdsmmT8ltIemtoLu52KXWNU4n7Rvzr+obRkv9B3FivqHEcw3E8cDXpDISoa2C6P/OBi4FdkNTxNiN9a42aME6vbygD2p2082HUOE+tbSRDswtwK/kXDtNdWQlcCIxBUkf7DXETxXJg3/qG0q/xwF3EjXE1zdwC+TDgafIvFqZ7cyudse+HpA34GLGTxAJgWm2jebWNgZta6GM7ua620bRuD+A58i8QpvtzG/4SIHWsSaSH2CIniUeB19c1oLXGANdW0PfB8p66BtSiscDD5F8YTDm5EEkd6/vETxJLgENqGs92wOzg8awBniDuaOHhOpv8C4IpK6tIz9lI6kB7AX3ETxS9wJeIXTSPAhbVMJY1wBcDxzEcPdQ3dmPWzUVI6li/pL7J4h7SQ2pV2rXmMTwDbFLxGNp1MPkXAlNm5uP+KlLHehP1/Aqwbm4BjgNGtdHvtwP/THo1qc6+/30bfY5yDvkXAlNucj3sK6kC/488E8dC0k+IJ5JO6xvIpsDRwJeBezP1d9HafjTNReRfBEy5ORipA7TzjbObnU3aNW5szX/vlqTDdF4+UOdp0jbCzwHPkn5q34K0cdG25D/N8fOkfjXNxNwdUNEm5e6A1AoLgP49ClxA/p+3J69NE80Gfpi7ExuwMHcHVLQFuTsgtSL3N8gm+wpp5zy91kukjZP6cndkA+bl7oCKtQY/f+oQFgAbtgr4MGmx06v9LfDH3J0YwLW5O6BizQEW5+6E1AoLgIH9Efhs7k40zL/S/B3P5pEmYqluM3N3QFK1fkL+J4ubkEcY/O2EpjiS/NfLlJX5pEO3JHWRccC/k3+CyZnngDe0eyFrNpP8182UkT7S67uSutAWwAPkn2hyZCVpa+FOMx64k/zXz3R/zkNSV9uR9Ipg7smmzqykeSf9DcVE4BryX0fTnekFzkJSEbYH5pJ/4qlrcju5msuWVQ/wKTwgyFSb24EDkDqUh1YMz/bAr+i8e+JDsYy0+HfTK3UTSTs8Hg9MJx2XPCFrj9RJFpKOvr6FdODWv5EKAUmFmUBaHHN/C4nIfGC/6i6VJEndZRTwdeo/PTAys0jnDEiSpEEcTtr/O/fi3U5WA98CRld8bSRJ6mpbAz8j/0I+nNwHHFT9JZEkqRzHkY7wzb2ot5JlpKOPNwq5EpIkFWYj4DOkQ0FyL/L95SXgu6Sn4CVJUsUmAGeQDqfJveivAVYAlwA7BI5ZkiStNQp4L2nvgF7qX/jvIf0i8VfRA5UkSf2bAnwSuAF4kbhF/y7S/uS+zy9JUsNMIGbx/3Cdg5AkdZ6RuTtQuGUd1q4kqUtYAEiSVCALAEmSCmQBIElSgSwAJEkqkAWAJEkFsgCQJKlAFgCSJBXIAkCSpAJZAEiSVCALAEmSCmQBIElSgSwAJEkqkAWAJEkFsgCQJKlAFgCSJBXIAkCSpAJZAEiSVCALAEmSCmQBIElSgSwAJEkqkAWAJEkFsgCQJKlAFgCSJBXIAkCSpAJZAEiSVCALAEmSCmQBIElSgSwAJEkqkAWAJEkFsgCQJKlAFgCSJBXIAkCSpAJZAEiSVCALAEmSCmQBIElSgSwAJEkqkAWAJEkFsgCQJKlAFgCSJBXIAkCSpAJZAEiSVCALAEmSCmQBIElSgSwAJEkqkAWAJEkFsgCQJKlAFgCSJBXIAkCSpAJZAEiSVCALAEmSCmQBIElSgSwAJEkqkAWAJEkFsgCQJKlAFgCSJBXIAkCSpAJZAEiSVCALAEmSCmQBIElSgSwAJEkqkAWAJEkFsgCQJKlAFgCSJBXIAkCSpAJZAEiSVCALAEmSCmQBIElSgSwAJEkqkAWAJEkFsgCQJKlAFgCSJBXIAkCSpAJZAEiSVCALAEmSCmQBIElSgSwA8poQ1O74oHYlSdIwbQ58BLgaWAGsCcrvgS8A0+sZliRJ6s9+wHeB5cQt+hvKHOB0YFz4KCVJEiOBk4A/Uv+i31+WAH8HbBI5aEmSSnYCzVn4189TwN/iswKSJFVmJ+B68i/yrWQ+8Dcxl0GSpDKMAs4h9sG+qFwJTKn+kkiS1N22A24h/0LeThYDx1R9YSRJ6lbHku6p517Aq0gf8FWgp9IrJElSl/kMsJr8C3fVuQGYVOF1kiQ1zIjcHehQI4CvAGfl7kig/wTeBTyeuyMVmkR6O2MGaYOk7fBNCKnbrAQWAXNJD2T/Yu1/S20bQdrQJ/e39DryALBNNZctq1HAGaTnHHJfU2NMvekFvo8POqtNI4CLyP+BrjP309n/cCYB15L/Ohpj8uYJ4C3oFd4CGJpvkr5JluZu4CDgudwdGaIJwCzgjbk7IqkRVgCHArNzd6QJPA2wdR+mzMUfYE/gZ6Sf0jvJZbj4S/qLsaR9T7bO3ZEm8HWv1hwIXE7Z12tn0jfqG3N3pEXHAOfn7oSkxpkIbApck7sjuXkLYHBbkZ6I3zJ3RxriJFIx1HRzSCcwStL6VgO7AQ/l7khO3gIY2AjS06Mu/n9xKbB97k4MYhou/pI2rAc4MXcncrMAGNgnSDv96S82BX5As389Ojp3ByQ1XvHzhAXAhm1F2uxHr3U48MHcnRjAjrk7IKnxip8nOu2p7jp9jfzb4S5am6dJ5w2MIe1ctwPpZ/icBdxXgV8CSzP2YUO8ZSNpMMW/CWAB0L+3Ax/I8Pc+RXrAbhZwG/DoAH92Y2B/4DDgeGDf8N692tbAF4H/U/Pf24omFiWSmuXZ3B1QM/2Geneouhl4H+kb/nBNBy4BXqyx3yto5i6B55B/1zFjTLNzJ9J6DqC+D+B9VP+Q4bbAT0hH+9Yxhm9U3P8qHET+ycUY0+x8E2k91xH/wVsNnAuMDhzHXwPzaxjLMmCLwHEMRw+wkPwTjDGmuTkEaR27Ef/NeQlwVE3j2ZJ0eyH6H9LZNY1nKM4k/wRjjGlmZtPsV5mVwVeJ/dDNJ22pW6cxpPOwI8f1AM37xzSWtMtX7onGGNOs9JJu9UqvGEU6LjLqQ7cY2KO20bxaD3BFC31sJ4fUNZgh2IN0gmHuCccY05z8b6T1HEXcB24F+bemHUfaHz9qjN+rbyhDcijp9crck44xJm/6gPOQ+vFPxH3wPlPjOAayA3GL4RM07zbAy3Ym7a2QewIyxuTJfNz7XwOYR8wH7waatTB+hLh/ZPvXOI7hmAFcBSwn/4RkjIlNH3AH8DnSL6BaT5MWppymA/cEtNsL7A7MDWh7uEaQdhl8W0DbXwK+HNBu1cYBOwGvI50NLql7rAQWAA+Tnr2SBnQaMRXoD+scxBAcRsx4f1XnICRJatclVL8Y9lL/K39D8TuqH7PVtiSpo9xJ9YvhTbWOYOiingXYqc5BSJI0XCOIeSjsY3UOYhgmkV5PrHrc76pzEJKk4cl5nnxTbEnaNa5Kq4ErK26zakuB2wPanRrQpiSpYhYAMQvWg8CigHardnNAm1MD2pQkVcwCALYLaDPilcII/xnQ5usC2pQkVcwCACYEtHlvQJsRHgho0/fqJakDWADA+IA2FwS0GSHiNkXE9ZQkVcwCIGaLyFUBbUZ4PqBNCwBJ6gAWADFW5u5Ai3pyd0CSlIcFALwQ0GanHDyxWUCbEddTklQxC4C0CVDVdghoM8LmAW1aAEhSB7AAgGUBbe4Y0GaEqQFtRjxXIEmqmAUA/FdAm3sFtBkh4kjgxwPalCRVzAIA5gW0uQcxGwxV7YCANh8JaFOSVDELgPQufMRzAIcHtFmlycB+Ae0+GtCmJKliFgDpBLv7Ato9KaDNKp0CjAlo908BbUqSFOJiqj8Wt490K6Cp7qL6MXfCAUiSJPwF4GV3BLQ5Avh0QLtVOAJ4Y0C7/xHQpiQpwKjcHWiIfw9q91TgW8Cfg9ofjh7gG0FtR13Hqo0HdiKdXBhxGJS600LgSWAu6RcvSV3iEar/SXwNcAvp14Cm+Bgx41xDzEOFVToeuJr00GfUNTDdn/mk24a7IKkrfJu4CePjNY5jIK8HlhI3KTap0FnXLsCt5F84THdlJXAhMQ/TSqrRkcRNFC8C76hvKP2aSHpCP2qMl9Y3lCE5DHia/IuF6d7cSsy22pJqMgp4grhJ4ilg19pG82pjgGtb6GM7Obi20bRuD+A58i8QpvtzG/4SIHW0C4idJB4D9qxtNMk44IYK+j5Q7qd5P/+PBR4m/8JgysmFSOpYu5De34+cJJ4j3W6owzbArODxrAHOqmk8Q3E2+RcEU1ZWAbsjqWP9inomivOBjQPH8W5gcQ1jeZ7m3f/sIW1KlHtBMOXlIiR1rLdR32TxANWfGbAr8NMax/D1ivtfhYPJvxCYMtPkt2EkteAm6p00ZgMnA6Pb6PPewI+A3hr7vQLYuo0+RzmH/AuBKTfTkNSx3kr8swD9ZQFwGfB+YMogfZxM+qb7D6RfEnJMdP/YwrXM4SLyLwKm3ByM1AH8qWrDfgT8t8x9eAGYR9p+9GWjgd3I/837CdLGQs9n7kd//gX4QO5OqFgzgGtyd0IajGcBbNhZwAnAJhn7MB6YvjZNcybNXPwh7dku5bIgdwekVnga4IYtJC1yeq0bSA8aNtW83B1Qsdbg508dwlsAg7saOC53JxrkGWAv4PHcHRnAVNLhTlLd7gDenLsTUiv8BWBwp5HeKVfyUZq9+EP6BjYndydUpJm5OyCpWgeSDvTJ/XRx7nyt3QtZo8jDnYzpL/NJz+1I6jKnkn+CyZnrSDvsdZKZ5L9upoz0ASciqWt9nfwTTY78AZhUwfWr23jgTvJfP9P9OQ9JXW0E8E/kn2zqzH3k33OgHRNJ72Tnvo6mO9NLMw/DkhRgBHAJ+SeeOvIAg+9I2Al6gE/hAUGm2twOHICkoowAziX/BBSZ2cBWFV2vpphI2iHwcuBPpI2Mcl9n0zlZQLqldCFwCL5GLRXtNNLRvrknpqpzJTCuwuskSVLXOQpYTP5Fu4qsBs6n8572lyQpi62AG8m/gLeTRaRiRpIkDUEP8HlgOfkX86Hm53T2k/6SJGW3I/Br8i/qreRx3LxEkqRKHQfcRf5Fvr8sIb277IN+kiQFGEH6ht2UQmAx8EXS63CSJKkG+wHfJc8zAnOA0/EbvyRJ2WwGfBi4ClhB7KJ/DrB7PcOSJEmtmkDM4n9qjWOQJHWgkbk7ULhlQe2+ENSuJKlLWABIklQgCwBJkgpkASBJUoEsACRJKpAFgCRJBbIAkCSpQBYAkiQVyAJAkqQCWQBIklQgCwBJkgpkASBJUoEsACRJKpAFgCRJBbIAkCSpQBYAkiQVyAJAkqQCWQBIklQgCwBJkgpkASBJUoEsACRJKpAFgCRJBbIAkCSpQBYAkiQVyAJAkqQCWQBIklQgCwBJkgpkASBJUoEsACRJKpAFgCRJBbIAkCSpQBYAkiQVyAJAkqQCWQBIklQgCwBJkgpkASBJUoEsACRJKpAFgCRJBbIAkCSpQBYAkiQVyAJAkqQCWQBIklQgCwBJkgpkASBJUoEsACRJKpAFgCRJBbIAkCSpQBYAkiQVyAJAkqQCWQBIklQgCwBJkgpkASBJUoEsACRJKpAFgCRJBbIAkCSpQBYAkiQVyAJAkqQCWQBIklQgCwBJkgpkASBJUoEsACRJKpAFgCRJBbIAkCSpQBYAkiQVyAJAkqQCWQBIklQgCwBJkgpkASBJUoEsACRJKpAFgCRJBbIAkCSpQBYAkiQVyAJAkqQCWQBIklQgCwBJkgpkASBJUoEsAPKa0GHtSpKkYdoC+BAwE1gGrAnKvcAFwIHAiFpGJkmSXmUkcDhp0e8lbtHfUB4EzgI2ix6oJEmC8aSF91HqX/T7ywvA94FpkYOWJKlUo4HTgSfIv+j3l5XAd4Ftoy6AJEmlmQHMI/8i30qWA38PjIm4EJIklWAy6Vt17kV9OHkQOLj6SyJJUnc7HlhM/oW8nawGvgaMqvjaSJLUdXqAc0mLZ+4FvKrMAqZUeI0kSeoqmwE3kX/Bjsh84G3VXSpJUtO4QczwbA3cAOyVuyOBlgMnAtfn7kiFJgEnkB7UnA5sR3pVU1L3WAksAuaS5q9frP1vqW07AA+Q/1t6HXkJOKmay5bVKOAMOv85DWPM0NNL2v/EW5tqy1Tgv8j/ga77H8/JFVy7XCYB15L/Ohpj8uYJ4C3oFd4CaN1mwK3A63N3JINVwLHAjbk7MkQTSA81vjF3RyQ1wgrgUGB27o40gacBtmYscBVlLv6Qdjb8ObBP7o4M0WW4+Ev6i7HAlaTnuIpnAdCaHwAH5O5EZhOBq0mnGXaCY4D35O6EpMaZAnw5dyeawFsAg/socGnuTjTIdaTbAX25OzKIOcB+uTshqZFWA7sBD+XuSE49uTvQcNNJr5CMzt2RBtmF9Irgbbk7MoBpwAW5OyGpsUaS9jtp8jwWzlsAGzYa+CkwLndHGuh8mr0HwtG5OyCp8YqfJywANuwMmr3I5TQa+B7N/fzsmLsDkhqv+HnCg1/6tz3wd7k7QdrNahHwNPAU6dje8aTNiLYn7wL8ZuC/kwqBptkydwckNV7xbwJYAPTvG+TZIvYp4HLSu+u3AY8O8Gc3BvYHDiOdRrhveO9e6yuk/j6b4e8eyNLcHZDUeE2bt9QAe5OecK9zh6qbgfeRvuEP13TgEuDFmvvehF9K1ncO+XcdM8Y0O3cirecK6vsA3kd6pa5K2wI/ob4i5hlg04rH0K6DyD+5GGOanW8iraOub/+rgXOJfb3wr0mvudTxD+lLgeMYjh5gIfknGGNMc3MI0jouJf5DtwQ4qqbxbEm6vRA9pido3vMkZ5J/gjHGNDOzcSM8rWMC6eGxyA/dfGDnuga01hjSZkbR/6BOqGtALRpL2uUr90RjjGlWenFrd6C573HncDJpv/soS4AjgLmBf0d/XgJOIh2AEem04PaHagVwHL4RIOnVzqLwHQD1WrOIqzhXkH9f+nGk/fEjq+qtahtN6w4lvV6Z+1uHMSZv+oDzkNYzmbSARX3wPlPfUAa0A7GL4am1jWRodia2wDPGNDvzgROR+vF+4j54N9Csh00+QtxYL69xHMMxA7iKdJhR7gnJGBObPuAO4HN4pku/mrQw5fQT4JSAdnuB3an/vv9ARpDuf70toO2lwObAqoC2qzQO2Al4HbHPfUiq30pgAfAwsDhzX9QBHiemAv1hnYMYgsOIq7rfVOM4JEkatq2IWQh7qf+Vv6H4HTHj/nidg5AkDY+vAcY9nf9bmvXT//p+ENRujkOJJElDZAEA+wS1+/OgdqtyOengoKpZAEhSB7AASA+DVW018RvvtGspcHtAuzsGtClJqpgFAGwT0OaDwKKAdqt2c0Cbk/GVG0lqPAuA9CpY1e4JaDPC3UHtRhRVkqQKWQDEbF97b0CbEe4PandKULuSpIpYAKRT46q2IKDNCFG3KcYEtStJqogFAPQEtNn0nfBe9nxQuxHXVJJUIQuAmMVqZUCbEaIWagsASWo4C4C0e13VOuUp+M2C2vWMCUlqOAsAeCagzR0C2oyweVC7EddUklQhC4CY06I6ZTOcqUHtLglqV5JUEQuAmAJgr4A2I0QcCQwWAJLUeBYAsDCgzT2I2WCoam8PaHMl8GxAu5KkClkAwJ+D2j0iqN2qTAb2D2j3PqAvoF1JUoUsAOK27T0pqN2qnELMhj1R2wtLklSpXUivAladPtKtgKa6i5hxn1nnICRJGq6RwHPELIaX1DiOoTiCmPGuAd5Z4zgkScPkhi3JVcCMgHZXAvsAfwpoe7h6SN/+9wxoeyXp2YIXAtqu0nhgJ9KDmhMy90WdYyHwJDCXmA3EJGXwP4n7RnwLzSq0PkbcWH9T4ziG43jgamA5cdfAdH/mAxeTbh9K6nC7EjthfLy+oQzo9cBS4sZ5dn1DGZJdgFvJv3CY7spK4EI8/VLqePcRN1G8CLyjvqH0ayLpVkTkhPiG2kbTusOAp8m/WJjuza3EbastqQafJ3aSeIr0S0MOY4BrW+hjO5lT22hatwdxD3gas25uw18CpI61HbCa2EniMWIevhvIOOCGCvo+WD5Z14BaNBZ4mPwLgyknFyKpY91I/CTxHHBkTePZBphVw5heJO5o4eE6m/wLgikrq4DdkdSRjqG+ieJ8YOPAsbybdNBRHeP5XuA4hqMHWET+BcGUl4uQ1JFGAL+nvsniAeDwisewK/DTGsfQC+xc8RjadTD5FwJTZubTrNd+JQ3BidQ/acwGTgZGt9HvvYEfkRbkOvv+0zb6HOUc8i8EptxMQ1JHGkncPvmDZQFwGfB+YMog/ZxM+qb7D6RfEnL0dyXNPO/gIvIvAqbcHIzUAUbl7kAD9QGfIs8OflsBH1obSFvqziNtP/qy0cBuwNa19qx/36ZZ2xy/bGLuDqhok3J3QFJ7fkz+bxJNzpPAJsO+urG+Tv7rY8rNm5A6wMjcHWiwM4Fncneiwc4gvdLYRPNyd0DFWoOfP3UIC4ANWwCclrsTDTUT+FnuTgzg2twdULHmkF6/lRrPAmBg6lhiJgAAAmJJREFUVwCX5u5EwzwMfDR3JwYxj2ZuTazuNzN3ByRVZxxwN/nvKzYhLwJvbu9y1uZI8l8vU1bmA+OR1FWmkh56yz3B5Ewf8ME2r2PdZpL/upky0kfaQ0RSF9oPWEb+iSZXPt/+JazdeOBO8l870/05D0ld7VjgJfJPNnWnk/c3nwhcQ/5raLozvcBZSCrC0cBy8k88deViOv9h0R7S5k4eEGSqzO3AAUgqysHAUvJPQNH5x6ouWENMBD4AXE7awfB58l9j0zlZQLqldCFwCB76IxXrzcDj5J+UIrIK+F/VXSpJkrrLFsBvyb9gV5klVH9EsSRJXWcj4P+SXgPKvXi3m9tJrzxKkqQWHUi+Y3nbzQrSk8w9lV8VSZIKMJF0RO4q8i/qrWYWsEfExZAkqTS70fxd6O4H3otPMkuSVLmDgOtp1vMB9wOnA6MDxy1JkoBdgG+RdyvhW0nf+L3PL0lSzcYCxwE/pp5NaO4FziUVIJIkvcL7v/lMJO0mduDa7E96pbAd95O+6c8i7U/wWJvtSZK6lAVAc4wBdgWmATuT3sffEhhH+uVgE9LresuB50i3Ex4F5gIPkV5BfLruTkuSJEmSJEmSJEmSJEmSJEmSJEmSJEmSJEmSJEmSJEmSJEmSJEmSJEmSJEmSJEmSJEmSJEmSJEmSJEmSJEmSJEmSJEmSJEmSJEmSJEmSJEmSJEmSJEmSJEmSJEmSJEmSJEmSJEmSJEmSJEmSJEmSJEmSJEmSJEmSJEmSJEmSJEmSJEmSJEmSJEmSJEmSJEmSJEmSJEmSJEmSJEmSJEmSJEmN9/8BG/5SIauHa6sAAAAASUVORK5CYII=;" parent="1" vertex="1">
          <mxGeometry x="380" y="230" width="50" height="50" as="geometry" />
        </mxCell>
        <mxCell id="LnJRWbe0wSDpx0MPoHch-25" style="edgeStyle=orthogonalEdgeStyle;rounded=0;orthogonalLoop=1;jettySize=auto;html=1;exitX=0.5;exitY=0;exitDx=0;exitDy=0;entryX=0.5;entryY=1;entryDx=0;entryDy=0;dashed=1;" parent="1" source="LnJRWbe0wSDpx0MPoHch-17" target="LnJRWbe0wSDpx0MPoHch-4" edge="1">
          <mxGeometry relative="1" as="geometry" />
        </mxCell>
        <mxCell id="LnJRWbe0wSDpx0MPoHch-17" value="" style="shape=image;verticalLabelPosition=bottom;labelBackgroundColor=default;verticalAlign=top;aspect=fixed;imageAspect=0;image=data:image/png,iVBORw0KGgoAAAANSUhEUgAAAgAAAAIACAYAAAD0eNT6AAAACXBIWXMAAA7DAAAOwwHHb6hkAAAAGXRFWHRTb2Z0d2FyZQB3d3cuaW5rc2NhcGUub3Jnm+48GgAAIABJREFUeJzs3XecJUXV//HPbM67sKQFFpYcJAhIkJwVBRMigo+IIGAAUVEwYwYVA6AioiAZRYKg4oIoICBBJOe0S9glbIDNaWZ+f5y5vx2GOzN9uqrT7e/79arXPg/emTp9753u09VVp0BERERERERERERERERERERERERERERERERERERERERERERERERERERERERERERERERERERERERERERERERERERERERERERERERERERERERERERERERERERERERERERERERERERERERERERERERERERERERERERERERERERERERERERERERERERERERERERERERERERERERERERERERERERERERKrS3HvgYAk4BNgXWBcV1tZI4xiIhIPEuA+cBs4FXg8a42o8igJJmsE4B1gQOAfYDdgFEZ9yciIsV7EvgXcAPwV2BhseFIM1kkAEOADwNHArtk1IeIiFTD68CfgF8C9xYci3QT8+I8FPgEcCKwVsTfKyIi1dcJXAd8B7iz4FiEeAnAbsBZwCaRfp+IiLSmTuAi4IvAKwXHUmuhCcAI4EzgiAixiIhIfcwEPg5cW3QgdTUw4Gc3Bq4H3hEpFhERqY8R2HyxMcA/gY5iw6mftCMA22EzO1eKGIuIiNTTtVgysKDoQOokTQKwD3AVWr8vIiLx3ArsB8wrOpC68CYA2wE3ovX8IiIS3z+BdwGLiw6kDjxzADbEPpxxGcUiIiL1tk5Xu7LoQOog6QjAMOAOYMuIfU8HZgGLIv5OERHJ1zhgAjapL5ZPY0vLpQR+ia3dDGlTgB8Ae2KzPkVEpDW0YXfuh2FV/xYRdr1YCGyR6xFIUzthyzPSfpB3YfsBDMg7cBERKcRKWMW/OaS/dvwHXTcKNQi4j3Qf3nzgaPQBiojU1RrANaRPAo7KP2RpOJx0H9qLwNvyD1dEREqmDTgJaMd/LZkODM8/ZBkAPIr/A7sXmxAiIiLS8GFgCf5ryqeLCLbu3ov/g5qGDfmIiIj0dBj+OWXPoEfJubsa34e0ENi+kEhFRKQqTsd/c7l7EYHW1XisEpPnAzqhkEhFRKRKhgFP4Lu+/K6QSGvqI/g+nMewFQMiIiL92R/fNeZlwrevl4R+i+/DObyQKEVEpIragHvwXWdUGCgnT5L8Q5mNDemIiIgkdRS+BOC4YsKsl+H41mueV0yYIiJSYSsAy0h+rTm7mDBbV7OlFRv28t97c2OkWEREpD5mY48Bkto4q0DqqtmFfh3n77g3RiAiIlI7/3O81nttkn40m7nv3anvqRiBRDYA2BzYFdgU2Ag7rnHAUmyfghexpSj3A//EihhV1arYOtmtsBGcidjWnMOwLHsedqyPAv/Gkrb2IgKNYAhWb2In7HPdEDvWMcCCrjYVeBy4G7gZeL2QSEWKMR54F7Ae9vdwN3AL5fyb91w/xmYWhfx/nyH5M5n5BcXYm62AM7AlI57JJZ1YIvBF7GJaBStik2Luwl9Zaxb2PO3tuUedzgDgncAl2HfOc6zLsATvcOLuVy5SNo2a+/N489/BQ8A2xYXWqyNJ/rfcjpYCZu4LJP9AZhYUY0+7ADfgv+g3awuBX1DeksYrAz8G5hLneG8F9s31CJJrAw7FTl4xjvUV4KvAyDwPQiQnp9H3938esHVh0TV3CL6/Ya04y9gJVCcBWBW4CP8dcJI2B0uGBuZ2NH1rA47B3vPYx9oJXIU9OiiLzbHkJItjnQq8L79DEcncDiQ7D95HuerqKwEomaokALtjz+2zuEB0bzcBq+dyRL0bC/yJ7I/1NeCgnI6pL4fhH+pP0y5AjwWkNZxH8u99mR79KQEomSokAJ/Et340tE2juCpU6wFPJ4gxVusAvpLLkb3ZQOA3CWKM2e4EVsrj4EQy9ADJv/NlKqijBKBkyp4AnOiIL2abDWyXw/F1tynwUoTY07Qf5XB83Q0E/hgpdm97FFgt+0MUycxUkn/fv1lQjM0oASiZMicARztiy6LNADbJ/CjNmsCUjI+nv/blrA+ySxtwTk7H1Ft7AFsmKlJFngTg5IJibEYJQIHKNBmkP7sAvyw4hvHANfhrJXgNBf4MrJ1xP/35AfDeHPr5PPCJHPrpy+bAhWiZkYjURFUSgBWBSynHlsPrA2dl3MePKcdynTbgXGw0IitvA07J8Pd77E+5no+KiGSmKgnAqZRrXf6hwLsz+t3bYsWYymJF4OcZ/e7GpL8hGf3+NE4BJhUdhIhI1spwR92frbFqUWl1YvWmH8UqBA7GlvVtT9i6958Dk7HVCLG0Ab8iLDF7GbgdK3W8CFgFK5e7XcDvPRDYi/gbPx2FVW9MawlwG/b88xVgNPaZ7kz65/kjsITzwwFxiYhUUtkmAV7hiKd7ex34Br2PHLRhpTEvI30hocNiHihWvzvtJLZrgR3p/SK/ClbqeEbK339zzAPFErEpKWOZiiWFvdUGH4yVDr4t5e9vJ7/JniIxaBKgRFGmBGB97GTsPYFPxkrmJrUjdsfs7eeBkINr4sYUMczAV8p3HHB5in46sVGTWA5NGcPP8J0EDsPKO3v7OSfk4ERypgRAoihTAvBtRyyN9jvSPdpYHXgkRX8hQ9jdrY0/2XkOKxTk1Ub/dcObtZirMCan6P/TKfvaDhsR8vT1OjA8ZX8ieVMCIFGUKQF4zBFLJ/APwuY1rI+/1v6pAf119yVnv/MISz7a8JcXfoU4E0dXwl/JMbQw0f74E6z3B/YpkhclAOJW5kmAq2P7vSe1EPg4YZPynsK20/QM/+4Z0F93ezlf/x3g3oD+OrG197tj9Q2SWBlbL39/QL909enZZOlxbBe/EH/BRoeOcvzMntgmSTFMxDaX2huYQHVW4Ehzc4C7gV8Tf3LsW4HjscmsSf82e5sP08xJXb+/P+3Yo9G/YY/eXnX0IRVVlhGADzviiHGH2DAQWzGQtN9lhG8v24adUJL2+SLxhqe9pZWPjdDnz519HhihT7Ck0jMfIDTRadifeNs3q5Wvha7c6e4E0s17yrrNwIqxxaYRgAKV+S5kU+frfx+p33bgYsfrB2LL7EJMxJawJfVH7EIWw/nYKoikYsyO93y2r2HVF2OYhj0mSmojwreD3hz7vEYF/h4pr08RZwOtg7C5OWU8L4/HqpOuVXQgEk8Zv2gNnsltz2IT+GL5i/P1GwT2t77z9X8N7K+7l4F7HK/3xtqM57OdDCyN0GeD57MdSngVxO+hyYR18FWSD9c3MwCrAFpmKwBfLzoIiafMCYCnkMuTkft+wvn60E1kvD/vjS/m71shQn+e4y3yWCHssx0OvCPg56U6RhD2WW9F8Xt/JKGJsS2kzAmA57n6y5H7XoA9k0/KM3zfjHcOwSuB/fXkef9iDGUX+dm+5Hx9yGc7ARtFkHpYJ+BnJ8UKImMrkf1maJKTMicAnmHf0El4PQ3AMvqkFgf25x3i9sSWhOeiviRCf0V+tt4LeshnOz/gZ6V65gX8bFW+K+3YDZK0gDInAJ4/ptUj970qviWScwP78/587I2RPO9f6LFCsZ/tBOfrQ07qL2NLS6Uebg/42buIu69IVu6kGnFKAmVOAKY5XrsV4cPw3XmXu7wY2J/nWMHWB8cyENjB8frQYwXf8cZeerSr8/Whx/urwJ+XargT+G/Az8/Ctjwvu6x2BpUClDkBeMzx2qHAfhH7fp/z9Y8H9vcEtsY1qZgTcXbDnuslFXqs4PtsY06OagPe63j9dHxzQZo5E7g+8HdIuc0CPobvb7iZz1PuEaNzsX1EpIWVpRDQzo44OrGlbDESmg2x59xJ+30Zu7CE8hQf6gC2jdAnwA2OfjvxXUB74/mOdWLV1mLwFpfyLgftzVBsffdiZ/9q5W//InwZcHcrYXUj0u5QmkWbgxUMi3Ge60mFgApU5lLAd2ETY5JOAtsaKwX8u4A+24CfYNvJJnUT9sUM9S9g44SvbcNKc+5O2PO492GlaZNqJ862wP9yvv5I4GzCSh+PAb7v/Jl/BvTX3WJsK+YfYCMua6ETWZV1YIn/3VjiHtMM4EPYd2QnbM5KkvPRl0m+ZPUfJCuItQB4BjvHVWWSogQqywgAwJWOWDqx6njbBfR3srO/Tmy72RjelaLvMwP62wSrsufpL8bFH2yk5gVn31OAVQL6u9bZXye+vShEiqTNgCSKMiUAH3DE0miz8N3Vgt1Rn4S/Bvc84pV4HYQ9c/Ye79n4RizAJv1NS9HXJ9IeXBM/TNH/EyQfJWkYBVyRoq87Ux+ZSP6UAEgUZUoAhmB73ntP3kuxsppJqtZtgf85ePeLb0zfSxnHbcD2CX7/KOBbwKIUfcwmbgGQ9fFvCdyJJXjHYt+N/uyHlYhO854eEX6IIrlRAiBRlCkBAPisI55mF63fYhPXNsLmE6yMXfSPxra5TLvz1lJg3cjHujI2qpAmng5sW9LjsO1EV8UKBq2PPV44C6sgmPa9/HbkYwW4JCCeKViStydWRW0EVjNgO2w0566A3z0V/6iKSJGUAEgUZUsAhmFLY9KezLNqIc/f+/KtEhxbzzYd337jSa2Pb3vevNr/ZXCsIllSAiBuZa4D0LAIu6stk5eAb2T0u0+lfGuBvwi8nsHvfQqbC1AmN+HbDlpEpJKqkAAAXIcNYZdBB3A4NoM+C4uAQ4lTcz+GP5LtBfH7hJVQjWk29uy/s+hARESyVpUEAOAL2HPdon0H26M+S3djd91FewQ4KuM+lmIJT+wdDr3agY8CzxYch4hILqqUACwC3k38whseF2IJQB7OpNjh8RexyYOhpXCTmArsQ3ajKkl8Dvhrgf2LiBSubJMAe1oNqwiX98Sw88i/cmIbxUwKfAYriZy3bQlbqZCmLQM+lcfBiWSosZ9IknZiQTE2o0mAJVP2BACs5OXfE8YY4wLx1XwOq1efIb868rdiSwiLsjG2WVAex/oacfY2ECnadST/3ns3O8uSEoCSqUICAPb44iukK2qTtE3F6u2Xwbb4snxvW4rVqi/D/hCjgN+T7cX/DmC9nI5HJGtHkfycHat6aQxKAEqmKglAw4b4st8kbSH2/D3pRkR5GQp8E5hL3OO9GSuOVDZ7AA8S91hfAT5Jtea/iPRnMMkejR5dVIC9UAJQMlVLABp2wDYPChkqfxWrLjch59i9xmOTEdPU82+0Zdikt93zDd1tALYnxK2EbZH6JLbfetmSOpFY1gTuo/n3vx27eSgbJQAlU9UEoGE8cAy2fv1l+o6/HVtV8CvgAKpX/nUgsC9wOnan3F9t/ZnA1Vgt/bInOc2sh5X5nYytTujrWJdgG/qcAuxINnuZi5TNEOz8dz22pPVh4Fxsu/QyUgJQoGYnxROA0xL+/Czsgltm47F9AFbA6sWDTf56BXumvrCguLIwFNgAWynR2AhpIXa8T1D8WvvYJmL7MYzFjr0DO9bnsZUMy4oLTUQSOATbEySp4di8L4mgDBO+sjaT8lSay9pi4KGuVgfPdzUREXHSRCgREZEaUgIgIiJSQ0oAREREakgJgIiISA0pARAREakhJQAiIiI1pARARESkhpQAiIiI1JASABERkRpSAiAiIlJDSgBERERqSAmAiIhIDYVuBjQUODpGICIiUjvbFh1AnYUmACOBs2MEIiIiIvnRIwAREZEaUgIgIiJSQ80SgJVzj0JERERy1SwBWDv3KERERCRXzRKAoblHISIiIrlqlgDMzj0KERERyVWzBOCp3KMQERGRXDVLAJbkHoWIiIjkSssARUREaii0EmAn8FqMQEREpHaGYBVlpQChCcBsYHyMQEREpHYOAS4pOoi60iMAERGRGlICICIiUkNKAERERGpICYCIiEgNKQEQERGpISUAIiIiNaQEQEREpIaUAIiIiNSQEgAREZEaUgIgIiJSQ0oAREREakgJgIiISA0pARAREakhJQAiIiI1pARARESkhpQAiIiI1JASABERkRpSAiAiIlJDSgBERERqaFDRAYiIRLQiMB4Y0/X/jwEGdv3fK3T9Ox9Y0vV/zwHagUXALGBmt/9NpKUpARCRKlgRWLtbm9T172rYBb9x4W+L0Nc8LBGYBbwEvABM7WpTutp0LHEQqSwlACJSJmOADYC3AJt2/fs27EKfl1Fdbe0+XrMUeBJ4GHik27+PAJ1ZBygSgxIAESnKQGBjYBtgJ2BnYBPi3MVnbTCWoGza47/PAe4CbgPuAW4FZucbmkgySgBEJC9twFbAvsCewA7A6EIjim8MsHdXA3tM8BBwM3A9cBM2B0GkcEoARCRLq2IX/HcA+wCrFBtO7gYCW3a1zwKLsdGByVhCcF9xoYm82QnYM6wkbWZBMYpIea0MHAZciz0rT3o+qWObCpyOPf6owqOP2A7B934NKybM+lACICJeawCfw555t1P8hbWKbSrwU+Dtzve+ypQAlIwSABFJYiD2rPuP6E4/dnsMOAl7hNLKlACUjBIAEenLxsCPsDXyRV8oW70tAa4C9md5QaNWogSgZJQAiEgzO2PP9Tso/sJYx/Yi8C2WVzRsBUoACqS9AESkL0OxCX0PAv/G7kTrOFmtDFYHTsbmCpwNbFhsOFJ1WgYoIs2MwSb1HYvN6i+bTuwRxBRgGjYa2WiNmv4Lul47D5ujALCM5ee9cVgyM4jlpYS7/7sqVg1wLSwRKovRwNHAkcAVwPewBE3ERQmAiHQ3Gjge+Dx2ESzaTOABrNTug8Az2B3wc9ia+jy0ARNYvv9Ao0Tx5sC6FDeSOhD4EPBBLBH4NvY+iaSmOQAi9TMK+Aowg+Kecc8A/gJ8HSsalGf9/7RGYHsVHA2ch83eL2qORDtwKVZOuSo0B6BklACI1MdA4BjgZfK/YE3DLpofAzaideYWjAfeDZwC/Jf86yK0A+dQjQRKCUDJKAEQqYd9sOH1vC5Mi4AbgC8CW+RwfGWxCnAocD75Lp2cg43qlPmiqQSgZJQAiLS2DbHiPXlchBZiSwcPA8bmcXAlNwDb/fBbwFPk8xk8j73/ZRxhUQJQMkoARFrTMOC7WHGZLC84jeI1B2NzC6S5Nqzs70+B6WSfCNwIrJ/LkSWnBKBklACItJ6dgUfI9gJTl/K1WeheVjnLBG0hNvowJJej6p8SgJJRAiDSOlbAJoRlNTN9ETaRb8e8DqgGJgBfxpY7ZpUI3A9sn9cB9UEJQMkoARBpDfthM+2zuIC8jN1J6m4/O4Owdf53kM1nuAzb06HIIkdKAEpGCYBItQ0HfkE2d/0PYRXodCLO19uBy8lmSeG9WHGjIigBKBklACLVtRk2vBv7IvEINpO8FXekq5JNgAuwu/eYn+9CbP5G3lUNlQCUjBIAkeppA07EyuPGvvAfgjYOK5u3YBMGY48IXIfVLciLEoCSUQIgUi1jgT8T90LwInA4uvCX3RZYcaWYn/0L2COHPCgBKBklACLVsTFxl/fNB07FNgWS6tgbm58R63uwFHskkDUlAAVqpd0A27AZySOKDqRC5mOzubM0inyHFAFeBebm3GcRDsGW+I2M8Ls6gYux0rEvRPh9ZTCY5YWIhrL83LCM5d+Ppdh2wVX3D2Ar4NPAydjyzxCDsERwU+CT2BwBqYGqjQCsAPyEYjYzaYU2HftDj12m9VDgfwUe1/3YEHYZy5+GGoh952O9V48Du+V6BGGGYc/A341d8E7FkpcbgfuwrYLnk/z4l2I1+h8B/o09TjkT+BK2DG97YOVcjiyOVYBLiPf9uBeYmFGsGgEomSolAGuTXz3tVm+PAav73v6m2oDflOB4Gu0iWus59kjgauK8N0uwi2eZT6prAB/Aag5cjiUrsWfAJ20vY3fapwNHYXfcZR5F3Q94ljjHPg3bwyA2JQAlU5UEYABwVy9xqaVrtxB+x3xsCY6jZzsx8JjKYjXifef/gy0ZLJPGRjmfA/6A3ckX/d3pr80D/gX8ANif8u19MBIbLYqRNM3FjjEmJQAlU5UEYP8+4lJL3/byfAg9DCTf7U6TttkUW+0shrcAUwh/L5Zid/2Dc42+d6th9QUupjUe4y0BbsLmUmxDeUafdiDOaOky4LiIcSkBKJmqJABn9BGXWvr2I8+H0MM2JYi/t7ZrwHEVbVfgNcLfg8eB7XKOvZmJwPHArWRT2a5M7RWscM8BFP+4YCxwIXGO68fEmV+jBKBkqpIA5LWfed3ahZ4PoYd3lSD+3trBAcdVpHfgm9DWWzubOKsF0loRu3O8g+w2Jip7m4ZNLtw68L0MdTAwi/Dj+TXhIxxKAEqmKgnAr/qISy19+6nnQ+hh+xLE31vbM+C4irI/tvwq5LgXYKshijAA24b4bOIkMa3UHsbW2Re1umAicGc/MSZplxL2OEkJQMlUJQE4qI+41NK3kEk+Q7Dn7UUfQ882n+rVh/gw4fvCPwFsnnfgWBGh44GnnfHWsS0Efkcxn9MwrI5E6DFcQ/oLsxKAkqlKAjCIuBXQ1Gy9b+iQ3tdKcBw92/cDjylvRxA+a/sqYEzOcU/CZpzHmK9Qx3YDVtsg79oVxwCLAmO/jnQXZyUAJVOVBABsZnQrzBwuQ5sGbOh7+5saRPy69CHtemxkoio+QtjEuA7gm+R7EVkbG+ZfGhC32vL2ELYyIs8VBDsQvoLnWvyPA5QAlEyVEgCwZ1kXE57B1rUtBM4HJnjf+D4MBL6AbShT1HG9hC3FKnrmtcf7CLuILgb+L8d418KK4uhvL5v2IPaoM69kbhI2NyEk5ivw/c0pAShQsy/WCcBpCX9+FjA+XjhBRgHrAysVHUiFvAo8iU0Uy0IbsAGWXOS17nwZVt74SexuuCr2we6g0tYrmA28H7g5WkS9WwH4BvAZih9deQ2YihUNehb7Ts/sajOA17tet4jl9ewHsvzxyHDsHLZi17+rYNUH18YuiBMofi3/XcDngdtz6Gs0tsLqnQG/4wLg4yT7+zsEK1uc1HDss5SMVG0EQKTqdseSsLR3XU8BG+UQ52Cs0uOMgFjTtgVY3YBfAZ8CdiF8w5skhmAT9A7Bqv1dgyWYeR9/B3AZlpRkbQhwXmC8ZybsSyMAJaMEQCQ/W2B3qWlPtA9i1fSytjv5Trqdid2JHo8tLy1L5cKGdbD5GmeS7/uyEPgO2Ve2bCN8w6lvJOhHCUDJKAEQyccEbPg67Qn2HrJ/5LUC8FuyL97Tge1P8A3sgj8w4+OKbS3gE9iGRXPJPhF4jHyqW54UEGMH8NF+fr8SgJJRAiCSvRGEFWK5C3tunaWDyXZvh3Zs+93PAmtmfCx5Go5N6LyIsNGdJBfY3wDjMj6eY0mfAC6h7yJcSgBKRgmASLYGAn8h/Yn/RrIt6xuzZnyz9jy2IdE6GR5DWQzFZvJfS3bbGD8H7JHxcXyK9EnATHqfo6IEoGSUAIhk60zSn+z/TbYX/z3JZhveZcCfgL0pflZ9UdYBvodtEBT7/W0Hfki2qzKOD4jvKZo/rlICUDJKAESy83+kP4neS3Yz3wdhO0HG3p3vNWwy2aSM4q6iYdh8gYeInwj8jzgFvXrz9YDYbuTNczuUAJSMEgCRbGxJ+k1xHiC7mhurYfUDYl6IZgJfxdaVS3NtWOnfu4mfdL03w7hPCYjtBz1+lxKAklECIBLfilihmjQnzceBVTOKayfiVmycgz3fz3piWqvZm7iJQAf2OWS1muIXAXF1T06UAJSMEgCRuAYAfyPdCXMGVk0xC58ifMfBRlsC/Ix8ivO0qjbgUMKWhvZsk8kmGRsAXJkypjnAJl2/RwlAySgBEInrZNKdKBcCO2YQTxvwrZQxNWs3YBtzSRzDsfX3sZYQPkw2czBGkH7U4sGu41QCUDJKAETi2ZZ0d9kdWKW52IZhJWVjXFhexPYfkGxMwAoLxfispmPfxdhWA6akjOl0lACUjhIAkThGY8uf0pwcT8ognpUIKz7UaMuw4f5RGcQob3Ygtl136Oc2D9g/g/jegk08TJPknur8GSUAGVMCIBLHeaQ7UV+aQSwTiLPs7HGsVK/kaxy2y17o57cEK0wU2/6kW0LqfcyhBCBjSgBEwr2fdCfoB4lf6Gct4ImU8XRvF6C7/qJ9EDvvhnyOy7DtemP7bmBcSgBKQAmASJhVSbdl7mvEn/G/PuGzymcA74kcl6Q3EbiJsM+0Hfhk5LgGYqsOlABUmBIAkTBpJtl1AB+IHMdE0tceaLT/UY+a/VUzEHt+HrJLYwdwdOS4VgSeCYhJCUDBlACIpPdu0p3Yfhw5jlWxLWNDTrYXYEu1pLzeQ7oJeI3Wjs3Ej2l7YGlATEoACqQEQCSdkaS7+3mQuCe2lYFHUsTRaMuAz0SMR7K1KWEjPUuAAyLHdHJAPEoACqQEQCSd0/Gf0BYBm0eMYTQ2bJ/2BDsXG8WQalmVsCWeC4HdI8YzCLg9IB4lAAVRAiDitw3p9ns/PmIMg0hfcrgTK+yzVcR4JF8jSF+et3E+3yhiPOthZX+VAFSIEgARv1vwn8yux8ryxpJ2g5ZObAh5vYixSDEGAr8l/ffgGWCViPEcERCLEoACKAEQ8TkI/4lsPrBuxBi+mCKGRnsMWDNiLFKsNuCnpP8+3IWNJsRyfUAsSgBypgRAJLkhwJP4T2RfiBjDfqSrwtYJ3E/cOz4pj1NIf6E9P2Ick7AyxEoAKkAJgEhyX8Z/ErsPe14fw9rAqyli6MTK+q4WKQ4pJ2+t/e7tmIhxpPk7UQJQACUAIsmsjL+W+VLiTbQbBvzX2X+jPQWsHikOKa824Fek+44sIt4OgoOxxFcJQMkpARBJ5kf4T2A/i9h/2slez2EjB1IPA7Ah/TTflSnA+EhxvJ2wyoVKAHKgBECkfytha+Y9J69ZWKnUGD7g7LvRXge2iBSDVMcg0tfpvzpiHJemjEEJQE6UAIj07yf4T17HRup7ddLtCLcE2CdSDFI9o0k/DH94pBjWxFbAKAEoKSUAIn1bDf9J7FHsOWioNtIX+4m9+5tUzxrA8/i/O3OxnSXvDreRAAAgAElEQVRj+H6K/pUA5EQJgEjffob/xLV/pL6PS9F3J7YuXARss55F+L9Dt2DzCUKNBqan6F8JQA6UAIj0bgX8a5pvjdT3WvjnHXQCt2H1CkQaPkm6C3CsTaLSJrJKADKmBECkd1/Ff9LaI1Lff07R93S03E+a+x3+79Pr2GOEUENJ9ygiZoVCaUIJgEhzg/GftGLd/X/Q2W8ntjnRrpH6l9YzHNuK2vu9ujxS/59J0fd7IvUtvVACINLcR/GfsHaP0O9YbKc+b9/fj9C3tLYtSTcfIMaW0UOAV5z9Xh+hX+mDEgCR5u7Bd7L6V6R+0xQcugc995dk0mwk9TQ2jB/qe85+O4DNI/QrvVACIPJmO+M/Se4Xod9JwEJnvwuAjSP0LfUwALgR//f7+Ah9D8ceVXn6/U2EfqUXSgBE3uz3+E5SjxFnydRlzn47gZMi9Cv1Mgn/6pZYlS0vdPY7F1tKKIFi7UhWBpt1tTFFBxJBO/AS8B/sjywL6wNvJV5p2rLoBF7G3rtXI/3OMcBBzp/5KTZcGWJ74EPOn7mfuGv+B2IbwqxPsTOwX8cmrD2S8ueHAjtiSyljDF0XqfEdvwN7hh7DFOC72O6BSa2ArYr5YmDfJwAHk7xQ1ihsUux5gf1KE1UbAdge/7PZqrQl2E5eI6O9WzY0/K8SHFvWrR3bAGWFCO/ZMc6+ZxLnM/uHs992bMOVWA4EpjpjyLrdBWzjOIY24HNYIl107GX+joPdEP7PGcMi4iwLPNfZ778j9ClNVCkB2BP/89EqtjuxZ2WhNgdml+B48mwPA+MC37c7nX3GmH2/o7PPTuCXEfpt+AzhO7dl1RYAuyQ8jl+WIN6s2yPESwJ2xP+5nx6h382dfXYAG0XoV3qoSgIwivTlJKvYfhT4fg0EHijBcRTRfhfwvnlPTO3Y89RQ3p3bZmM7FMawMbDU2X/e7Tn6T4rfU4I482rn9vNeeHh37FtInGJTtzv7/WGEPqWHqiQAR/QRVyu2uYQ9u9ynBMdQVFtK+rkOpzr7uiFlP93t4OyzE/hChH4bzkjRfxHtI/0cR5qZ7VVtS4Hx/bwfSaXZse8nEfr9hLPP57FHPJJSjFnKRdmx6AByNoqwfdxjPhuumkHAdil/9kDn60NGGxq+7Hz908AvIvTbUJW/rZ36+d/r9J0P+Y739AL+Yf1PEj6h+DJsJUJSa2LJsqRU5QSgjstAQlY41PH96i7Ne7c1vi1QX8Pq9YeYhH/nwG9jE0Zjqcp3pa/PdDD12zgm5gqoH2KPlZIaARwV2Oc84E/On/lgYJ+1VuUEYGrRARRgSsDPPhcriIp6NsXPeO/+L8Keh4Y4HpuvkdST2DPbmKrytzWlj/9tKTZHqE7SfMd78zr+UYDjSL6UrzfeuQwHoscAUVVlDkCaymxVbg8Gvl/r4K+41SptCumS3cec/YQOnY/GRhE8fR4a2GczxzpjKKpt289xnFWCGPNqU4l/QzcWO8d74vDWreipDf/S01iPPoTqJACQbnvUKrYO4F0R3q8zS3AsRTRvER/wz/5/gfAT8KedfT6Ob7QgqWH4k5+82x8SHMdEWnP9f7MWeuHtzcnOOG6J0OfPnH2GrpCSbqqUAIzDvnBF//Fl2ZZhQ2sxDAGuKMEx5dXaSV+l7ERnXzHWQnsLWn0qQp+92QB4yhlPXu1Gks9T2A3/XWyVWjvwpYTvRRorY3UXPDGF7kOxk7O/BwL7k26qlACAzX49CqsM1SpFbpZhz+wvxMr1xtSG3S3cgJXKLfpYY7d27G78EnwV43ryLiHbNaAvsDLWnv5mEbdCZDOjgK9h1eG8y8Jit1nATcDH8Y96TMCWqT1Guq1vy9ZifceTOscZ3/cC+2vDzn+ePtcM7FO6VC0BEIltJL4LxXTCh/+9w56nBPYnktRG+KoDvkD4o6nTHf11YomhOFV5FYBIVnbHV3Tpb4Rt/DMY32S+DuDXAf2JeDyO7R+S1BpYmfYQf3W+ft/A/mpJCYDIm73D+frJgf3tCazieP0/qM5SPWkN5zlff3Bgf7dgcw+S2gddz6LQIwCpu4dJ/jewjPASrL929NdJdjO+RXozHN8cqxmEbzf/d0d/neQzH6KlKGMSeaMVgE0cr7+HsER4ALZpTVIzCa82KOK1ECvVm9R4ku/Y2Jvrna+vSgnr0lACIPJGb8dXWSx0+H9nbJZ6UpcDiwP7FEnjYufrPxDYnzcBqNPeD1EoARB5I+/mIp7JUc146/5fEdifSFq3A9Mcr39vYH8PAS87Xq8EwEkJgMgbeYYRlwF3B/bnmb08A1sLL1KEDnwJ6ERsCWGI/zheOwlbgSAJKQEQWW4g/deX7+4BfNuX9rQqvi2er8aSDpGieHfr2yewP08CANoe2EUJgMhyG+PbUvWOwP72xjff4NrA/kRC3YZVZUwqNAG43fl6TwJfe0oARJbb3Pl6791JT3s7XrsUDf9L8dqBfzpevzthywHvAZY4Xv+WgL5qRwmAyHLek8ddgf3t5Hjtf4A5gf2JxHCD47Vj8CfW3S0E7ne8PqSv2lECILKc5+SxANstL60VgfUdr/cuiRLJinfpa+hz+Qcdr10L32O8WlMCILLcZo7XPkJY/f8d8D3/vzmgL5GYpuIrRb19YH8PO17bBmwa2F9tKAEQMSOAdRyvfyiwP89JcSm2Ja9IWXjmv4Suz/f+rXkS+VpTAiBiNsT39+C5K2lma8dr78e3MYpI1jwJwAaEDct7E4CNA/qqFSUAImZt5+tDRwA8Ew5DVxuIxOZZntdG2Oz8afiWHk4K6KtWlACImEnO1z8Z0NcoZ3/3BvQlkoUH8RWlCn0u75lw603ma0sJgIjxnDQ6gBcC+toU3wRAzyxokTwsxndRDl2fP8XxWiUACSkBEDGTHK99ibAd+Tx3Qx3YigORsvE8BgtNADyrDlbGRtmkH0oARIznrmFKYF+e1QbPoAmAUk6eBGDdwL48CQBYPQDphxIAEbO647XPBfblSTZC5hqIZMnzCGAivsdePT3rfL12BUxACYCIWdHx2pDn/+BLALx3PiJ58Xw3h2K7X6bl/ZsbH9BXbSgBELE1ykMcr58R2J8SAGkFU5yvD5mcN9P5eiUACSgBEPHd/YP/ZNRTno8bRLIyDd9OfRMD+vL+zXn/pmtJCYCI/24hJAEYiQ2HJjUtoC+RLHUALzteH3JXvgjfZFiNACQQsk+zSJbGAR8DdgOGA48CVwK3ZtBXngnASs7Xhz5uEMnSTJLf2Yfelc/E9uzIo69aUAIgZfQO4EJsPW/DO4HPA9cCHwVej9jfaOfrZwf0lffjhlBtwFuxpYsDC44lS4uwioshEzwHsPy9ynp0dS5wJ2HfxRg838/Qi/IskicbYwP7qgUlAFI22wJXA8N6+d8PAP4C7IGvFGlfPEPyELYufwXn64s8wR8A/BRYv8AY8tQJXAcci3/Z2fuw98pT4yHUUuB84ARgTo79dpdnAuD5u/NM6q0tzQGQsjmD3i/+DTsDR0Xs03uy8Ex86inpECZYtcFFAX2FOAr4M/W5+IONdrwLuAvYyPFzn8EeT+V58QcYDHwCeywWstteCM9I3MjAvjx/d0oAElACIGWyEbBDwtd+LGK/eSYAnr5Cyg2H2AD4JWGFW6psJeAikh3/JsDPE742K5sDpxXUd54XZc/fg3dUr5aUAEiZvNPx2tDa4t2VNQEI6SfEZ7C7yzp7G7BLgtcdRzkepR6O//FSDJ6LcmgCoBGAyJQASJns7XhtzIuj926h1ROAnQrqt2x2TvCasrxXg4HtC+i3rCMASgASKEPmKv17C7YcbjRWGGYyNiO2lQzGjjGpeyP27U2EOwL68sykbw/oJ0RRz5PLJslM8jK9V0XMfF/qeG3oRdkz6VfXtgT0JpXbKsA5wHt6/PeFwCnA9wm7GJXJDviW490YsW/PSQwsWVmYsq8qnMSeBzYsqO8ySVKG+Xl8W0lnqYiy0XmOaFVh9KxS9AigvLYG/subL/5ghXG+A5yVa0TZ8gz/A/wjYt/ek0XInUwVnmNeW1C/ZbIUW27an7K8Vy8CdxfQb54XZc+jOiUACSgBKKeDgX/Tf9GLo7FlS61gH8drZwP/i9i3EoA3Ogd4uqC+y+IMku3DcBb+TXGycCLFPDIq6whAUStoKkUJQLkMwIb1LyX5evFPZxdObsZgs66TupG4J7uyJgBFLWVagBUBqutOhJcBX0n42nnYe/V8duH0qRP4OnBJQf3neVeuEYDIlACUx2jgKuCr+NYUb5tNOLnaE9+ys5jD/+C/Wwi5MM91vHYIvsJBMT2KlbX9DvAYrX9CnQv8EzgIOBTfvJCHgC2x5P1x8nmvZmLFh3bq6rconqWH8wL70hyAHJyAZZVJWtF1ylvFethJJOn73r3FrIlflF/gO+Z1I/f/Xmf/IUnXZs6+QrZQFcnaTST/Lv8wsK9HHH1dEdhXLWgEoHh7YaVH0xa2eSJiLEXxPP+fAjwTuX9vvf2Qmube5Zva1lTKzPP9DF267NlJs9WWSWdCCUCxjgP+TtgF5fJIsRRlTXxLziZnEIN3JCvkoqwEQFqJ59wVclFuw/e4QaPTCSgBKMYQbKb1GYSt9X4CGz6vsn2dr4/9/B/yvSgvwvcsdI2AvkSyNAirVZJUyEV5LL5zpUYAElACkL9VsVnsnwj8PU9gF8+QrWnLwDP834E9c4zNe2IK3dbUs+f82oF9iWRlIr6LcshKCe/fnEYAElACkK8tgTtIVmO8L9djlfOqvkyrDdjD8fp7gBkZxLEE3125566nGc/npgRAysr73UxSV6E3KztfrxGABJQA5Ocg4DbCy4b+Bng3/olrZbQlNiKSVBbD/w2exGKtwL6UAEgr8Hw3FwGv5NQXZHOj0HKUAGSvDTgJKy4yMuD3LAaOAI7BV0++zDzD/5BtAuC5Owm9KHv6Uk1+KSvPd/M5bHleWpOcrw8ZbagNbQaUrVHABcD7A3/PdOAD2OODVuKp/78Q+E9WgeC7K58U2NdTjtdOxCZAtUK9B2ktmzleG1pa2pN0L8P2RpB+aAQgO+tiF6zQi/+92PP+Vrv4D8M3F+IW0u/Al4QnARiNb0lSTw87XttG+hoRIlnyJACe73wzkxyvfYHWGSXNlBKAbOyCXfw9fyDNXIZdJFtxOGsnfGVusxz+B/+GLpMC+nocX6nZzQP6EsnCSHx/A3kmAFWfHJ0bJQDxHY0t8wuZKd4OfBk4hOov8+uNd/vfGzKJYjnvSWPjgL6W4nsMsHVAXyJZ2Brf9SMkARiElUtP6tmAvmpFCUA8g7DCPmfj29imp7nY8/7Qutll55kA+ArwQFaBdPGeNELvyh9yvPbtgX2JxLaD47Ud2OZSaW2IbwOuKQF91YoSgDhWwtbmHxf4e54CtgeuCY6o3MYDWzle/w/CZhAn8Sww3/H60Ofydzv7GhvYn0hMOzle+yhhOwF6H6WGPm6oDSUA4bbATuaegjbNTMZ2mQvJlKtiT3zfvayf/4PdpTzmeH3oCIBnUucAYLvA/kRi2t7x2tAJzN5k2zO6VmtKAMJ8ELidOMV99gdeCw2oIsq0/r+7Bx2vnYStBkjrv/gmAu4W0JdITJsAqzleH5oAeEYAFuObX1NrSgDSaRT3+QPhxX0+TmsV90nCMwHwMcJqiHt47hzasEqGaS3El3C8I6AvkZi838XQBOCtjtc+Rr3OpUGUAPiNAv4EnErY+zcNu6v7fYSYqmQ9YB3H6/O6+wf/0GHo5LxbHa/dGt9+6CJZ8YzgzSbsseaqWE2VpDxJde0pAfCZCNyMzdIPcS928bgzOKLq8Q7/Z738rzvvSgPPTOhmPMc2AP/SSZHYhuB7HPVPbFlzWjs6X68EwEEJQHI7Y89tQ9dkX4rNoG3F4j5JeC5iy7CEKy/T8dUD8MyEbuZmfPMA3hPYn0ioffA99gxN4L0JQJblwmvhBGzJVZJWlz2Xj8a2jE36vjRry7B5A3U2EPvOJH3Pbisgxksc8XUSPgH0Fkdfc4Hhgf2JhDgP39+HZ/i+mdscfS3BV1209jQC0LdBwOmEF/eZg+0J0OrFffqzDbCi4/V5Dv83eO8gQkcBJjteOwrYN7A/kbQG4xuFeqarpTUM34jrfbRu5dRMKAHo3XisuM9nA3/Pk9iz4muDI6o+7zPsPCcANngTgNDn8n92vv6gwP5E0toLXwLv/W73tAuWBCR1e2B/gh4BgBX3eYawIf9O4DpgXM6xl9m/SP7ezSFs1CWtwVhFwKRxTseWBIZ41NHfPMLqD4ikdTG+81/o6NiPnf0dHNifoARgf2zv9dCL/+nYM28xI4BFJH//iiyHfGMfcTVrWwT29wNnf0cG9ifiNRZ/Yhw6wny/o79OYI3A/mpHjwCWaxT3+TMwJuD3LAYOB44nbPlLq9kV34YeRQz/N3jnHoQ+l7/K+XolAJK3Q/FNsLsSK6+d1mr4ym0/DLwY0J90qeMIwEisuE/oXf+LqGZ7b36C773cpJgwAduoyBNraLLSBjzh7HPTwD5FPO7C9/3cNbC/jzn7+0lgf7U0qOgASmBN4GpshnqIO7ACQdODI2pNnsly0yh2U6T7sM9xQsLX74ZV6ZuRsr9O4Hzge46fOQ74VMr+vFYA1qbYR1qLsXk5obO8x2BLN4uYXxLTHOBpwu6yk9oR26gsqWeBfwf26S225llNI32o0wjAzsBLhN/5X4zWZ/dlVexElfT9/H0hUb7Rhfi+A0cE9rcGVisiaX/zsZUqWdoKWwnjiSvLtgD7biRNzLrbCEv0Q+t5lKlNB75M9jdylzvj+mZgf6OxvTKS9rcQnX+jqUsCcDR2VxHyB6jiPsl8BN/7+pFiwnyD/8MX818j9Hm9s8+vROizN+/GdxLOs70IbOg4lp2IM7G3rG0yVqI3C5OwapVJY+kgvPiP93zx98D+pJtWTwAGYRv5hP7RvY6tGJD+nYfvBJLmDi+28fhOfEvwrZFu5kOO/jqxC6FnYmVSq1H+C+Z9JHskMRq7Uy463qzbDxK8F2n83BlHjOJdVzn7/EyEPqVLKycA4/Ev8WrWngA2zjn2KnuO5O+td0OeLHnvyD8W2N8gfO9VVie/7zljKKodkOBYPluCOPNo8wnbmryZ1fAt/Uv6mfRlFPaoJ2l/7ZTjhqGS6rQMcHPgbmDPwN/zd2ym/2PBEdXDJtguikkVUf63N39yvv7/AvtbBpzl/JmvEf/5Z+jfSF72SvCaqhxLqBGE707Z01fwLf17ivBHYQfh+z7fiiZep1aXBODd2BfFsw99M2dgw/6vBUdUH97tf4tc/9/TldhFOam9gPUC+zwb30z3CcBRgX32tFLk35eVlRO8pirHEkOS9yOpNN+rMwhflfBx5+u9Sbr0o5UeATSK+7QTNry2EDgs59hbxTUkf58XY0OAZeJ9ZPTtCH3+xtnnS8QtD+zZobDIdlqCY4lR36MqbbcE70dSv3b2/Rrh38EN8a0WakfV/6JrlQQgVnGfF/CtgZXlBuGbTPavYsLs0yfxfV+eI3xkbT18ExA7iTsJ7OvOvotqSSowHlOCOPNos4g3IXRT/N+/70To9xRnn7dG6FN6aIUEYE3gv4T/Ud2OTYSRdHbC935/rZgw+7QC/uVw74zQ7/nOPhcT/vihYUXgFWf/ebdbSbYJ0zDibOxV9vaFBO9FUpOdfc8l/FHLIGxVi6ff2I++hOonADsRp7jPRai4RKhv4XvPy1pG+RJ8xxFjI6MN8Rfg+WOEfht2wYZ1i76wNWtPYEl+UlsS55xQ1nYu4TtSNhyQov8Yo0/eJbDzCNuzRXpR5QTgKFTcp0xuJfn7Ppvy7p64F77vUAdxlol6qxF2Emf0oWFdLBGelyKOLNrL2BaxabbYXh04h/ImNWnafcQtmjUSK+PriSHG3T/Af5z9nhehz9prljWeQLLJNWDPnbIuR5rUz4DPBf6OWdie0mWaiV5Vo7EEMWnN9SuBA7MLJ0gb8CS+IfZfEb5Gfx1sTwTPs92pwGbYRTuWIVg55yLr5y/EEoDQWeaDsGPJooBSnmYRfzXSadj53+Nkwp//7wjc5vyZXQnfb0CaqOIIwEmEZ9MPA+vnHXgLew++9/+TxYSZ2DfwHU+sWv2nOfvtJHkCL9KwJf59El4kTvEh714DjxPvkYf0ULUEYDV8laOatWvQ86TYzsD3GZQ9+VoD/wnyyxH6XQHbZdDT7zLg7RH6lnoYCtyL/7zpXbPfzCT8c12+GKFf6UXVEoDjSH/h7wC+T30KIuXpUZJ/DlOKCdHtInzfr1eJU9fgeGe/ndhWsUpqJYkf4/9+3Uec86a33sAc0s0BkYSqlgB4v0DdL/6HFhBvHayB77P4TTFhum2N/3vmfabazGBsjwRv3+dG6Fta2574C6V1YKtEQq2Ff9L2zyL0K32oWgLwK9IlAJ3A34Cx+Yfc8j6O73P4UDFhpnIzvmOLNQqwI+kqWh4UoW9pTeOB5/F/p86J1P/Zzn6XEa/WhfSiagnAsaRPADrR5L8sXEzy97+duDXMs/Y+/N+xL0XqO81o11yssptIdwOA6/B/n14lzrK/NHf/l0foV/pRtQRgAv4tK5sdh3fTGmmuDd/+6/8tJszUBmCFaDzfr1eIMwowFn+1tE5s50rNB5Du0m75HLrjZcM5KfreMVLf0oeqJQAQNhGw0ZYSXkdAYAt87/spxYQZ5HD836/vRer7vSn67gQuQ0unxBxAusdJ10bqf1P8M/9VmyUnVUwAwGZKe79Uzdq5VL9ISJE8359Oku3pXjYDsbtqz3EuxJY8xfBbZ9+N9s1I/Ut1vYV01RBfId6+KE+l6H/XSH1LP6qaAIDtDjaL8CTgduzRgvh5nisupLr7LRyG/3t1aaS+R+J/DNGJzd7Wttb1tTpWKTLNOfGASDGcnKLv6yP1LQlUOQEAm9D3COFJwIuUd3OashqCr258lf+w04wCdAA7R+p/J9KNeC0Gdo8Ug1THKOB/pDsXnh0phkGkm68VY8mhJFT1BACsDv01hCcBC9Edk8ce+N7fWLPji/IR/N+pO4lXeOprKfrvxIaAt4kUg5TfENLN+O/E6k+MiBTHl1L0P5M45YYloVZIAMDu0E4lPAnoBE6nvDvVlcn38b2vWxUTZjQDsFUM3u/TcZH6b8M2UUrznX4Vex4srW0g/lr7jTaHOLtagi37m5syjn+hJCA3rZIANBxC+F4BnVgGrRKUfbsL3wWoFUow7066E+vESP2PI92kqk7gJWCjSHFI+QzAV5Oje+sg7u6cf04Zh5KAnLVaAgCwAzCN8CTgCWCTnGOvihXwPZOONSGuDK7G/136a8T+tyJ9kvscsGHEWKQcBgEXkv5c96OIsXwoIA4lATlrxQQAbAbsnYR/CV8n3ozYVvJBfO/jkcWEmYn1gEX4v0sx77AOJN3a7k5sJGDLiLFIsYYAfyL9Oe6vxHvkOQZ4ISAWJQE5a9UEAGAYcD7hX8JlwEk5x1523jK1kwqJMjs/wf89irm2GuDEFDF0/1veNmIsUowRwGTSfw/+S9wL7AUBsfTW/oFqtWSmlROAhuNJf7fUvV1Cddexx/Y0yd+3xwuKMUvj8JVAbrRriFuhL2RzrHlodKvKxgO3kv7zfwFYM2I8BwfE0l+7Ck3MzkQdEgCA/UhXEatnu4d4E7qqahK+9+wXhUSZvYNI9x06JmIMg7FdLtN+n5cBn4oYj+RjE+AZ0n/us4DNI8azBnZ9yCoB6MRWHUlkdUkAwCY/eYu5NGt1Lxp0NL73633FhJmLNBMC5xN3Nv5w4KYUcXRvp6E7rKrYi7AKqHOxidKxDABuDIgnaWtHm7hFV6cEAGBF4AbCv4yLgI/lHHtZ/JHk79MybMVAq5qILfPzfn/uJu5zzZGEDQd3YknEqhFjkrjasMeZS0j/GS/ACnjFdFJAPN42HS3PjqpuCQCoaFCIAdia/qTvz+3FhJmrz5Luu/PryHGMI33510Z7nrh3hxLHaHyJd7O2BNg/clx7YDuremN5ivSbuZ0e+RhqrY4JQMMnsFrpoUnA36lPVvo2fO/Nd4oJM1cDgH+T7rvz8cixrAzcmzKWRluE3WlqO+Fy2IbwR5cLiT/hcw1sSWmaWDbDRlDTTM5eiqpaRlPnBABsk5U0X+KerS5Fg76C732py7ae62A1I9KcDGPX6R+HjbyEfqdvwE7yUozGkH/oTco84j87H0z6pPf4br/nw6QbCbgo8vHUVt0TALClMGlqvPdsc2j9ZVWeyT7zqNf63Y+S7nvzDLakK6bRwM0p4+neZmCrHSRf6xDn85sN7JhBfL9IGc9k3jyydCRWitjze5bSerVFCqEEwIwkrJpWo7Vy0aDh2B1r0vfiL8WEWahLSfe9uYX4ydII4uyS2Ymtdoi5ZlyaG4TtopdmG92e7UXgrRnEeFTKeF7FKrQ28+0Uv++70Y+shpQALNeGXbxVNKi5d+B7Dz5XTJiFGgdMJd135jLiP3cfCJyZMp6ebQ5wLPWa9JqnbQmfv9Fo95NNvZL9SDfpr5O+R5IG4B/xeArNUwmmBODN9ifd89ye7X/Ytpit4sf4jr+uE3V2If1SrawmTcaqhtkJPAK8K6M462h14GzSz4rv2a4HxmYQ51ak3+L3lwl+/9b4HwVsHeXIakwJQHNbEFZpq9FeBLbPOfas3Efy455OvbPzz5Pu+9JBdvUl3kucxLbRrkHbC4cYAXwDmysT6zM5E3uMENtE7FyWJqb/YBsWJeFd6viF4COrOSUAvRsP/JPwP8pFwOH5hh7dSvjuIM8vJsxSSbsR1RKym0y6AfBgyriatXbspK0thpMbilXTTHtBbdYWAkdkFO9KwMMp43oZ39yRrZy//+qgIxMlAP0YBJxBnD/Ss8kmO8/DIfiO9aPFhFkqI0l/sV2MPW/NwijgDynj6q0tBX4HrJ9RzK1gJPYoZhpx3/snsRHLLIwl/QH/X/UAABRISURBVAqpZaRbfjjF0cezqY5K/j8lAMkcTVgJzkb7O9UsjXsuvuPU+nGzAek3oZpPtnUUPotvVUeS1o7dle2WYdxVswZwCtlslnMZ2RUhG4GtTkkb25dS9uvZ4bId2/ZdUlICkNwu2JBW6B/tk8CmOcce6jmSH9+DBcVYVu8k/czp14hfKKi7zbAZ47EvTJ3YzplHAWMyjL+s2rAyuRcTp9poz/Y6cFiG8Q8D/hEQ3/mknwN0uLOvDVL2IygB8FqXOM9Q5wDvyTn2tDbCd2w/KybMUjuS9N+V2cDbM4xtKPAT/DOwk7b52AVhN2y5VytbG5vY9zTZvJed2KZP62R4DCOwgj1p47uZsJoW3uXGWSbILU8JgN8o4CrC/5A7gG/lG3oqx+I7Li0Ra+5HpP+uzAP2zji+nUk/2StpexW4AJvkWNX5MD2thT3bv5XskqhOLJE6iWzrMIwlbFfJRwl/xLmFs8/dA/urNSUA6bRhF+8Yf/CXYll3WXn2vF+MJUjyZm3YkHDa78kibClfloZiVdmyGLbu2aYDvwcOxTYxqooh2PD+Kdhjjiwv+o32F7KvKbIicGdAjK8SZxLols5+67LfSCaUAIT5EHHKdpa1aNAgfJPYbi4mzMoYDtxG+u/JYuDAHOLclDhLYJO2duxv4Axsxcna2R9iYqOx0ZdvAtcRd91+f20q+ezFsAZhoz/ziFfv5J3OvreK1G8tKQEI91Z8S1d6a9Mo317sO+I7hm8UE2alhCyt6iTfR0fvw3a6zOuC1/PvYTJWgfLjWKnc2JsmdTcM2Bh4P/B1bIb9Q8Sr0Oe9oH6DfMqJb0b68tWdWFL6zojxfNzZ/7oR+25prfLMrWzuw05OfyJsOGoCcBPwKeC88LCi8D53viGTKFrL69gJ8ybSlUtuA07GSsh+GrtAZeVq4G/YPJCvYcPEeZnQ1fbt8d/nYResZ7Fh55ldbQb23oKNyi3p9jON59LDsWMY39VWwQrVrA2sFv0I/NqBC7H3eloO/e0DXE760sFLgQ9iy5tj8Ux4XQY8H7Hv2tEIQDxD8a+X762VpWiQZ8/v2ZQj5qpYFXiMsO/J38lvmd0obBLarMCY1d7cGhUVN078aYQ7krDaJu3Y45qY2rALetIYnojcf+0oAYjvaNKv++7eJlNs0aDR+E4QVxYTZqVNwldjoVm7h3yfmY/FRiBmB8atZhfRy8i3LsggbNlnSNwdWAIR29uccVyWQQy1ogQgG/sS506pyKJB+yeMsdE+XUyYlTcJ29o05HsyA1s/nadRWLL7aGDsdWxzsVG+PO/4wVZbhBT46cQu/sdmFN8Vzlg+mVEctaEEIDvrY1unhp4s5pD98q9mTnfGqYpc6U3AJpyFnphPJf9iOwOAD+Dfz72ObQpwIsWM7O1E+AZEy8hut8pt8S+p1CZUgZQAZGsctnQo9MSR5R9ebzzLgqbmHFsrWpU4ZXn/THGPjjbEViiEzCpvtbYIe75fVPGjNmzfh9C9TBZhKySyMBB/AaJ7M4qlVpQAZG8gcBrhJ5LFwOY5xbw6vmz8tznF1erGYfunh35XnsOK1RRlEHbBuxQb7i76Ipx3a8c20jmWfFdO9LQKcA3hxzOfbB8x/SBFTCdlGE9tKAHIz2FYFh3yh3hRTrF+zBnXwTnFVQdjgOuJcxH6EVa5rkjDsXoCF2PL9Iq+OGfVlmFLO4/FHukU7QDibF42EysTnZVjUsQ0n2pVjywtJQD52oGw/cBfySnOCx0xdaA/xtgGA+cQ58J0L+XZfXIgtnnLSVjNiBirZYps07Hh/cMo9k6/u5HAWcQ5vqewzcCycgSWqHrjOiPDmGpFCUD+Vies5nbW2vAlKf/LIaa6Op50J8iebQk2QTBkl7YsjMd2xTwFm0QYo6x2Vq0dm6j5G2zL2jJOQNsDeJw4x3sH9gghK2kv/vOBiRnGVStKAIoxDNsi1fvlz6M62ObOmH6YQ0x1diCwgDgn9SeAPfMN32UQVtv9MOx79TeKmVD4GrZnw9nYkP4epK+Wl4cVsVhjHf8VZFuGOO3FvxMr0ywpqEpbeSzC7iIeBb5P8qVbMUtu9sZb/vcfmUQhDVdgid/l2KYtITbAPq/fAF/BivmUyTLskUXPGd7DsHoJa3e1iVjp3vEsL+07Dhv+puvfxtyHxgUdbCLtHOxmZhbLywg/jyUaU7r+rcrNzgDsPPJj4jyC6MTORydjj/aycAT2eCvNctXHsQnVEolGAIp3AMkmR80D1sshnr8liKXRFpLPhiVi8yxuIN5d3kzsWXzRkwQlnU9gBaBifR9ex+o5ZCnkzn8htvGaRKQEoBzeQt/V4JaR3Rrc7obgW7alzX/yNRB7lh9zD/rHyGfLWYljIrYBWazPvxMbidwk47i/Sdj39lMZx1dLSgDKYww29NZzNOBh8lvTvRu+P0qtxS3GQcRfXz8Zm6Ev5bQyNtQfWtCnZ7uY5Y9OshI6P+HHGcdXW0oAymcYsCO2ZWzetcJPxveHqQtGcdbBXz0tSbsB25RFymE8Vl0xdg2FBdgqk6x9LzDOC7GVSZIBJQDS3R9J/n14lfzrzssbDQK+iz0iinlx6ACuRs9ci7QSViEvi0qKd2B7lWTtCMKG/S/BHntJRpQASHcXkfz78IeCYpQ32x7bOTL2haITG2U4AN2F5WU9bCOuecT/LJdhc0gG53AcIRP+dPHPiRIA6e5Ykn8fDisoRmluDLa8KuYEwe7tYeAotOojK3sC1xKn8FOz9gz2aDEPoRf/p9HFPxdKAKS7cSRbWvQ8MKKgGKVvuxGvGlyz9irwM/LbmKqVrQx8nvCtoJN+bpvlcEyhF/9G+34OsdaeEgDp6QD6nmk8BxtylvIajK3QCN18qr/2X2wi2fh8DqslDMCKbf0RK0yU9YW/e3uFbJOAWBf/Rvt8P/2tB3wY+Abwa2z3yT8C5wE/BT4N7I5GrXqlBECa2R1bG9zzO3AXsF1xYYnTZsC/yf7CsgC4EvgI9ihC3mggNsT/K+Al8r3oN0sCtszgGI8im8cXPZOAHYAzgRccv2MxcGNXjOMiH3elKQGQ3rRhf2zHYHd5u6KJYFXUBnwIeJZ8LjCLsD3oD6Peu0QOB/bF1sC/QrEX/Z7tNfwlv3szAFummNXck0YS8AHsBiT0d83FHmGtHun4K00JgEg9DMESudjryftrD2Mzz/emfLsRxrYucDQ2DD2H4i/0fbV2bMOlkBGbjYDrS3AsaROBL5PPiojSUgIgUi+rYXelsSvKJT3p/h0rOPUOyr3DXn8GY3NhjseWxL5IMRey0M9xBvBFfNUA1wZ+Cywt6JhjtrvJpyZCKSkBEKmndYDfUexJvB2bAX8u8AVgH8o5NDsGexx2FPBz4BbibdGctt2H7Q+yKTA9wu9bAPwVq7m/I7b74rCuY98Em8PwLWziZ5bD/UW02dgjzpbW7PntCSTfXnEWmu0r0mrWw2ZRf4TybBk+C0sMnsW26J2CbdM7FbvTXhy5vwHAqizfbnhS17/rYOW4J0XuL8SDwLexSZedXf9tI+CflDN5qopFwMHY/JWWpARARHqzPnY+OIzy13iYj41Izur27wKWJwav88b97MdgM/EHdv3fI7Fz2Yrd/i2724GfYCWaO5r870oCwi3FJsxeXXQgedEjABHpbiz2XPt5ih+arXtrx6oD7tTnJ7bcRhQ3FyFJ+08JYuivLQbem/D9rjwlACLSzBBsNOBuij8p163NxEZm1+73U3qzTShnEnAR9pip6DiStNokAUoARKQ/m2JL+cq2nr2VWju2FXOMRzCrA/eX4Jga7SxsnsUhJYglaVsCvM/7xleNEgARSWooNlFqMvG3IK5rexr4JrCW43NIYgVsyWWRx7YM+Hq3mLJKAF7ARhhOxVYqnI0VDQpdrdDyIwFKAEQkjRWxu9VrKaamQJXbFGzL353JtrpmGzafI+89Bzqx0aJ39IgndgJwK7b51YBejn8ClhTMD+ijpZMAJQAiEmolbI38dRS/Pr6s7SHgB8BWKd/jEBthn00ex9kBXACs0iSOmAnAiSRPniYB9wb01bJJgBIAEYlpOFb291Ras2hM0jYDKwl8NPGH99N6H9lN6uzARoPe1kf/sRKAL6Q49pGEPRJpySRACYCIZGlN7FHBWdjEtFadOzANK87zRWzHzIEx3ryM7AVcAswj/LhfxT7bzRP0GyMB+GrAcQ9DScAbKAEQkTyNxkYIvgn8GZsEV7VRglnAzdi2tIdiFQOraCRwIHAG8ADJ5nIsAG7DRnj2xVc9MjQBuDXtgXYzBBupSBtDZVcHqBKgiJTRSGyp4ebAW4ANsee2k4BRBcW0FJtdPhV4BtvV8KGuNq2gmLI2CHvP1wLGYZ/LUuyiPxsrzdyoMZDGIdjIQ1p7YdUOQw3Dqv31nKSY1BKsYuCfI8SSm7LU+RYR6W4+9mz67ib/23iW1+efwPLSvd3L+I5l+VbDY7FZ4YOwu70FXf99LssfP7yGlQuewRtLCs/ELnKNPQfaox1hNSwDnupqZfMqcFOk37UIeA9wBbB/ip8fAlxOC5QN1iMAERHJQ8gjgMsyiKdWcwJ6WyspIiJSZs9l8DsbIwF/SfnzjZGASswJUAIgIiJVND+j37sEOAirbpnGYOAPVGAkQAmAiIhUUbPCQrHUYiRACYCIiFTRphn//pYfCVACICIiVbQTtsIjSy09EqAEQEREqmgwcGQO/bT8SEB3WgYoIiJ5CK0E+Aq2zXEeWm6JoEYARESkqlbGKgnmsc/CImwoP+1IwBBsM6jSJAFKAEREpMreCfyS5FsBh2i5JKAnPQIQEZE8xNoOuBPbgTCPJABa8HFAgxIAERHJQ8wEoBM4h/xGtltyF0ElACIikofYCYBGAgIpARARkTxkkQBoJCCAEgAREclDVgmARgJSOpbkQc8pKEYREam+w8guAVASkMLhJA+4HS0lFBGRdI4j2wSgEz0OcDmwSVB9tUmFRCkiIlV3GtknABoJcNg2QYDd2/7FhCkiIhU3meTXmhccr9VIQEpjnYGeVkSQIiJSaUOAeSS/1vwWOMXxeiUBKb3oCPIp8htaERGR1rA/vgviF7p+TklAxi5zBrlH3gGKiEilXYnvOrNtt59VEpChY5wBpt0YQURE6uct2CqypNeYmbx5xz8lARlZG+hwBrhfXsGJiEileWfJX9LL71ESkJGbncFNwfZmFhER6c3H8F/8+rrBVBKQgSNTBHczdoAiIiI9bYFv5n8nMA0Y1M/vVRIQ2XDgpRTB/Q6tChARkTdaF98Ks0b7csLfryQgshNTBncRMDTr4EREpBK2Aabjv5bMBEY7+lESENFo0mVsncA9wMZZBiciIqU2APgMsJB015EvpehTSUBEHw4IbjFwKrBSlgGKiEjp7AL8h/TXj4eAwSn7VhIQ0XUBwXUCc7E3dA80SVBEpFVNwOrI3E7YNWMZlkCEUBLQj6ST9VYF7sU+3FALgPuBJ4AZ2ActIiLVNBJYAyvus2Gk3/kt4NsRfs8pJJ9E2MxvsYSmI0Is/RkCXEH6DfaWAh8Cro4WUTd7YFlGSEalpqampqbWV5tM3DvvnwXGU7WthA9I2lnP0op9mQI8DbwfLfMTEZH4HgTejU0ajGUydmHdOeXPvw0b4fgrdpHN0jLgj8BWpBtNGYg9CrgFeC7Jiz0exJ7n74uSABERiecJYC/s0XBsNwLjgB1S/vzW2KPwv0WLqHftwFXY5kfrp/j5wdgowCXY9bpX3gQA4A5sNGB/8psgISIireu/wN7Ayxn2MZmwJOBt5JcELAP+RPokYARWe+EC+hi1SJMAgE3iuxd4Fza0IiIiksZV2LD17Bz6qtPjgEnAC8D/Isb0BmsRvtxDTU1NTa1+bSlwEsU8Tq7LxMBX6KOSYtoRgIbXgfOBWcBOqPyviIj079/Ae4ErC+q/LiMBI7GRldtjB9XTROBctFRQTU1NTa15exz4COWZRF6HkYAXCL/ZT2xt4OfAqykCVVNTU1NrrdaB3fF/mHJOHP8pYceXdxJwc4oY984pvv9vCPAe4DxgaoqA1dTU1NSq2RZjF6qvYdsAl12VkoCV8V9Tz2r2i/IchlkH2BJ7hrEOMB4YQ45DEyIiEt18YB623e8TwGPYbrALigwqhSqVDf4gcLnj9Y8Bm2QUi4iISOVVZSSgDXjAGdv4HOISERGprKrsIvhNZ1xpCyCJiIjURhVGAnZ2xvThjOMRERFpCWUfCVjbGc/RGcYiIiLSUso8ErCiM5bjM4pDRESkJZV1JGBTZxyfyCAGERGRllbGkYD3O2M4KHL/IiIitVC2kYDfOfvfJmLfIiIitVKWkYAVgdcc/bZjhfdEREQkpTIkAT929nl/YH8iIiJCsUnAftgWwZ7+fpqyLxEREekhNAm4ABjq7HNvfEP/jfb2dIcoIiIizYQmAXcAWyXoZyRwMrA0RR9PkO/GfyIiIrUQmgR0AFcDHwXWBAZ1/d4xWLnfHwAvBfx+VQAUERHJSGgS8P/au1ucCIIgAKOfJQSLAweeK3AAuAtBcAYOAgmSO3AFEgw4/jwIFGIQZIPYzc7sbsJ7SYkxk2lV3dXT1bMTgs+R3vXY4tsMAMAClu0TMEWcTDpiAKAatxKwbFxPPFYA4JdNmAQ8pPEPAKzcOrcD3qvD6YcIAPzlsvUk/3mOFQIAEzpr6MO/iuT/mJU/AGyM4+q5aZP/bcMFQQDABtltuL537GrAS0MDIZ3+AGCDHVU3LX6Zz2y8VhfVzmo/HwBYxl51Xt1VX82X9N+qq+q0kbr7KRsAwPpsN1QGDqr9n+et6qPhr/6n6r7hbD8AAAAAAAAAAAAAAAAAAAAAAAAAAAAAAAAAAAAAAAAAAAAAAAAAAAAAAAAAAAAAAAAAAAAAAAAAAAAAAAAAAAAAAAAAAAAAAAAAAAAAAAAAAAD/yTe+kgKCuJJUlwAAAABJRU5ErkJggg==;" parent="1" vertex="1">
          <mxGeometry x="510" y="330" width="50" height="50" as="geometry" />
        </mxCell>
        <mxCell id="LnJRWbe0wSDpx0MPoHch-26" value="Исходный код" style="text;html=1;strokeColor=none;fillColor=none;align=center;verticalAlign=middle;whiteSpace=wrap;rounded=0;" parent="1" vertex="1">
          <mxGeometry x="505" y="380" width="60" height="30" as="geometry" />
        </mxCell>
        <mxCell id="LnJRWbe0wSDpx0MPoHch-27" value="&lt;span class=&quot;HwtZe&quot; lang=&quot;ru&quot;&gt;&lt;span class=&quot;jCAhz ChMk0b&quot;&gt;&lt;span class=&quot;ryNqvb&quot;&gt;Обученная модель машинного обучения&lt;/span&gt;&lt;/span&gt;&lt;/span&gt;" style="text;html=1;strokeColor=none;fillColor=none;align=center;verticalAlign=middle;whiteSpace=wrap;rounded=0;" parent="1" vertex="1">
          <mxGeometry x="738" y="399" width="86" height="30" as="geometry" />
        </mxCell>
        <mxCell id="LnJRWbe0wSDpx0MPoHch-31" value="" style="shape=image;verticalLabelPosition=bottom;labelBackgroundColor=default;verticalAlign=top;aspect=fixed;imageAspect=0;image=data:image/png,iVBORw0KGgoAAAANSUhEUgAAAgAAAAIACAYAAAD0eNT6AAAABHNCSVQICAgIfAhkiAAAAAlwSFlzAAAN1wAADdcBQiibeAAAABl0RVh0U29mdHdhcmUAd3d3Lmlua3NjYXBlLm9yZ5vuPBoAACAASURBVHic7d15vKdz3cfx12dmzAxjKUsYQtbJbZmIhGxpaDKikDtLcVO4udONbK2ERFEqpdJCi5AsoW5L0pR9J2vZhrHvjGXmc//x/R6O45yZc87vd12fa3k/H4/zIPH7vB2/6/p8ft/r+n0vc3dE2sjMDFgX+DgwEVgKWBJ4CXgceAi4GDgfuNZ1sNRC/u+6JjAZ+CAwHlgYmBt4ELgfuAE4E/i7/rtKW5ne+9I2ZjYG+DywD6k5DMadwBHAr9x9ZlHZZPjMbCSwA3AosOIg/7GHgO8Bx7n7jKKyiVSRBgBpFTP7GPAtYJlhvsSdwCfd/dquhZKOmdmawK8ZfOPv637gAHf/XfdSiVTbiOgAImUxs6+Sln2X6eBlVgSmmtke3cgkncv/LaYy/OYP6fLPaWZ2RHdSiVSfVgCk8fI14R8D/9Xllz7I3Y/u8mvKEJjZgcA3uvyyJwO76d4AaToNANJ4ZnYwcGQBL+2kywG/LeC1ZQ7MbHvSsr8V8PKHuPtRBbyuSGVoAJBGM7MPAn8CRhZU4mXgP9z9noJeX/phZssBtwJjCioxE9jM3S8u6PVFwukeAGksMxsF/Ijimj+kBnRMga8v/TuG4po/pPfMj/J7SKSRNABIk+0MLFdCna3NbIMS6giQf9dbl1BqOdJ7SKSRdAlAGsvM7gKWL6ncn919s5JqtZqZ/QmYVFK5u919hZJqiZRKA4A0kplNAP5ZctlV3f2Wkmu2ipmtAtxcctl3u/vtJdcUKZwuAUhTRXwa/3xAzbaJ+B1rZUcaSQOANNXaATV3MLNFA+q2Qv7d7hBQOuK9JFI4DQDSVAsH1BwD7BVQty32otg7/wcS8V4SKZwGAGmqqJP2nmY2Nqh2Y+Xf6Z5B5TUASCNpAJCmei2o7iLATkG1m2wn0u82gp7+KI2kAUCa6v7A2p/Pzx+QLsi/y8gbLO8LrC1SGA0A0lSRA8C7gc0D6zfN5qTfaZTI95JIYTQASFNdHlz/f4PrN0n07zL6vSRSCG0EJI2Ubxp7DJg3MMZq7l72pjWNYmarAjcFRngeWMTdZwRmECmEVgCkkfIJ+7zgGNGfXJsg+nd4npq/NJVWAKSx8kNjLguM8DKwjLtPD8xQW2a2GHAvMd/977Ghu/81sL5IYbQCII2VT9zXBkbQxkCdidr4p8e1av7SZBoApOm+HVx/TzObOzhD7eTfWdTGPz2i3zsihdIAIE13OvBgYP2F0cZAw7ETsTvwPUh674g0lgYAaTR3fxX4XnAMbQw0BBXY+Afge/m9I9JYuglQGs/M3g48AIwLjPERdz8/sH5tmNlk4I+BEV4A3unuTwVmECmcVgCk8fKJ/GfBMaK/zlYn0b+rn6n5SxtoBUBawcyWB+4gduhd3d0jN7WpPDNbDbgxMMIsYCV3vzswg0gptAIgrZBP6OcGx4j+ZFsH0b+jc9T8pS20AiCtUYGNgV4BltbGQP3LG//cB4wOjKGNf6Q1tAIgrVGBjYFGA3sH1q+6vYlt/tr4R1pFA4C0TfTmLntoY6C3yr+TPYJjRL83REqlAUDaJnpjoIWATwXWr6pPkX43UbTxj7SOBgBplYpsDLSvNgZ6Q/5d7BscQxv/SOvoJkBpnYpsDDTF3aMfV1wJZrYFsd/Q0MY/0kpaAZDWqcjGQNFb3VZJ9O9CG/9IK2kFQFqpIhsDvcfdbwisH87MJgLXB0bQxj/SWloBkFaqyMZA0Z98qyD6d6CNf6S1tAIgrVWRjYGWcfeHAzOEMbPFgXvRxj8iIbQCIK2ljYHCaeMfkUAaAKTtojd/2cPM5gnOULr876yNf0QCaQCQtoveGGhB2rkx0KdI/+5RtPGPtJ4GAGk1bQxUPm38I1INuglQWq8iGwNdRNqQpg3GAZsG1tfGPyLAqOgAIpHyp9FlSXsCrBEYJbIhts0dwLJmdp3rE5C0mFYApHXyJ/5JwIeBzYFFYxNJkEeAC4ELgD9rRUDaRgOANF7+lD8RmExq+usAI0NDSdXMBK4gDQPnAzdodUCaTgOANJaZTQL+k/Qpf7HgOFIv00mrA79x9z9HhxEpggYAaRwzmwJ8CVgrOos0wtXA4e4evXW0SFdpAJBGyMv8W5Ma/8TgONJMNwCHA2fp8oA0gQYAqTUzGwFsC3wRWCU4jrTDLcDXgdPdfVZ0GJHh0gAgtWRmI0nX9w8FJgTHkXa6HTiCdJ/AzOgwIkOlAUBqx8w2B04Alo/OIgLcDezj7hdGBxEZCm0FLLVhZmPM7DjS17TU/KUqlgfON7PjzGxMdBiRwdIKgNSCmb0b+A2wenQWkdm4EfhPd/9ndBCROdEKgFSemX0WuBY1f6m+1YFr83tWpNK0AiCVZWYLAj8hfb1PpG7OAnZz9yejg4j0RwOAVJKZbQycAiwRnUWkA9OAndz90uggIn3pEoBUiiVHkh6Pq+YvdbcEcJGZHZk3qxKpDK0ASGXkE+RJwG7RWUQK8BPgM9pFUKpCKwBSCbn5/wA1f2mu3YAfaCVAqkIDgFTFd4E9okOIFGwP0ntdJJwGAAmXN/fZOzqHSEn2zu95kVAaACSUmR0D7BudQ6Rk++b3vkgYDQASxsyOAvaPziESZP98DIiE0AAgIczscOCg6BwiwQ7Kx4JI6fQ1QCmdme0PaPlT5A0HuPux0SGkXTQASKnMbA3gCmCu6CwiFfIqsI67XxcdRNpDA4CUxszmJj3U593RWUQq6J/Amu7+UnQQaQfdAyBlOho1f5GBvJt0jIiUQisAUgozmwRcCGgXNJGBObC5u/85Oog0nwYAKVx+rO/NwPjoLCI18BCwqh4jLEUbFR1AWuGHNKv5vwxMB2ZEBxEAxgKLAWOig3TJeOBE4BPRQaTZtAIghTKzHYFTonMMw/OkSxY3kz6RTev5o7s/HhlM+mdmC5Mevzu+1x9XBTYH5g2MNlw7ufup0SGkuTQASGHMbCngJmCB6CyD9DBwDnA2cIm7vxycR7rAzMYAmwAfBbYEFo9NNGjPAKu5+/3RQaSZNABIYczsXGCL6Bxz8DxpufUM4Go9q73Z8qN41wK2Afak+isD57n7lOgQ0kwaAKQQZrY6cEN0jtl4FTgJOMzdH40OI+Uzs3cAXwE+Q7Xvh5ro7jdGh5Dm0T4AUpQq7/N/OrCyu++t5t9e7v6ou/838B/A76PzzEaVjyWpMa0ASNeZ2bLAncDI6Cx9TAX+192vig4i1WNm7weOA94XnaWPmcCK7v6v6CDSLFoBkCIcQPWa//eBjdT8ZSDu/g/gA6RLQ1UyknRMiXSVVgCkq8xsMeDfpO9mV8FrwD7u/sPoIFIfZrY3aTWgKvcGzADe5e7To4NIc2gFQLptX6rT/J8AJqn5y1C5+/dI+wdUZTe+saRjS6RrtAIgXWNmCwD3A/NHZwFuA7Z093uig0h9mdlywLlU4yFWzwJLufsz0UGkGbQCIN20F9Vo/vcDG6v5S6fye2gj0nsq2vykY0ykK7QCIF1hZmOBe4FFg6O8AKyn701LN+V9LaYC44KjPAIs4+56DoV0TCsA0i0fI775O7Cjmr90W35P7Uh6j0ValHSsiXRMA4B0y2bRAYAvufsfokNIM+X31peic1CNY00aQJcApCvM7GHSI1mj/MbdPxlYX1rCzH4N/GdghOnuXpcHGkmFaQCQjpnZakDksvt0YHl3fyEwg7SEmY0D7iZ24F3d3W8KrC8NoEsA0g2TgusfpuYvZcnvtcOCY0Qfc9IAGgCkGyJPRncBPw6sL+30Y9J7L4oGAOmYBgDpiJnNTdo/Pcoh7v5aYH1pofyeOyQwwgfysScybBoApFMfIG7r36vc/Yyg2tJy+b0X9XCpscQO3tIAGgCkU5FLkQcG1haB2PegLgNIR/QtAOmImd0MrBJQ+g53nxBQV+RNzOx2YKWA0re4+6oBdaUhtAIgw2ZmixPT/AHOCqor0lfUe3GVfAyKDIsGAOnEGoG1teOfVEXkezHyGJSa0wAgnVg2qO5DxN18JdLXVaT3ZISoY1AaQAOAdCLq5HO26+YVqYj8Xjw7qLwGABk2DQDSiaiTj5b/pWqi3pMaAGTYNABIJyJOPq8BlwbUFZmdS0nvzbJpAJBh0wAgnVgmoOZ0d381oK7IgPJ7cnpA6WUCakpDjIoO0JuZLQBsCCwNLAG8DXgUmEbad/tv7v5KXELpYWYjgHkDSj8cUFNkMB4Gliy55rxmNsLdZ5VcV/phZnMB6wMrAuOBRYGnST3sPuBSd38uLuGbhQ8AZjYS2Bn4JKn5zzWbv/1ZM7sQOMndLy4jnwxoXFDdqLutReYk6r05DqhMU2kjM1sf+AwwhfTBdSCvmNnFwKnAb6MHt9BLAGa2BXATcDKwKbNv/gDzA9sBF5nZhWa2esERZWBRA4BWAKSqot6bUcdi65nZamb2R+ByYCdm3/wBRgMfBn4F3GBmHyk44myFDABmNsrMTgDOBVYe5stsBlxtZrt3L5kMgVYARN4scgVASpZ7zzXA5GG+xKrAeWZ2gpmFrMaXPgCY2XzABcDeXXi5uYCTzOy4LryWDI1WAETeTCsALZF7zknMedV6MPYGLsi9sVSlDgBmZqRrH5t2+aX3NbPIZ3O3UdSzyJ8IqisyJ1HvzahjsZVyr9m3yy+7KfDrfHN1acpeATgM2LKg1z7czKYU9NryVhZUVzsASlVFvTejjsXWyT3m8IJefgvgqIJeu1+lDQBmthpQ5Kf0EaTLAVoOExGRrsq95SSK7ZsHmNmaBb7+m5S5AvDNEuotBhxQcA0REWmfA0g9pkgGfKPgGq8rZQAws3VJd+2XYf+ImylERKSZck/Zv6Rym+aeWbiyVgC2K6kOpDtiyxo2RESk+Taj3G9blNIzyxoAtiqpTo+ibjQUEZH2KbunlNIzCx8AzGwp0t7+ZfpAyfVERKS5yu4pS+feWagyVgAWL6FGX+PzngMiIiLDlnvJ+IDShffOpg4Ao4FFAuqKiEizLELqKWVrxACwQAk1+vP2oLoiItIcUb2k8N5ZxgAQtRSvSwAiItKpxvaw0McBi4iISAwNACIiIi2kAUBERKSFNACIiIi0kAYAERGRFtIAICIi0kIaAERERFpIA4CIiEgLaQAQERFpIQ0AIiIiLaQBQEREpIU0AIiIiLSQBgAREZEW0gAgIiLSQhoAREREWkgDgIiISAtpABAREWmhMgYAL6GGiIhIkxTeO8sYAF4uoUZ/5g+qKyIizRHVSwrvnWUMAC+UUKM/iwbVFRGR5ojqJYX3ziYPAO8IqisiIs0R1Us0AHRAA4CIiHRKA0AHdAlARETqSpcAOqAVABERqSutAHTg+RJq9EcrACIi0qmoAaDw3qkVABERkYHpEkAHXgJeLaFOX1oBEBGRTkV8mHyV1DsLVfgA4O4O3Ft0nX4sZGYjA+qKiEgDmNkIYOGA0vfm3lmosp4FcHdJdXqL+g8nIiLNsDAxz8wppWc2eQAAmBhUV0RE6m/1oLoaALpg06C6IiJSf1E9RANAF3wwqK6IiNRfVA9p1ABwV0l1+ppoZgsF1RYRkZoyswWB9wSVb9QAcC8ws6RavRmwcUBdERGpt42JuQFwJvDvMgqV8i/n7q8C95VRqx+6D0BERIYqqnfcn3tm4cqcbq4rsVZvug9ARESGKqp3XF9WoTIHgKkl1upteTNbKqi2iIjUTO4ZKwSVL61XljkA/L3EWn1pFUBERAYrsmc0cgC4nhL2Nh6A7gMQEZHBihoAXqLEy+WlDQD5poaryqrXx4fMbExQbRERqYncKyYFlb+6rBsAofyvOERdBlgE2DGotoiI1MeOpJ4RodR75coeAKJuBATY38wssL6IiFRY7hH7B0YotUeOKrMY8A/ASRv0lG0CMAU4J6B2JeRdEcf3+ZlvmC83vlu5hmgnM1snqLbI7ETdNb6XmW01zH/2OeChXj8Pu/vjXUtWP1NIvSKCk3pkaayERw6/uaDZVcBapRZ9w9/c/QNBtUuXn2W9LvBRYCtg+dhEIlID/wL+kH+muvus4DylMbPLgfWDyl/j7qX2xohtDs8IqNlj/TZ8ejSzd5rZicDDwOWkJS01fxEZjGWB/wX+Ckw3sxPN7J3BmQqXe0NU8wc4veyCESsAywL3lFr0zc5y948F1i+Mmb0NOBj4H2BscBwRaY4ZwHeBo9z96egwRTCz3wNbB0ZYzt3/VWbB0gcAADO7Flij9MLJLGCCu0c9obDr8o0rnwO+BCwYHEdEmutJ4HDgOx7RPApiZisAtxOzKg5wvbuX3hOj/mVLX+roZQSwX2D9rjKzeYGzgONQ8xeRYi1IOteclc89TbEfcf0Qgnpi1ArAcpT0vOMBzACWdvdHAzN0zMzeRfpWwyrRWUSkdW4BtnT3Uh5dWxQzewfpabWRl01XjFiVDpl43P0e4IaI2tlY4IjA+h0zs/WBq1HzF5EYqwBX53NRnR1BbPO/KeqSdOuWPHrZzcw2C84wLPl61TnAQtFZRKTVFgLOyeek2sk9YLfgGGG9MOQSAICZLQHcS/mbEfX2ILCKuz8TmGFIzGwB4EpgpegsIiLZHcD7anguvQVYMjDGTOBd7v5ARPGwFQB3nwacGVU/W5J0Q0stmNlI4DTU/EWkWlYCTsvnqLo4jtjmD+lr6SHNH2IvAUD6Xmm0XczsI9EhBulQoJaXLUSk8TYjnaMqL5/zd4nOAXwnsnjYJYDXA5hdA6wZGiLtgb2Kuz8VnGNAZrYY6ZsT46KziIgM4AVgeXefHh1kIGb2dtLSf9TzTHqEfPe/t+gVAKjGKsB4giexQfgaav4iUm3jSOeqKvsO8c0fKtBzqrACMAa4H3hHaJDko+5euacFmtkE0sRap+trItJOM0krqrdHB+nLzLYEzo7OATwKLOXuL0eGCF8ByL+AH0XnyH6UH5lbNV9FzV9E6mEk6ZxVKfncXpVec1J084cKrAAAmNnipEdQVuEBNlcBm7r7c9FBAMxsbuBxYJ7oLCIig/QisLC7vxQdBMDM5gMuAtaOzkLaiXZZd384Okj4CgBA/kVU4V4ASG+Q83LjrYJJqPmLSL3MQzp3hcvn8nOoRvMH+G4Vmj9UZADIvgFU5S78DYDfm9no6CDAR6MDiIgMQ/i5y8zmAs4ANgqO0uMpUq+rhMoMAPkreEdF5+hlc+A3kRtb5NpTouqLiHRgSgXOn78CJkdl6MdRVfq6eSXuAehhZmOBu4jfnam3U4GdI559bWbvBm4ru66ISJes7O7/LLuomRnwU6qx2U+PB4EV3H1GdJAelVkBAMi/mC9H5+hjR+AHQbWr8F1VEZHhijqHfYdqNX+AL1ep+UPFBoDsF8Ct0SH62MPMjgmoqwFAROqs9HOYmX0d2KfsunNwK6m3VUrlBgB3nwUcGJ2jH/ub2TdLvqalAUBE6mzxsgqZ2Yjc/Kv4PIIDc2+rlMoNAADu/kcCn5E8GwcAfzazRUuqpwFAROqslHOYmS0CXEA1m//puadVTiUHgGxv4InoEP3YBLjezDYoodb8JdQQESnKAkUXMLP1gOupyL4DfTxB6mWVVNkBwN0fBf4nOscAFgcuMbOD8t2mRSnytUVEilbYOcySA4C/AEsUVadD/5N7WSVVdgAAcPdfA+dG5xjASNK+Beea2YLRYURE2iI/0vds4JvAqOA4Azk397DKqvQAkO0BPB0dYjY+AlxnZlXZZlJEpLHMbC3gOqq9SdrTpN5VaZUfANz9IWC/6BxzsDRwuZntU/AlARGRVspL/vsAfwOWCY4zJ/vl3lVpVV06eRN3P9nMPk61tnTsazTpgUa7mdmh7n5edKBhesbd3xYdQgbPzK4A3ldy2SvdfZ2Sa0oHzOxpSrgprwhmtgVwBLBadJZBON/dT44OMRiVXwHoZUfSI4OrbjXSfQFTS/qmgIhII5nZBmY2lXQvWB2a/79IvaoWajMA5AcobE16znQdrAtcZmYXmNka0WFEROrCzNYwswuBy0jn0jp4Edi6Sg/7mZPaDAAA7n4T8F/ROYZoc+AaM/udma0UHUZEpKrMbCUz+x1wDbBZdJ4h+q/co2qjVgMAgLv/Fvh2dI4hMmBb4FYz+4mZrRgdSESkKsxsRTP7CWnP/G2p3x4o3869qVZqNwBkXwAujQ4xDCNJKxh3mNmNZval/MhfEZFWyZ/2DzWzG4A7SOfGMp+10i2XknpS7dTiWwB9uftMM/sEaZloqeg8w7Ra/jnMzG4DzgDOcPebY2OJiBTDzCaQPuFvC6waHKcb7gc+4e4zo4MMRy0HAAB3f8zMJgGXA4tE5+nQysCXgS+b2Z3kYSA2kohI58xsZVLD3wZYJThONz0GTHL3x6KDDJe5e3SGjpjZRNJe0LX8fusczKT8JTHtA1Az2gdABiNoH4BXSHukNM0zwEbufkN0kE7U9R6A1+X/AJOpz9cDh6KO18NERHo0sfm/CEyue/OHBgwAAO7+d2Ar0rQpIiJShFeArXLPqb1GDAAA7v5/wPakZXMREZFumglsn3tNIzRmAABw97OAXYBZ0VlERKQxZgG75B7TGI0aAADc/RTSHaczorOIiEjtzQC2zb2lURo3AAC4++9J20g+HZ1FRERq62lgs9xTGqeRAwCAu/8V2ACo/DOZRUSkch4CNsi9pJEaOwAA5F313g/cHp1FRERq43bg/U3fmbXRAwCAu98PrA9cEZ1FREQq7wpg/dw7Gq3xAwCAuz8BbAL8IjqLiIhU1i+ATXLPaLxWDAAA7v6Su3+a9DXBJu4aKCIiw/Mi8Gl3/7S7vxQdpiytGQB6uPvPgbWA24KjiIhIvNuAtdy9dSvErRsAANz9NtIQ8PPgKCIiEucXpObfyg+ErRwAANz9RXffBV0SEBFpm95L/q09/7d2AOiRLwmsDlwUHEVERIp3EbB6G5f8+2r9AADg7ne7+4eAHYFHo/OIiEjXPQrs6O4fcve7o8NUgQaAXtz9V8AE4CeAB8cREZHOOemcPiGf4yXTANCHuz/l7ruTthFu5Y0hIiINcRtpO9/d3f2p6DBVowFgAO7+N2AisD/wWHAcEREZvMdI5+6J+Vwu/dAAMBvu/qq7fwt4F3AQ0IrdoUREauoJ0rn6Xe7+LXd/NTpQlWkAGAR3f8HdjyYNAocCWkoSEamOp0jn5ne5+9Hu/kJ0oDrQADAE7v6cux8JLAN8hfSsaBERifE06Vy8jLsf6e7PRQeqEw0Aw+Duz7r7YcBSwF7ATcGRRETa5CbSuXcpdz/M3Z+NDlRHGgA6kFcETnT31YF1SdtKzgiOJSLSRDNI59h13X31fO7VJ/4OaADoEnf/R37a4Hjg88DtsYlERBrhdtI5dXzeuvcf0YGaYlR0gKbJ3zU9HjjezN4HbAlMAVYNDSYiUh83A+cC57j7ldFhmkoDQIHyG/dK4FAzW4Y0CEwBNgRGxyUTEamUV4DLSE3/XHe/NzZOO2gAKEl+Q58AnGBm8wObAZuSHku8CjBXXDoRkVK9CtwCXE16OM+fdCNf+TQABMhv9NPzD2Y2lvREwrWA9+Y/TkD3aIhI/c0iXce/Grgm//FGd9cN08E0AFRAPhB6LhcAYGbzAr8i3UMgIlJH5wA7uPvz0UHkrfQJs6LyAaMdB0Wkzp5S868uDQAiIiItpAFARESkhTQAiIiItJAGABERkRbSACAiItJCGgBERERaSAOAiIhIC2kAEBERaSENACIiIi2kAUBERKSFNACIiIi0kAYAERGRFtIAICIi0kIaAERERFpIA4CIiEgLaQAQERFpIQ0AIiIiLaQBQEREpIU0AIiIiLSQBgAREZEW0gAgIiLSQhoAREREWkgDgIiISAtpABAREWkhDQAiIiItpAFARESkhTQAiIiItJAGABERkRYaNdx/0MzGAmO7mEXeanR0ABGRDow2s7dFh2i4Ge4+Yzj/4KAGADNbEJgCbAWsDCwGzD+cgiIi0hr/mX+kQGb2LDAduA34A3Cuuz85p39utgOAmS0NfBXYcU5/r4iIiISYP/+sSPqg/pqZnQp81d3vG+gf6vceADMbaWZHAncAn0bNX0REpC5GkXr3HWZ2pJmN7O9vessAYGYLAH8EDgbGFJlQRERECjOG1MvPMbP5+v6fbxoA8t9wObBZOdlERESkYJOBy8xsXO+/+PoAYGYG/ApYteRgIiIiUqz3AKfmXg+8eQXgYNKd/iIiItI8WwEH9fyPEQBmtjhwSFQiERERKcWhuee/vgLwNWDcwH+/iIiINMA4Us9nRL4pYOfYPCIiIlKSnc1s3AhgEvq6n4iISFuMASaNALaITiKV4tEBRESkcFuMACZEp5BKsTn/LSIiUnMTRgBLRKcQERGRUo0fQXqyn4iIiLTH4iOAZ6NTiIiISKmeHQFMi04hIiIipZo2Arg/OoVUir4FICLSfPePAC6OTiGVom8BiIg038UjgHOjU4iIiEipzh3h7v8GropOIiIiIqW4yt3/3fMwoINDo4iIiEhZDob8NEB3vwQ4PzSOiIiIFO383PNffxwwwGeA6TF5REREpGAPAbv3/I/XBwB3nwZ8DHglIJSIiIgUZwawlbs/1PMXeq8A4O7/ALZCuwOKiIg0xTPAFHe/uvdfHNH373L3C4D3A/eUFExERESKcQ+wjrtf1Pf/eMsAAODutwGrAV9EqwEiIiJ18yyph6/m7rf39zf0OwAAuPuL7n4EsBxwAPA3YFYRKUVERKRjs0i9+gBgOXc/wt1fHOhvHjWnV3P3x4FjgWPNbCFgAjA+/8zdlcgykG2ANUuuqWcBiEi3XAecHh2i4V4i3d3/EHC7uz8x2H9wjgNAb/mFpw4tmwyXmU2g/AFAzwIQkW652d2/ER1C+jfgJQARERFpLg0AIiIiLaQBQEREpIU0AIiIiLSQBgAREZEW0gAgIiLSQhoAREREWkgDgIiISAtpABAREWkhDQAiIiItpAFARESkhTQAiIiItJAGABERkRbSACAiQr9G6QAAHmtJREFUItJCGgBERERaSAOAiIhIC2kAEBERaSENACIiIi2kAUBERKSFNACIiIi0kAYAERGRFtIAICIi0kIaAERERFpIA4CIiEgLaQAQERFpIQ0AIiIiLaQBQEREpIU0AIiIiLSQBgAREZEWGhUdQN5gZuOANYG1gLWBTWMTiYh0ZLKZ/RK4Ov/c4O4zgjNJpgEgiJmNACbyRrNfG3g3MDIyl4hIFy0C7JR/AF4zs1uAa3hjKLjR3WcF5Ws1DQAlMrN5gUnAFOAjpINDRKQtRpE++EwEdst/7TEz+yNwLvBnd38+KlzbaAAomJktBWwBbAlsBIwJDSQiUi2LAJ/OPy+b2V+Ac4Dz3P3+uFjNpwGgAGa2IPApYGfSpCsiInM2Btgs/3zfzG4Afgn8wt2fDE3WQPoWQBeZ2fpmdgowDfg2av4iIp2YSDqXTjOzU8xs/ehATaIBoENm9nYz+5yZ3QpcDuwIjA2OJSLSJGNJ59bLzezWfM59e3SoutMAMExmtqyZ/RR4CDgeWDk4kohIG6xMOuc+ZGY/NbNlowPVlQaAITKzpczsJOB2YFf0aV9EJMJY0jn4djM7Kd9wLUOgAWCQzGy8mX0PuAvYHZgrOJKIiKRz8e7AXWb2PTMbHx2oLjQAzIGZLWpmxwH3AP8NjA6OJCIibzWadI6+x8yOM7NFowNVnQaAAZjZSDPbj9T490VL/SIidTCWdM6+x8z2MzPtrjoADQD9MLO1SFtVHguMC44jIiJDN450Dr8mn9OlDw0AvZjZ/GZ2AnAF+g6/1Ie3pKbIcEwErjCzE8xs/ugwVaIBIDOzjwP/BPZGvxeplydaUlNkuEaQzu3/zOd6QY0OM1vYzM4GzgB096jU0bSW1BTp1HjgDDM728wWjg4TrdUDQN5W8nrSg3pE6urBltQU6ZYtgevbvrVwKwcASw4CLgWWjM4j0qFLWlJTpJuWBC41swPNzKLDRDD3dt3Lk5d9fgl8ODpLRT3j7m+LDiGDZ2YjSFtSl/W950eA8e4+q6R60gVm9jSwQHSOiroA2NndH48OUqZWrQD0WvJX85fGyI34jBJLnqHmLw3zYVp4SaA1A4CZ7YmW/KW5jgJeKqHOS7mWSNP0XBLYMzpIWVoxAJjZ14EfAKOis4gUwd2nASeUUOqEXEukiUYBP8g9o/EafQ+AmY0CTgJ2ic5SI7oHoKbMbBwwFVi9oBI3Auu5+wsFvb4USPcADNnPgM+4+2vRQYrS2BUAM5sHOBs1f2mJ3Ji3BB4t4OUfBbZU85cW2QU4O/eSRmrkAJDv9L8UmBydRaRM7n4/sDnd3ahnGrB5fm2RNplMui+gkZsGNW4AMLOlSMuga0dnEYng7tcDawFXd+HlrgbWyq8p0kZrA1Nzb2mURg0AZrYYcDGwYnQWkUju/jCwPumxqMP5bvPj+Z9dP7+WSJutCFyce0xjNOYmQDN7O3AZsGp0lprTTYANY2bzAbsDHwPez8CD/yzgH8DvgR+7+3PlJJQy6CbArrgZ2NDdn4oO0g2NGADMbF7gIuB90VkaQANAg5nZosB7gcXyD8D0/HONuz8SlU2KpQGga64ENnX356ODdKr2A4CZjQXOBzaOztIQGgBEGkgDQFddCkx29xnRQTpR63sA8vf8f0fzmv804LukSxoiInV1Gelc1rTNozYGfpd7UG3VegAAfg5MiQ7RJfcB3wbWBd7p7p8D7g1NJCLSmXvzueydpHPbt0nnuiaYQupBtVXb6cXMDgB2iM7RoX+RHuJyhrt34ytbIiKV4+la8z/yz35mthawTf5ZNjJbh3Ywsxvd/ZjoIMNRywHAzDahvg8keRL4EXC6vlstIm2UP/BcDRxoZu8BtgU+CywYGmx4jjKza939kuggQ1W7SwB5M4bTgJHRWYboeeDrwLLufoiav4hI2rjK3Q8hrQQcAdRtu+mRwGl13CioVgOAmY0BzgTqtC3jK6SbYJZz9y+5+zPRgUREqsbdn3H3LwLLAd8HXg2ONBQLA2fmHlUbtRoASI/0fW90iEGaSXqa1Aru/jl3L+IBLSIijeLuj7j73sBKwKmkDarq4L2kHlUbtRkAzOyzwK7ROQbpTGAVd99VD1ARERk6d/+3u+8ETATOi84zSLvmXlULtRgAzGwl4PjoHINwJenBKdu4++1deL2ZXXiNoarFe0JEhizi2O74HObuN7v7FNKzLepw79TxuWdVXuVP9mY2AjgZGBudZQ6OAz7g7td08TUj9mIfF1BTRIoXcWx37Rzm7lNJz7I4sVuvWZCxwMm5d1Va5QMC/0PaQKKqngE+5u7/6+7dvmklYgAYYWYaAkQaJB/TEef7rp7D3P1ld98L+CTpm1VVtS6pd1VapQcAM1uO9LWQqroOWMPdzyro9aOexjZvUF0RKUbUMV3IOczdf0O66e6WIl6/S47IPayyKjsAmJkBPwXmic4ygB8C67r7vwqs8WyBrz078wXVFZFiRB3ThZ3D3P0OYG2qux3vPMBPcy+rpMoOAMCewIbRIfrxPPBJd9/T3V8uuFbUCoAGAJFmiTqmCz2HuftL7r4L6RtiLxVZa5g2JPWySqrkAJB3VDo6Okc/biHd5f+bkuppABCRbmjkANDD3X8GvA+4o4x6Q3R0VXcJrOQAQLruX7Xr0DeQ7vLvxtf7BivqEkDVfvci0pmoY7q0c5i73wysB9xaVs1BmpeK3stWuQHAzFanek/5uwPYzN2fLrmuVgBEpBsavQLQw92fADYF7i6z7iDskHtbpVRuAAC+AVTppon7gE2DtvLVACAi3dCKAQDA3aeThoAHyq49G0bqbZVSqQHAzDYGNo/O0ct0UvN/MKi+LgGISDc0/hJAb+5+H2kIqNIzWDbPPa4yKjMA5K9KVOnGvyeBSe4euZSkFQAR6YbWrAD0cPc7gUnAU1EZ+nF0lb4WWJkBANgGWCs6RPYc8OF8U0kYd3+BmCdhaQAQaZaIY3pWPoeFcfcbgQ9TnV0D1yL1ukqoxABgZqOozl2SM4At3f2q6CBZxAS9ZEBNESlOxDEd9um/N3e/EtiSdG6vgiNyzwtXiQEA2BZYIToE4MB27v6X6CC9RBxEtXiSlYgMWsQxXYkBAMDdLwW2I53jo61A6nnhqjIAVOWhCd9393OjQ/QRcRCtGFBTRIoTcUxXZgAAyOf2H0TnyCrR88IHADNbC1gnOgdwD3BgdIh+TAuoOa+ZLRFQV0S6LB/LEd8CiDh3zcmBQJHPbxmsdXLvCxU+AFCNSWgW8Gl3fzE6SD+itracEFRXRLor6liu3La8+abEXajGpYDw3hc6AJjZoqTrMtG+4+5/iw4xgDK3Hu5N9wGINEPUsRx17potd/8r8N3oHMB2uQeGiV4B2AMYHZzhDuDQ4AyzEzVFawAQaYaoY7lyKwC9HAzcFZxhNKkHhgkbAMws/F8emEla+q/iYyR76BKAiHRClwD6yOf8XYjZZ6W3PXIvDBG5ArA1sFhgfYBj3f2K4Axz8gAQcW+CVgBEmiHiWH6Rau3F/xbuPhU4LjjGYqReGCJyAPhEYG1Ij4z8SnCGOXJ3J2apaikzmzugroh0ST6GI55Ff1c+d1XdF4lfqQjrhSEDgJnNS9qeMdIe7v5ycIbBiniDGtXYnElEhm8FYp6uGt1UB8XdZxB/KfrDuSeWLmoF4CPA2KDaAFMrfNd/f3QfgIgMh67/z0He+TXyUvBYUk8sXdQAEP0whGOC6w9V1NdpJgbVFZHuiDqGK/kVwNmI7gkhPbH0AcDM5gEml123lzuAcwLrD0fUNL1JUF0R6Y6oY7g2KwDZH4j9WuDk3BtLFbECMBko/V+0l2NrcnNKb3cG1X2vmc0fVFtEOpCP3fcGlY86Zw2Lu88CvhUYIeSDccQAELn8/whwSmD9YXH354CHAkqPBDYIqCsinduAdAyX7aF8zqqbXwCPBtYvvTeWOgDkZyCH3OyQfbdGd/73pcsAIjIUWv4fgvyNgMgtgj+Se2Rpyl4BmEjMU6kAngdODKrdDVEH1cZBdUWkM1HHbi0HgOwHwAtBteel5Js2yx4A1i25Xm8/cfenAut36rqguqub2UJBtUVkGPIxu3pQ+ahzVcdyj/hJYIRSe2TZA8B6Jdfr8RrxWz526pKgugZsFFRbRIZnI2I2AIK4c1W3HEfqGRFK7ZFtGQAud/f7g2p3hbvfA0T9O+g+AJF6iTpm78/nqtpy9/uAy4PKN3MAMLOlgSXKqtfHxUF1u+3SoLoaAETqJeqYjTpHdVtUz1gi98pSlLkCEPXpH+CiwNrdFLW0NsHMFg+qLSJDkI/VqC2A67783yOyZ5TWK9swADwDXBNUu9sip2utAojUQ+Sx2pQVgGtIvSNCIweAdUqs1dtl7j4zqHZXufsDwN1B5cOeWS0iQxJ1rN6dz1G1l3vGZUHlS+uVZQ4AK5ZYq7emXP/vEbXENsXM3h5UW0QGIR+jU4LKN2X5v0dU7yitV5YyAJjZYsRtANSU6/89opbYRgPbB9UWkcHZnnSsRmjK8n+PqN4xb+6ZhStrBWD5kur0Nd3dbwuqXZTIg2znwNoiMmeRx2ijBoDcO6YHlS+lZzZ9AGja8j/u/ghwa1D5dcxshaDaIjIb+diMutfq1nxuapqoHqIBoAsaNwBkWgUQkb706b/7NAB0QdQAELWbU9Eib7bZ0cyithgVkX7kY3LHwAhNuwGwR1QPadQAELVsPC2obtEuA2YF1V6G9JxxEamODUjHZoRZxH1lrmhRPaSUntnkFYDn3P2lgLqFc/cngRsCI+gygEi1RB6TN+RzUuPkHvJcQOlmrACY2Whg/qLr9OPRgJplOi2w9jZmNndgfRHJ8rG4TWCEyHNRGSJ6yfy5dxaqjBWAcSXU6E8T70jt7VTiLgPMD2wVVFtE3mwrYj5kQToHnRpUuyxRvaTw3tnkAaDRKwDu/hCxmxx9JrC2iLwh8li8KJ+LmiyqlzRiAIjaAbDpKwAAvwysvZGZrRtYX6T18jG4UWCEyHNQWaJ6SeG9UysA9XYWMTeo9Dg0sLaIxB6Dz5HOQU2nFYAO6B6Agrj7i8AZgREmm9kagfVFWisfe5MDI5yRz0FNp3sAOqAVgGJFL8FpFUAkRvSxF33uKYtWADqgAaBYlwH3Bdbf2sxWDqwv0jr5mNs6MMJ9NHfzn740AHRgnhJq9OfxoLqlcncn9ms4BhwSWF+kjQ4hHXtRTs3nnjaI6iWF984yBoCydhvsa2ZQ3QjRS3Hbm9lywRlEWiEfa9sHx4g+55QpqpcU3jujmrN0kbvfCVwRGGEkcFBgfZE2OYh0zEW5Ip9zpOY0ADRH9ES+s5ktGZxBpNHyMRb9LI7oc410iQaA5vgt8Epg/dHAFwLri7TBF0jHWpRXSOcaaQANAA3h7k8B5wTH+IyZRT36WaTR8rEVvQX3OflcIw2gAaBZjg2uPwY4ITiDSFOdQDrGIkWfY6SLNAA0iLtfCVwcHGMzM/t4cAaRRsnH1GbBMS7O5xhpCA0AzfP16ADA8WYWtQGUSKPkY+n46BxU49wiXaQBoGHc/S/A1OAYSwJfCc4g0hRfIR1Tkabmc4s0iAaAZjoiOgCwr7YIFulMPob2jc5BNc4p0mUaABrI3S8ArguOMRfw/eAMInX3fdKxFOm6fE6RhtEA0FxVmNg3MrMdokOI1FE+djaKzkE1ziVSAA0AzXUWcFt0COBYM1sgOoRIneRjpgpfubuNdC6RBtIA0FD5SV1HRucAFgMOjw4hUjOHk46daEe26Kl/raMBoNl+C9wTHQLYy8w+EB1CpA7ysbJXdA7SuUPb/jaYBoAGc/eZwDeic5CeXPYbM1s4OohIleVj5DfEPu2vxzfyOUQaSgNA8/0SeCA6BLAEcIqZWXQQkSrKx8YppGMl2gPoqX+NpwGg4dz9FeCY6BzZ5qRnmYvIWx1EOkaq4Jh87pAG0wDQDicBd0eHyA7X/QAib5aPiarcLHs36ZwhDVfGADCjhBr9eSmobuW4+8vAPtE5Mt0PINJLxa77A+yTzxmSRPWSwntnGQPAIyXU6MuBhwPqVpa7XwicGZ0j0/0AIlTuuj/AmflcIW94mNRTylZ47yxjAJheQo2+ntD1q37tC7wQHSLbHDgwOoRIsAOpznX/F6jGcwcqJfeSJwJKF947yxgA7qX8JZRbS65XC+7+IPC16By9HG5m60eHEImQ3/tVue4P8LV8jpC3KrunvETqnYUqfABw95eAPxVdp49zS65XJ8dTnQFpFOl+gHdEBxEpU37P/4Z0DFTBraRzg/Sv7J7yp9w7C1XWtwDK3kv67JLr1Ya7v0o1dhnrsSRwgZnNFx1EpAz5vX4B6b1fFXvlc4P0r+yeUkrPLGsAOB14qKRaF7h7Vb7yVknu/lfSjUdVsQZwlpmNjg4iUqT8Hj+L9J6vilPyOUEGkHtKWY9EfojUMwtXygCQlzIOK6HULHRj2WAdADwdHaKXD5K+GaC9KaSR8nv7FNJ7vSqeJp0LZM4OJPWYoh1WxvI/lLsR0E+BmwqucZK731xwjUZw90eAL0bn6GM74DvRIUQK8h3Se7xKvpjPBTIHubcUvUHSTaReWQor80mPZrYMcDVQxCYwVwIbagOLwcufSK4C1ozO0seX3P3r0SFEusXMvki17vgHuBZY293L+FTbCGY2BrgMeF8BL/84sJa731vAa/er1AEAXt/y8kJgni6+7H3A+91dm/8MkZmtDfyD6m0Lvbu7/yQ6hEinzGw34MfROfqYRTpnXhUdpG7MbHHSOXPpLr7si8Dm7n55F19zjko/6ed/wfVITbsbLidNsWr+w5BPAD+KztGPH5rZR6NDiHQiv4d/GJ2jHz9S8x+e3GvWJvWebrgPWK/s5g8BKwCvFzZbBDgR+PgwX+Jl0jW1L+rrK50xs3lIlwL+IzpLHzOASREHhkin8mrnn4Gx0Vn6uJX0oenF6CB1ZmZzAV8HPgeMGebLnAns6e6PdS3YEIQNAK8HMFsXOArYYJD/yKvAaaTG361VhNYzs5VJ92d089JMNzxNWhq7MjqIyGCZ2ftIlzrfFp2ljxdJ15lviw7SFGa2NGkQ+AQw1yD/sb8CB7v73wsLNgjhA0APM1sSmAJ8iHRtZQnSwfMoMA24C/gj6Xv+z0blbDIz+xTw8+gc/XgB2EYPKZE6MLPNgTOAcdFZ+vFpd/9FdIgmMrP5gQ8DHwFWAMYDi5I+xEwjLfX/H3BuVbZcrswAINVgZj8HPhWdox+vAru6+6nRQUQGYmY7Aicz+E+CZfqFu386OoRUhwYAeRMzG0e6FPDu6Cz9cOAAd/9WdBCRvsxsP+AYoIqPuf4naem/Kk8DlQrQACBvYWb/QRoC5o7OMoBjgANdb16pADMz4Giqu6PeS6TmX5WHgElFVO2731IB+USxd3SO2TgA+LmZVeVJatJS+T34c6rb/AH2VvOX/mgFQAZkZqcAO0bnmI3zgW31dSaJkL8+ezowOTrLbJzq7jtFh5Bq0gAgA8r3A1wLrBSdZTauALZw9yeig0h7mNlCwHnAOtFZZuMOYE1d95eB6BKADCifOLYlXUOsqnWAqXkfA5HC5ffaVKrd/F8irY6p+cuANADIbOUnYH0uOsccrARcbWa7RAeRZsvvsaup9qoYwOf0ZFSZE10CkEExs5OBOjTYU0hba+qTj3RNvhx2IlCH6+k/c/ddo0NI9WkAkEHJdzufTbVveOpxO7CdPgFJN5jZqsDvgAnRWQbhfOCj7v5adBCpPl0CkEHJJ5RtSY/BrLoJwJX5Mawiw5bfQ1dSj+Z/Bem6v5q/DIpWAGRIzGxB4G9Uc6fA/vwa+Ky7Px8dROrDzOYlPSb7k9FZBumfwPru/mR0EKkPDQAyZGb2TuDvwJLRWQbpTtIlgRujg0j1mdnqpCX/FaOzDNKDwLru/kB0EKkXXQKQIcsnms2AunzaWBG4wsw+b2Yjo8NINZnZSDP7PGkpvS7N/0lgMzV/GQ6tAMiwmdn7gYuAeaKzDMGNpG8J1OFeBilJfi+fCKwenWUIXgQ21XtZhksrADJs+cSzHVCnm45WJ20c9OO8m5u0mJktZGY/Jm3sU6fm/xrpspaavwybBgDpiLv/Edg9OscQGbAbcLuZ7Zqf5iYtYsmupK+M7kY1H+E7O7vnY09k2DQASMfc/efAgdE5hmFh4KfA5Wa2WnQYKUf+b3056b/9wsFxhuPAfMyJdEQDgHSFu38TOC46xzCtB1xrZt/KX/+SBjKzec3sW6QHXK0XnWeYjsvHmkjHdBOgdE1eSv8+sGd0lg5MA74A/NbdZ0WHkc6Z2Qhge+CbwBLBcTpxIvDfrpO2dIlWAKRrPNkL+Gp0lg4sAfyKdH/ALmY2V3QgGR4zmys/vOd20n/TOjf/r7r7Xmr+0k1aAZBCmNkepNWAug+Z95E+OZ7s7jOiw8icmdlYYFfSSs7SwXE6NYv0qf+H0UGkeTQASGHM7OOkT15jorN0wcPAt4Af6kmD1ZSf2LcHsB+weHCcbngZ2MHdz4wOIs2kAUAKZWYbkZ4iOH9wlG55AjgeOMHdn4kOI2BmCwD7APsCTdnb4VnSU/3+Eh1EmksDgBQu761+IbBYdJYueoZ0ieMEd58eHaaNzGwxUuP/b2CB4DjdNB3YXM+ukKJpAJBSmNm7gD8Dy0dn6bKZwP8BpwB/cPcXg/M0mpnNA2wF7AR8CGjasx3uBia5+7+jg0jzaQCQ0pjZO4ALgDWisxTkOeBM0jDwF32NsDvy1/g2IjX9jwPzhQYqznXAh9390egg0g4aAKRUZjYfcBbwwegsBXuAdAPkKe5+W3SYOjKzlUlNfwfgncFxinYxsLW7PxcdRNpDA4CUzsxGA78EPhGdpSTXklYFfuvuj0SHqTIzW5S0ac9OwJrBccpyGrCzu78SHUTaRQOAhMjLul8EvkzzruMOxIGbSZ/2LgEua/snvrwitCGwCWlVaFXq92Ce4ZoJfA04QpeLJIIGAAllZhuTlsqb8L3toXoNuIY3BoK/N32zobxJz7q80fDfC4wKDRXjYdJ3/C+NDiLtpQFAwuVl31OBTaOzBJtBei79JaSh4Fp3fy02UmfMbBRpKf+DpKa/HjA2NFS8i4AddTlIomkAkEpo6SWBOXkFuAe4A7gz//EO4E53fywyWF9mtgiwIrBS/un58+WA0YHRqkRL/lIpGgCkUlp+SWAonqLPUEAaFp4mfR3xOXd/uRuFzGwM6at38wFvIzX1vs3+7d2o1WBa8pfK0QAglaNLAl3zCmkYeDb/sb8/h7RNc0+D7+/P9Qm+M1ryl0rSACCVpEsC0gBa8pdK0wAglaZLAlJTWvKXyqv7s9ql4fIJ9D2kZVSROrgIeI+av1SdBgCpvHztdBKwK/B4cByRgTxOeo9O0vV+qQNdApBaMbMFgSOB3dEAK9UwC/gxcIi7PxkdRmSwNABILZnZ2sCJNPfJglIP1wF7uvtV0UFEhkqfoKSW8gl3LWBv4JngONI+z5Dee2up+UtdaQVAai/vG3AssGN0FmmFU4H9dZ1f6k4DgDSGmW0I/ABYOTqLNNJtwF7ufll0EJFu0CUAaYx8Yp4IfAF4ITiONMcLpPfURDV/aRKtAEgjmdk7gW8A26NBV4ZnFvBb4CB3fyA6jEi3aQCQRjOzFYCDSfcHzBUcR+rhVdJ1/qPc/a7oMCJF0QAgrWBmSwEHkjZqafvz6KV/M4CTgaPd/f7oMCJF0wAgrWJmiwH7A3sA44LjSDW8APwQONbdp0eHESmLBgBpJTNbCNiX9F3utwXHkRhPA98Djnf3J6LDiJRNA4C0mpnNTxoC9gUWCY4j5XgMOB74nrs/Gx1GJIoGABHAzOYBPku6PDA+OI4U4yHShlE/cvcXo8OIRNMAINKLmc0FTAZ2ArYAxsQmkg69DJwHnAKc7+6vBucRqQwNACIDMLO3A58gDQPrBseRofk7qemf5u5PRYcRqSINACKDYGbLkwaBnYB3BceR/v2b1PRPcfe7o8OIVJ0GAJEhMDMD1gN2BrYDFohN1HrPAL8DfglMdZ3QRAZNA4DIMJnZWGAKaRjYHBgVm6g1XgMuJDX9c919RnAekVrSACDSBWa2MPDB/LMJsFxsosa5B7gEuBi42N0fD84jUnsaAEQKkLce3qTXzxKxiWpnGqnhXwJcoq15RbpPA4BICcxsJd4YBjYGFopNVDlPAJfyRsO/IziPSONpABApWb6RcDXeuFywHu3bjvhpYCpvLOvfpBv4RMqlAUCkAsxsUWCl/DOh15+/CxgZGK0TM0lfzbsj/9ze8+fu/khkMBHRACBSaWY2mnRDYX/DwYKB0Xp7kn6aPHCPu78SGUxEBqYBQKSm8jcPliPtRTAvMF+fn/7+Wt+/DvBc/nm+158/N4e//jzpO/j36I58kXr6f5k7VLJV/FnBAAAAAElFTkSuQmCC;" parent="1" vertex="1">
          <mxGeometry x="865" y="331" width="40" height="40" as="geometry" />
        </mxCell>
        <mxCell id="LnJRWbe0wSDpx0MPoHch-33" value="Обнаруженные дефекты" style="text;html=1;strokeColor=none;fillColor=none;align=center;verticalAlign=middle;whiteSpace=wrap;rounded=0;" parent="1" vertex="1">
          <mxGeometry x="855" y="386" width="60" height="30" as="geometry" />
        </mxCell>
        <mxCell id="LnJRWbe0wSDpx0MPoHch-35" style="edgeStyle=orthogonalEdgeStyle;rounded=0;orthogonalLoop=1;jettySize=auto;html=1;shape=flexArrow;endWidth=8.43601895734597;endSize=5.731753554502369;" parent="1" edge="1">
          <mxGeometry relative="1" as="geometry">
            <mxPoint x="100" y="420" as="sourcePoint" />
            <mxPoint x="160" y="420" as="targetPoint" />
            <Array as="points">
              <mxPoint x="100" y="420" />
            </Array>
          </mxGeometry>
        </mxCell>
        <mxCell id="LnJRWbe0wSDpx0MPoHch-36" style="edgeStyle=orthogonalEdgeStyle;rounded=0;orthogonalLoop=1;jettySize=auto;html=1;exitX=1;exitY=0.5;exitDx=0;exitDy=0;" parent="1" edge="1">
          <mxGeometry relative="1" as="geometry">
            <mxPoint x="100" y="360" as="sourcePoint" />
            <mxPoint x="160" y="360" as="targetPoint" />
          </mxGeometry>
        </mxCell>
        <mxCell id="LnJRWbe0wSDpx0MPoHch-37" style="edgeStyle=orthogonalEdgeStyle;rounded=0;orthogonalLoop=1;jettySize=auto;html=1;exitX=1;exitY=0.5;exitDx=0;exitDy=0;dashed=1;" parent="1" edge="1">
          <mxGeometry relative="1" as="geometry">
            <mxPoint x="100" y="389.82" as="sourcePoint" />
            <mxPoint x="160" y="390" as="targetPoint" />
            <Array as="points">
              <mxPoint x="130" y="390" />
              <mxPoint x="160" y="390" />
            </Array>
          </mxGeometry>
        </mxCell>
        <mxCell id="LnJRWbe0wSDpx0MPoHch-38" value="Стадия обучения" style="text;html=1;strokeColor=none;fillColor=none;align=center;verticalAlign=middle;whiteSpace=wrap;rounded=0;" parent="1" vertex="1">
          <mxGeometry x="180" y="343" width="100" height="30" as="geometry" />
        </mxCell>
        <mxCell id="LnJRWbe0wSDpx0MPoHch-39" value="Стадия вывода" style="text;html=1;strokeColor=none;fillColor=none;align=center;verticalAlign=middle;whiteSpace=wrap;rounded=0;" parent="1" vertex="1">
          <mxGeometry x="170" y="374" width="110" height="30" as="geometry" />
        </mxCell>
        <mxCell id="LnJRWbe0wSDpx0MPoHch-40" value="Обе стадии" style="text;html=1;strokeColor=none;fillColor=none;align=center;verticalAlign=middle;whiteSpace=wrap;rounded=0;" parent="1" vertex="1">
          <mxGeometry x="180" y="404" width="70" height="30" as="geometry" />
        </mxCell>
      </root>
    </mxGraphModel>
  </diagram>
  <diagram id="Aa7biJxX0fDDyMV-VOuN" name="idef0">
    <mxGraphModel dx="840" dy="453" grid="1" gridSize="10" guides="1" tooltips="1" connect="1" arrows="1" fold="1" page="1" pageScale="1" pageWidth="827" pageHeight="1169" math="0" shadow="0">
      <root>
        <mxCell id="0" />
        <mxCell id="1" parent="0" />
        <mxCell id="m_bFcJz7v0vS5t25fiMG-1" value="&lt;div style=&quot;font-size: 14px;&quot;&gt;&lt;font style=&quot;font-size: 14px;&quot;&gt;&lt;font style=&quot;font-size: 14px;&quot;&gt;Система для обнаружения &lt;br&gt;&lt;/font&gt;&lt;/font&gt;&lt;/div&gt;&lt;div style=&quot;font-size: 14px;&quot;&gt;&lt;font style=&quot;font-size: 14px;&quot;&gt;&lt;font style=&quot;font-size: 14px;&quot;&gt;дефектов ПО&lt;/font&gt;&lt;/font&gt;&lt;/div&gt;" style="rounded=0;whiteSpace=wrap;html=1;" parent="1" vertex="1">
          <mxGeometry x="270" y="220" width="210" height="100" as="geometry" />
        </mxCell>
        <mxCell id="m_bFcJz7v0vS5t25fiMG-3" value="&lt;font style=&quot;font-size: 12px;&quot;&gt;А0&lt;/font&gt;" style="text;html=1;strokeColor=none;fillColor=none;align=center;verticalAlign=middle;whiteSpace=wrap;rounded=0;fontSize=14;" parent="1" vertex="1">
          <mxGeometry x="457" y="303" width="27" height="15" as="geometry" />
        </mxCell>
        <mxCell id="m_bFcJz7v0vS5t25fiMG-4" value="" style="endArrow=none;html=1;rounded=0;fontSize=12;exitX=0;exitY=0.099;exitDx=0;exitDy=0;exitPerimeter=0;entryX=0.046;entryY=0.001;entryDx=0;entryDy=0;entryPerimeter=0;" parent="1" source="m_bFcJz7v0vS5t25fiMG-1" target="m_bFcJz7v0vS5t25fiMG-1" edge="1">
          <mxGeometry width="50" height="50" relative="1" as="geometry">
            <mxPoint x="260" y="250" as="sourcePoint" />
            <mxPoint x="310" y="200" as="targetPoint" />
          </mxGeometry>
        </mxCell>
        <mxCell id="m_bFcJz7v0vS5t25fiMG-6" value="" style="endArrow=classic;html=1;rounded=0;fontSize=12;entryX=0;entryY=0.5;entryDx=0;entryDy=0;edgeStyle=orthogonalEdgeStyle;" parent="1" edge="1">
          <mxGeometry width="50" height="50" relative="1" as="geometry">
            <mxPoint x="80" y="248.07" as="sourcePoint" />
            <mxPoint x="270" y="248.07" as="targetPoint" />
            <Array as="points">
              <mxPoint x="110" y="248.07" />
              <mxPoint x="110" y="248.07" />
            </Array>
          </mxGeometry>
        </mxCell>
        <mxCell id="m_bFcJz7v0vS5t25fiMG-14" value="" style="endArrow=classic;html=1;rounded=0;fontSize=12;edgeStyle=orthogonalEdgeStyle;" parent="1" edge="1">
          <mxGeometry width="50" height="50" relative="1" as="geometry">
            <mxPoint x="480" y="269.64" as="sourcePoint" />
            <mxPoint x="700" y="270" as="targetPoint" />
            <Array as="points">
              <mxPoint x="510" y="269.64" />
              <mxPoint x="510" y="269.64" />
            </Array>
          </mxGeometry>
        </mxCell>
        <mxCell id="m_bFcJz7v0vS5t25fiMG-16" value="&lt;font style=&quot;font-size: 14px;&quot;&gt;Исходный код на C++&lt;/font&gt;" style="text;html=1;strokeColor=none;fillColor=none;align=center;verticalAlign=middle;whiteSpace=wrap;rounded=0;fontSize=12;" parent="1" vertex="1">
          <mxGeometry x="76.25" y="220" width="160" height="30" as="geometry" />
        </mxCell>
        <mxCell id="m_bFcJz7v0vS5t25fiMG-17" value="&lt;font style=&quot;font-size: 14px;&quot;&gt;Размеченный код на С++&lt;/font&gt;" style="text;html=1;strokeColor=none;fillColor=none;align=center;verticalAlign=middle;whiteSpace=wrap;rounded=0;fontSize=12;" parent="1" vertex="1">
          <mxGeometry x="510" y="240" width="170" height="30" as="geometry" />
        </mxCell>
        <mxCell id="m_bFcJz7v0vS5t25fiMG-20" value="&lt;font style=&quot;font-size: 14px;&quot;&gt;Данные для обучения&lt;/font&gt;" style="text;html=1;strokeColor=none;fillColor=none;align=center;verticalAlign=middle;whiteSpace=wrap;rounded=0;fontSize=12;" parent="1" vertex="1">
          <mxGeometry x="71" y="265" width="170.5" height="30" as="geometry" />
        </mxCell>
        <mxCell id="J4MPJezX_9oEXsu2QrKT-1" value="" style="endArrow=classic;html=1;rounded=0;fontSize=12;entryX=0;entryY=0.5;entryDx=0;entryDy=0;edgeStyle=orthogonalEdgeStyle;" parent="1" edge="1">
          <mxGeometry width="50" height="50" relative="1" as="geometry">
            <mxPoint x="80" y="296" as="sourcePoint" />
            <mxPoint x="270" y="296" as="targetPoint" />
            <Array as="points">
              <mxPoint x="110" y="296" />
              <mxPoint x="110" y="296" />
            </Array>
          </mxGeometry>
        </mxCell>
      </root>
    </mxGraphModel>
  </diagram>
  <diagram id="NR9HBmjWLL-wSGqG6BZD" name="forest">
    <mxGraphModel dx="1050" dy="566" grid="1" gridSize="10" guides="1" tooltips="1" connect="1" arrows="1" fold="1" page="1" pageScale="1" pageWidth="827" pageHeight="1169" math="0" shadow="0">
      <root>
        <mxCell id="0" />
        <mxCell id="1" parent="0" />
        <mxCell id="0UI-Mgx5RdOmSlk7krLR-5" style="rounded=0;orthogonalLoop=1;jettySize=auto;html=1;exitX=0;exitY=1;exitDx=0;exitDy=0;entryX=1;entryY=0;entryDx=0;entryDy=0;endArrow=none;endFill=0;" parent="1" source="0UI-Mgx5RdOmSlk7krLR-2" target="0UI-Mgx5RdOmSlk7krLR-3" edge="1">
          <mxGeometry relative="1" as="geometry" />
        </mxCell>
        <mxCell id="0UI-Mgx5RdOmSlk7krLR-6" style="edgeStyle=none;rounded=0;orthogonalLoop=1;jettySize=auto;html=1;exitX=1;exitY=1;exitDx=0;exitDy=0;entryX=0;entryY=0;entryDx=0;entryDy=0;endArrow=none;endFill=0;" parent="1" source="0UI-Mgx5RdOmSlk7krLR-2" target="0UI-Mgx5RdOmSlk7krLR-16" edge="1">
          <mxGeometry relative="1" as="geometry">
            <mxPoint x="204.15999999999997" y="260.2199999999999" as="targetPoint" />
          </mxGeometry>
        </mxCell>
        <mxCell id="0UI-Mgx5RdOmSlk7krLR-63" style="edgeStyle=none;rounded=0;orthogonalLoop=1;jettySize=auto;html=1;exitX=0.765;exitY=0.046;exitDx=0;exitDy=0;fontSize=14;endArrow=none;endFill=0;exitPerimeter=0;" parent="1" source="0UI-Mgx5RdOmSlk7krLR-2" edge="1">
          <mxGeometry relative="1" as="geometry">
            <mxPoint x="340" y="80" as="targetPoint" />
          </mxGeometry>
        </mxCell>
        <mxCell id="0UI-Mgx5RdOmSlk7krLR-2" value="" style="ellipse;whiteSpace=wrap;html=1;aspect=fixed;" parent="1" vertex="1">
          <mxGeometry x="154" y="210" width="20" height="20" as="geometry" />
        </mxCell>
        <mxCell id="0UI-Mgx5RdOmSlk7krLR-8" style="edgeStyle=none;rounded=0;orthogonalLoop=1;jettySize=auto;html=1;exitX=0.283;exitY=0.95;exitDx=0;exitDy=0;entryX=0.732;entryY=0.054;entryDx=0;entryDy=0;endArrow=none;endFill=0;entryPerimeter=0;exitPerimeter=0;" parent="1" source="0UI-Mgx5RdOmSlk7krLR-3" target="0UI-Mgx5RdOmSlk7krLR-7" edge="1">
          <mxGeometry relative="1" as="geometry" />
        </mxCell>
        <mxCell id="0UI-Mgx5RdOmSlk7krLR-3" value="" style="ellipse;whiteSpace=wrap;html=1;aspect=fixed;" parent="1" vertex="1">
          <mxGeometry x="110" y="260" width="20" height="20" as="geometry" />
        </mxCell>
        <mxCell id="0UI-Mgx5RdOmSlk7krLR-7" value="" style="ellipse;whiteSpace=wrap;html=1;aspect=fixed;" parent="1" vertex="1">
          <mxGeometry x="80" y="310" width="20" height="20" as="geometry" />
        </mxCell>
        <mxCell id="0UI-Mgx5RdOmSlk7krLR-10" style="edgeStyle=none;rounded=0;orthogonalLoop=1;jettySize=auto;html=1;exitX=0;exitY=0;exitDx=0;exitDy=0;entryX=0.7;entryY=0.933;entryDx=0;entryDy=0;entryPerimeter=0;endArrow=none;endFill=0;" parent="1" source="0UI-Mgx5RdOmSlk7krLR-9" target="0UI-Mgx5RdOmSlk7krLR-3" edge="1">
          <mxGeometry relative="1" as="geometry" />
        </mxCell>
        <mxCell id="0UI-Mgx5RdOmSlk7krLR-9" value="" style="ellipse;whiteSpace=wrap;html=1;aspect=fixed;" parent="1" vertex="1">
          <mxGeometry x="140" y="310" width="20" height="20" as="geometry" />
        </mxCell>
        <mxCell id="0UI-Mgx5RdOmSlk7krLR-15" style="edgeStyle=none;rounded=0;orthogonalLoop=1;jettySize=auto;html=1;exitX=0.283;exitY=0.95;exitDx=0;exitDy=0;entryX=0.732;entryY=0.054;entryDx=0;entryDy=0;endArrow=none;endFill=0;entryPerimeter=0;exitPerimeter=0;" parent="1" source="0UI-Mgx5RdOmSlk7krLR-16" target="0UI-Mgx5RdOmSlk7krLR-17" edge="1">
          <mxGeometry relative="1" as="geometry" />
        </mxCell>
        <mxCell id="0UI-Mgx5RdOmSlk7krLR-16" value="" style="ellipse;whiteSpace=wrap;html=1;aspect=fixed;" parent="1" vertex="1">
          <mxGeometry x="200" y="260" width="20" height="20" as="geometry" />
        </mxCell>
        <mxCell id="0UI-Mgx5RdOmSlk7krLR-17" value="" style="ellipse;whiteSpace=wrap;html=1;aspect=fixed;" parent="1" vertex="1">
          <mxGeometry x="170" y="310" width="20" height="20" as="geometry" />
        </mxCell>
        <mxCell id="0UI-Mgx5RdOmSlk7krLR-18" style="edgeStyle=none;rounded=0;orthogonalLoop=1;jettySize=auto;html=1;exitX=0;exitY=0;exitDx=0;exitDy=0;entryX=0.7;entryY=0.933;entryDx=0;entryDy=0;entryPerimeter=0;endArrow=none;endFill=0;" parent="1" source="0UI-Mgx5RdOmSlk7krLR-19" target="0UI-Mgx5RdOmSlk7krLR-16" edge="1">
          <mxGeometry relative="1" as="geometry" />
        </mxCell>
        <mxCell id="0UI-Mgx5RdOmSlk7krLR-70" style="edgeStyle=none;rounded=0;orthogonalLoop=1;jettySize=auto;html=1;exitX=0;exitY=1;exitDx=0;exitDy=0;entryX=0.5;entryY=0;entryDx=0;entryDy=0;fontSize=12;endArrow=classic;endFill=1;" parent="1" source="0UI-Mgx5RdOmSlk7krLR-19" target="0UI-Mgx5RdOmSlk7krLR-69" edge="1">
          <mxGeometry relative="1" as="geometry" />
        </mxCell>
        <mxCell id="0UI-Mgx5RdOmSlk7krLR-19" value="" style="ellipse;whiteSpace=wrap;html=1;aspect=fixed;" parent="1" vertex="1">
          <mxGeometry x="230" y="310" width="20" height="20" as="geometry" />
        </mxCell>
        <mxCell id="0UI-Mgx5RdOmSlk7krLR-35" style="rounded=0;orthogonalLoop=1;jettySize=auto;html=1;exitX=0;exitY=1;exitDx=0;exitDy=0;entryX=1;entryY=0;entryDx=0;entryDy=0;endArrow=none;endFill=0;" parent="1" source="0UI-Mgx5RdOmSlk7krLR-37" target="0UI-Mgx5RdOmSlk7krLR-39" edge="1">
          <mxGeometry relative="1" as="geometry" />
        </mxCell>
        <mxCell id="0UI-Mgx5RdOmSlk7krLR-36" style="edgeStyle=none;rounded=0;orthogonalLoop=1;jettySize=auto;html=1;exitX=1;exitY=1;exitDx=0;exitDy=0;entryX=0;entryY=0;entryDx=0;entryDy=0;endArrow=none;endFill=0;" parent="1" source="0UI-Mgx5RdOmSlk7krLR-37" target="0UI-Mgx5RdOmSlk7krLR-44" edge="1">
          <mxGeometry relative="1" as="geometry">
            <mxPoint x="414.15999999999997" y="260.2199999999999" as="targetPoint" />
          </mxGeometry>
        </mxCell>
        <mxCell id="0UI-Mgx5RdOmSlk7krLR-65" style="edgeStyle=none;rounded=0;orthogonalLoop=1;jettySize=auto;html=1;exitX=0.5;exitY=0;exitDx=0;exitDy=0;fontSize=14;endArrow=none;endFill=0;" parent="1" source="0UI-Mgx5RdOmSlk7krLR-37" edge="1">
          <mxGeometry relative="1" as="geometry">
            <mxPoint x="340" y="80" as="targetPoint" />
          </mxGeometry>
        </mxCell>
        <mxCell id="0UI-Mgx5RdOmSlk7krLR-37" value="" style="ellipse;whiteSpace=wrap;html=1;aspect=fixed;" parent="1" vertex="1">
          <mxGeometry x="364" y="210" width="20" height="20" as="geometry" />
        </mxCell>
        <mxCell id="0UI-Mgx5RdOmSlk7krLR-38" style="edgeStyle=none;rounded=0;orthogonalLoop=1;jettySize=auto;html=1;exitX=0.283;exitY=0.95;exitDx=0;exitDy=0;entryX=0.732;entryY=0.054;entryDx=0;entryDy=0;endArrow=none;endFill=0;entryPerimeter=0;exitPerimeter=0;" parent="1" source="0UI-Mgx5RdOmSlk7krLR-39" target="0UI-Mgx5RdOmSlk7krLR-40" edge="1">
          <mxGeometry relative="1" as="geometry" />
        </mxCell>
        <mxCell id="0UI-Mgx5RdOmSlk7krLR-39" value="" style="ellipse;whiteSpace=wrap;html=1;aspect=fixed;" parent="1" vertex="1">
          <mxGeometry x="320" y="260" width="20" height="20" as="geometry" />
        </mxCell>
        <mxCell id="0UI-Mgx5RdOmSlk7krLR-40" value="" style="ellipse;whiteSpace=wrap;html=1;aspect=fixed;" parent="1" vertex="1">
          <mxGeometry x="290" y="310" width="20" height="20" as="geometry" />
        </mxCell>
        <mxCell id="0UI-Mgx5RdOmSlk7krLR-41" style="edgeStyle=none;rounded=0;orthogonalLoop=1;jettySize=auto;html=1;exitX=0;exitY=0;exitDx=0;exitDy=0;entryX=0.7;entryY=0.933;entryDx=0;entryDy=0;entryPerimeter=0;endArrow=none;endFill=0;" parent="1" source="0UI-Mgx5RdOmSlk7krLR-42" target="0UI-Mgx5RdOmSlk7krLR-39" edge="1">
          <mxGeometry relative="1" as="geometry" />
        </mxCell>
        <mxCell id="0UI-Mgx5RdOmSlk7krLR-73" style="edgeStyle=none;rounded=0;orthogonalLoop=1;jettySize=auto;html=1;exitX=0.5;exitY=1;exitDx=0;exitDy=0;entryX=0.5;entryY=0;entryDx=0;entryDy=0;fontSize=12;startArrow=none;startFill=0;endArrow=classic;endFill=1;" parent="1" source="0UI-Mgx5RdOmSlk7krLR-42" target="0UI-Mgx5RdOmSlk7krLR-72" edge="1">
          <mxGeometry relative="1" as="geometry" />
        </mxCell>
        <mxCell id="0UI-Mgx5RdOmSlk7krLR-42" value="" style="ellipse;whiteSpace=wrap;html=1;aspect=fixed;" parent="1" vertex="1">
          <mxGeometry x="350" y="310" width="20" height="20" as="geometry" />
        </mxCell>
        <mxCell id="0UI-Mgx5RdOmSlk7krLR-43" style="edgeStyle=none;rounded=0;orthogonalLoop=1;jettySize=auto;html=1;exitX=0.283;exitY=0.95;exitDx=0;exitDy=0;entryX=0.732;entryY=0.054;entryDx=0;entryDy=0;endArrow=none;endFill=0;entryPerimeter=0;exitPerimeter=0;" parent="1" source="0UI-Mgx5RdOmSlk7krLR-44" target="0UI-Mgx5RdOmSlk7krLR-45" edge="1">
          <mxGeometry relative="1" as="geometry" />
        </mxCell>
        <mxCell id="0UI-Mgx5RdOmSlk7krLR-44" value="" style="ellipse;whiteSpace=wrap;html=1;aspect=fixed;" parent="1" vertex="1">
          <mxGeometry x="410" y="260" width="20" height="20" as="geometry" />
        </mxCell>
        <mxCell id="0UI-Mgx5RdOmSlk7krLR-45" value="" style="ellipse;whiteSpace=wrap;html=1;aspect=fixed;" parent="1" vertex="1">
          <mxGeometry x="380" y="310" width="20" height="20" as="geometry" />
        </mxCell>
        <mxCell id="0UI-Mgx5RdOmSlk7krLR-46" style="edgeStyle=none;rounded=0;orthogonalLoop=1;jettySize=auto;html=1;exitX=0;exitY=0;exitDx=0;exitDy=0;entryX=0.7;entryY=0.933;entryDx=0;entryDy=0;entryPerimeter=0;endArrow=none;endFill=0;" parent="1" source="0UI-Mgx5RdOmSlk7krLR-47" target="0UI-Mgx5RdOmSlk7krLR-44" edge="1">
          <mxGeometry relative="1" as="geometry" />
        </mxCell>
        <mxCell id="0UI-Mgx5RdOmSlk7krLR-47" value="" style="ellipse;whiteSpace=wrap;html=1;aspect=fixed;" parent="1" vertex="1">
          <mxGeometry x="440" y="310" width="20" height="20" as="geometry" />
        </mxCell>
        <mxCell id="0UI-Mgx5RdOmSlk7krLR-48" style="rounded=0;orthogonalLoop=1;jettySize=auto;html=1;exitX=0;exitY=1;exitDx=0;exitDy=0;entryX=1;entryY=0;entryDx=0;entryDy=0;endArrow=none;endFill=0;" parent="1" source="0UI-Mgx5RdOmSlk7krLR-50" target="0UI-Mgx5RdOmSlk7krLR-52" edge="1">
          <mxGeometry relative="1" as="geometry" />
        </mxCell>
        <mxCell id="0UI-Mgx5RdOmSlk7krLR-49" style="edgeStyle=none;rounded=0;orthogonalLoop=1;jettySize=auto;html=1;exitX=1;exitY=1;exitDx=0;exitDy=0;entryX=0;entryY=0;entryDx=0;entryDy=0;endArrow=none;endFill=0;" parent="1" source="0UI-Mgx5RdOmSlk7krLR-50" target="0UI-Mgx5RdOmSlk7krLR-57" edge="1">
          <mxGeometry relative="1" as="geometry">
            <mxPoint x="674.16" y="260.2199999999999" as="targetPoint" />
          </mxGeometry>
        </mxCell>
        <mxCell id="0UI-Mgx5RdOmSlk7krLR-67" style="edgeStyle=none;rounded=0;orthogonalLoop=1;jettySize=auto;html=1;exitX=0;exitY=0;exitDx=0;exitDy=0;fontSize=14;endArrow=none;endFill=0;" parent="1" source="0UI-Mgx5RdOmSlk7krLR-50" edge="1">
          <mxGeometry relative="1" as="geometry">
            <mxPoint x="340" y="80" as="targetPoint" />
          </mxGeometry>
        </mxCell>
        <mxCell id="0UI-Mgx5RdOmSlk7krLR-50" value="" style="ellipse;whiteSpace=wrap;html=1;aspect=fixed;" parent="1" vertex="1">
          <mxGeometry x="624" y="210" width="20" height="20" as="geometry" />
        </mxCell>
        <mxCell id="0UI-Mgx5RdOmSlk7krLR-51" style="edgeStyle=none;rounded=0;orthogonalLoop=1;jettySize=auto;html=1;exitX=0.283;exitY=0.95;exitDx=0;exitDy=0;entryX=0.732;entryY=0.054;entryDx=0;entryDy=0;endArrow=none;endFill=0;entryPerimeter=0;exitPerimeter=0;" parent="1" source="0UI-Mgx5RdOmSlk7krLR-52" target="0UI-Mgx5RdOmSlk7krLR-53" edge="1">
          <mxGeometry relative="1" as="geometry" />
        </mxCell>
        <mxCell id="0UI-Mgx5RdOmSlk7krLR-52" value="" style="ellipse;whiteSpace=wrap;html=1;aspect=fixed;" parent="1" vertex="1">
          <mxGeometry x="580" y="260" width="20" height="20" as="geometry" />
        </mxCell>
        <mxCell id="0UI-Mgx5RdOmSlk7krLR-53" value="" style="ellipse;whiteSpace=wrap;html=1;aspect=fixed;" parent="1" vertex="1">
          <mxGeometry x="550" y="310" width="20" height="20" as="geometry" />
        </mxCell>
        <mxCell id="0UI-Mgx5RdOmSlk7krLR-54" style="edgeStyle=none;rounded=0;orthogonalLoop=1;jettySize=auto;html=1;exitX=0;exitY=0;exitDx=0;exitDy=0;entryX=0.7;entryY=0.933;entryDx=0;entryDy=0;entryPerimeter=0;endArrow=none;endFill=0;" parent="1" source="0UI-Mgx5RdOmSlk7krLR-55" target="0UI-Mgx5RdOmSlk7krLR-52" edge="1">
          <mxGeometry relative="1" as="geometry" />
        </mxCell>
        <mxCell id="0UI-Mgx5RdOmSlk7krLR-55" value="" style="ellipse;whiteSpace=wrap;html=1;aspect=fixed;" parent="1" vertex="1">
          <mxGeometry x="610" y="310" width="20" height="20" as="geometry" />
        </mxCell>
        <mxCell id="0UI-Mgx5RdOmSlk7krLR-56" style="edgeStyle=none;rounded=0;orthogonalLoop=1;jettySize=auto;html=1;exitX=0.283;exitY=0.95;exitDx=0;exitDy=0;entryX=0.732;entryY=0.054;entryDx=0;entryDy=0;endArrow=none;endFill=0;entryPerimeter=0;exitPerimeter=0;" parent="1" source="0UI-Mgx5RdOmSlk7krLR-57" target="0UI-Mgx5RdOmSlk7krLR-58" edge="1">
          <mxGeometry relative="1" as="geometry" />
        </mxCell>
        <mxCell id="0UI-Mgx5RdOmSlk7krLR-57" value="" style="ellipse;whiteSpace=wrap;html=1;aspect=fixed;" parent="1" vertex="1">
          <mxGeometry x="670" y="260" width="20" height="20" as="geometry" />
        </mxCell>
        <mxCell id="0UI-Mgx5RdOmSlk7krLR-79" style="edgeStyle=none;rounded=0;orthogonalLoop=1;jettySize=auto;html=1;exitX=0.5;exitY=1;exitDx=0;exitDy=0;fontSize=12;startArrow=none;startFill=0;endArrow=classic;endFill=1;" parent="1" source="0UI-Mgx5RdOmSlk7krLR-58" target="0UI-Mgx5RdOmSlk7krLR-78" edge="1">
          <mxGeometry relative="1" as="geometry" />
        </mxCell>
        <mxCell id="0UI-Mgx5RdOmSlk7krLR-58" value="" style="ellipse;whiteSpace=wrap;html=1;aspect=fixed;" parent="1" vertex="1">
          <mxGeometry x="640" y="310" width="20" height="20" as="geometry" />
        </mxCell>
        <mxCell id="0UI-Mgx5RdOmSlk7krLR-59" style="edgeStyle=none;rounded=0;orthogonalLoop=1;jettySize=auto;html=1;exitX=0;exitY=0;exitDx=0;exitDy=0;entryX=0.7;entryY=0.933;entryDx=0;entryDy=0;entryPerimeter=0;endArrow=none;endFill=0;" parent="1" source="0UI-Mgx5RdOmSlk7krLR-60" target="0UI-Mgx5RdOmSlk7krLR-57" edge="1">
          <mxGeometry relative="1" as="geometry" />
        </mxCell>
        <mxCell id="0UI-Mgx5RdOmSlk7krLR-60" value="" style="ellipse;whiteSpace=wrap;html=1;aspect=fixed;" parent="1" vertex="1">
          <mxGeometry x="700" y="310" width="20" height="20" as="geometry" />
        </mxCell>
        <mxCell id="0UI-Mgx5RdOmSlk7krLR-61" value="&lt;font style=&quot;font-size: 14px;&quot;&gt;...&lt;/font&gt;" style="text;html=1;strokeColor=none;fillColor=none;align=center;verticalAlign=middle;whiteSpace=wrap;rounded=0;" parent="1" vertex="1">
          <mxGeometry x="480" y="250" width="60" height="30" as="geometry" />
        </mxCell>
        <mxCell id="0UI-Mgx5RdOmSlk7krLR-81" style="edgeStyle=none;rounded=0;orthogonalLoop=1;jettySize=auto;html=1;exitX=0.5;exitY=1;exitDx=0;exitDy=0;entryX=0.5;entryY=0;entryDx=0;entryDy=0;fontSize=12;startArrow=none;startFill=0;endArrow=classic;endFill=1;" parent="1" source="0UI-Mgx5RdOmSlk7krLR-69" target="0UI-Mgx5RdOmSlk7krLR-80" edge="1">
          <mxGeometry relative="1" as="geometry" />
        </mxCell>
        <mxCell id="0UI-Mgx5RdOmSlk7krLR-69" value="&lt;font style=&quot;font-size: 12px;&quot;&gt;Предсказание 1&lt;/font&gt;" style="rounded=0;whiteSpace=wrap;html=1;fontSize=14;" parent="1" vertex="1">
          <mxGeometry x="140" y="380" width="100" height="30" as="geometry" />
        </mxCell>
        <mxCell id="0UI-Mgx5RdOmSlk7krLR-82" style="edgeStyle=none;rounded=0;orthogonalLoop=1;jettySize=auto;html=1;exitX=0.5;exitY=1;exitDx=0;exitDy=0;entryX=0.5;entryY=0;entryDx=0;entryDy=0;fontSize=12;startArrow=none;startFill=0;endArrow=classic;endFill=1;" parent="1" source="0UI-Mgx5RdOmSlk7krLR-72" target="0UI-Mgx5RdOmSlk7krLR-80" edge="1">
          <mxGeometry relative="1" as="geometry" />
        </mxCell>
        <mxCell id="0UI-Mgx5RdOmSlk7krLR-72" value="&lt;font style=&quot;font-size: 12px;&quot;&gt;Предсказание 2&lt;br&gt;&lt;/font&gt;" style="rounded=0;whiteSpace=wrap;html=1;fontSize=14;" parent="1" vertex="1">
          <mxGeometry x="290" y="380" width="100" height="30" as="geometry" />
        </mxCell>
        <mxCell id="0UI-Mgx5RdOmSlk7krLR-74" value="Дерево 1" style="text;html=1;strokeColor=none;fillColor=none;align=center;verticalAlign=middle;whiteSpace=wrap;rounded=0;fontSize=12;" parent="1" vertex="1">
          <mxGeometry x="90" y="200" width="60" height="30" as="geometry" />
        </mxCell>
        <mxCell id="0UI-Mgx5RdOmSlk7krLR-76" value="Дерево 2" style="text;html=1;strokeColor=none;fillColor=none;align=center;verticalAlign=middle;whiteSpace=wrap;rounded=0;fontSize=12;" parent="1" vertex="1">
          <mxGeometry x="300" y="200" width="60" height="30" as="geometry" />
        </mxCell>
        <mxCell id="0UI-Mgx5RdOmSlk7krLR-77" value="Дерево N" style="text;html=1;strokeColor=none;fillColor=none;align=center;verticalAlign=middle;whiteSpace=wrap;rounded=0;fontSize=12;" parent="1" vertex="1">
          <mxGeometry x="649" y="185" width="60" height="30" as="geometry" />
        </mxCell>
        <mxCell id="0UI-Mgx5RdOmSlk7krLR-83" style="edgeStyle=none;rounded=0;orthogonalLoop=1;jettySize=auto;html=1;exitX=0.5;exitY=1;exitDx=0;exitDy=0;entryX=0.5;entryY=0;entryDx=0;entryDy=0;fontSize=12;startArrow=none;startFill=0;endArrow=classic;endFill=1;" parent="1" source="0UI-Mgx5RdOmSlk7krLR-78" target="0UI-Mgx5RdOmSlk7krLR-80" edge="1">
          <mxGeometry relative="1" as="geometry" />
        </mxCell>
        <mxCell id="0UI-Mgx5RdOmSlk7krLR-78" value="&lt;font style=&quot;font-size: 12px;&quot;&gt;Предсказание N&lt;br&gt;&lt;/font&gt;" style="rounded=0;whiteSpace=wrap;html=1;fontSize=14;" parent="1" vertex="1">
          <mxGeometry x="590" y="380" width="100" height="30" as="geometry" />
        </mxCell>
        <mxCell id="0UI-Mgx5RdOmSlk7krLR-85" style="edgeStyle=none;rounded=0;orthogonalLoop=1;jettySize=auto;html=1;exitX=0.5;exitY=1;exitDx=0;exitDy=0;entryX=0.5;entryY=0;entryDx=0;entryDy=0;fontSize=12;startArrow=none;startFill=0;endArrow=classic;endFill=1;" parent="1" source="0UI-Mgx5RdOmSlk7krLR-80" target="0UI-Mgx5RdOmSlk7krLR-84" edge="1">
          <mxGeometry relative="1" as="geometry" />
        </mxCell>
        <mxCell id="0UI-Mgx5RdOmSlk7krLR-80" value="Голосование" style="rounded=0;whiteSpace=wrap;html=1;fontSize=14;" parent="1" vertex="1">
          <mxGeometry x="364" y="480" width="100" height="30" as="geometry" />
        </mxCell>
        <mxCell id="0UI-Mgx5RdOmSlk7krLR-84" value="Результат" style="rounded=0;whiteSpace=wrap;html=1;fontSize=14;" parent="1" vertex="1">
          <mxGeometry x="364" y="540" width="100" height="30" as="geometry" />
        </mxCell>
      </root>
    </mxGraphModel>
  </diagram>
  <diagram id="DoFGqzeoArDjz5UjM_DE" name="boosting">
    <mxGraphModel dx="1050" dy="566" grid="1" gridSize="10" guides="1" tooltips="1" connect="1" arrows="1" fold="1" page="1" pageScale="1" pageWidth="827" pageHeight="1169" math="0" shadow="0">
      <root>
        <mxCell id="0" />
        <mxCell id="1" parent="0" />
        <mxCell id="aEVvUDyXXJjaXX8OfJ2h-2" value="" style="rounded=0;whiteSpace=wrap;html=1;fontSize=12;" parent="1" vertex="1">
          <mxGeometry x="70" y="190" width="80" height="80" as="geometry" />
        </mxCell>
        <mxCell id="aEVvUDyXXJjaXX8OfJ2h-1" value="" style="ellipse;whiteSpace=wrap;html=1;aspect=fixed;" parent="1" vertex="1">
          <mxGeometry x="80" y="210" width="10" height="10" as="geometry" />
        </mxCell>
        <mxCell id="aEVvUDyXXJjaXX8OfJ2h-3" value="" style="ellipse;whiteSpace=wrap;html=1;aspect=fixed;" parent="1" vertex="1">
          <mxGeometry x="94" y="220" width="10" height="10" as="geometry" />
        </mxCell>
        <mxCell id="aEVvUDyXXJjaXX8OfJ2h-4" value="" style="ellipse;whiteSpace=wrap;html=1;aspect=fixed;" parent="1" vertex="1">
          <mxGeometry x="87" y="241" width="10" height="10" as="geometry" />
        </mxCell>
        <mxCell id="aEVvUDyXXJjaXX8OfJ2h-5" value="" style="ellipse;whiteSpace=wrap;html=1;aspect=fixed;" parent="1" vertex="1">
          <mxGeometry x="117" y="240" width="10" height="10" as="geometry" />
        </mxCell>
        <mxCell id="aEVvUDyXXJjaXX8OfJ2h-6" value="" style="ellipse;whiteSpace=wrap;html=1;aspect=fixed;" parent="1" vertex="1">
          <mxGeometry x="117" y="206" width="10" height="10" as="geometry" />
        </mxCell>
        <mxCell id="aEVvUDyXXJjaXX8OfJ2h-7" value="" style="ellipse;whiteSpace=wrap;html=1;aspect=fixed;" parent="1" vertex="1">
          <mxGeometry x="129" y="229" width="10" height="10" as="geometry" />
        </mxCell>
        <mxCell id="aEVvUDyXXJjaXX8OfJ2h-8" value="" style="ellipse;whiteSpace=wrap;html=1;aspect=fixed;" parent="1" vertex="1">
          <mxGeometry x="77" y="253" width="10" height="10" as="geometry" />
        </mxCell>
        <mxCell id="aEVvUDyXXJjaXX8OfJ2h-9" value="" style="ellipse;whiteSpace=wrap;html=1;aspect=fixed;" parent="1" vertex="1">
          <mxGeometry x="129" y="196" width="10" height="10" as="geometry" />
        </mxCell>
        <mxCell id="aEVvUDyXXJjaXX8OfJ2h-10" value="" style="ellipse;whiteSpace=wrap;html=1;aspect=fixed;" parent="1" vertex="1">
          <mxGeometry x="108" y="225" width="10" height="10" as="geometry" />
        </mxCell>
        <mxCell id="aEVvUDyXXJjaXX8OfJ2h-11" value="" style="ellipse;whiteSpace=wrap;html=1;aspect=fixed;" parent="1" vertex="1">
          <mxGeometry x="98" y="249" width="10" height="10" as="geometry" />
        </mxCell>
        <mxCell id="aEVvUDyXXJjaXX8OfJ2h-12" value="" style="ellipse;whiteSpace=wrap;html=1;aspect=fixed;" parent="1" vertex="1">
          <mxGeometry x="94" y="199" width="10" height="10" as="geometry" />
        </mxCell>
        <mxCell id="aEVvUDyXXJjaXX8OfJ2h-13" value="" style="ellipse;whiteSpace=wrap;html=1;aspect=fixed;" parent="1" vertex="1">
          <mxGeometry x="129" y="251" width="10" height="10" as="geometry" />
        </mxCell>
        <mxCell id="aEVvUDyXXJjaXX8OfJ2h-14" value="&lt;font style=&quot;font-size: 12px;&quot;&gt;Набор данных&lt;/font&gt;" style="text;html=1;strokeColor=none;fillColor=none;align=center;verticalAlign=middle;whiteSpace=wrap;rounded=0;fontSize=12;" parent="1" vertex="1">
          <mxGeometry x="55" y="159" width="110" height="30" as="geometry" />
        </mxCell>
        <mxCell id="MwyNq6LjHcyO__oW5cuV-1" style="rounded=0;orthogonalLoop=1;jettySize=auto;html=1;exitX=0;exitY=1;exitDx=0;exitDy=0;entryX=1;entryY=0;entryDx=0;entryDy=0;endArrow=none;endFill=0;" parent="1" target="MwyNq6LjHcyO__oW5cuV-5" edge="1">
          <mxGeometry relative="1" as="geometry">
            <mxPoint x="294.3180194846633" y="217.68198051533668" as="sourcePoint" />
          </mxGeometry>
        </mxCell>
        <mxCell id="MwyNq6LjHcyO__oW5cuV-2" style="edgeStyle=none;rounded=0;orthogonalLoop=1;jettySize=auto;html=1;exitX=1;exitY=1;exitDx=0;exitDy=0;entryX=0;entryY=0;entryDx=0;entryDy=0;endArrow=none;endFill=0;" parent="1" target="MwyNq6LjHcyO__oW5cuV-10" edge="1">
          <mxGeometry relative="1" as="geometry">
            <mxPoint x="343.15999999999997" y="249.2199999999999" as="targetPoint" />
            <mxPoint x="300.6819805153367" y="217.68198051533668" as="sourcePoint" />
          </mxGeometry>
        </mxCell>
        <mxCell id="MwyNq6LjHcyO__oW5cuV-4" style="edgeStyle=none;rounded=0;orthogonalLoop=1;jettySize=auto;html=1;exitX=0.283;exitY=0.95;exitDx=0;exitDy=0;entryX=0.732;entryY=0.054;entryDx=0;entryDy=0;endArrow=none;endFill=0;entryPerimeter=0;exitPerimeter=0;" parent="1" source="MwyNq6LjHcyO__oW5cuV-5" target="MwyNq6LjHcyO__oW5cuV-6" edge="1">
          <mxGeometry relative="1" as="geometry" />
        </mxCell>
        <mxCell id="MwyNq6LjHcyO__oW5cuV-5" value="" style="ellipse;whiteSpace=wrap;html=1;aspect=fixed;" parent="1" vertex="1">
          <mxGeometry x="273" y="226" width="11" height="11" as="geometry" />
        </mxCell>
        <mxCell id="MwyNq6LjHcyO__oW5cuV-6" value="" style="ellipse;whiteSpace=wrap;html=1;aspect=fixed;" parent="1" vertex="1">
          <mxGeometry x="260" y="248" width="11" height="11" as="geometry" />
        </mxCell>
        <mxCell id="MwyNq6LjHcyO__oW5cuV-7" style="edgeStyle=none;rounded=0;orthogonalLoop=1;jettySize=auto;html=1;exitX=0;exitY=0;exitDx=0;exitDy=0;entryX=0.7;entryY=0.933;entryDx=0;entryDy=0;entryPerimeter=0;endArrow=none;endFill=0;" parent="1" source="MwyNq6LjHcyO__oW5cuV-8" target="MwyNq6LjHcyO__oW5cuV-5" edge="1">
          <mxGeometry relative="1" as="geometry" />
        </mxCell>
        <mxCell id="MwyNq6LjHcyO__oW5cuV-8" value="" style="ellipse;whiteSpace=wrap;html=1;aspect=fixed;" parent="1" vertex="1">
          <mxGeometry x="287" y="247" width="11" height="11" as="geometry" />
        </mxCell>
        <mxCell id="MwyNq6LjHcyO__oW5cuV-10" value="" style="ellipse;whiteSpace=wrap;html=1;aspect=fixed;" parent="1" vertex="1">
          <mxGeometry x="314" y="225" width="11" height="11" as="geometry" />
        </mxCell>
        <mxCell id="MwyNq6LjHcyO__oW5cuV-12" style="edgeStyle=none;rounded=0;orthogonalLoop=1;jettySize=auto;html=1;exitX=0.293;exitY=0.01;exitDx=0;exitDy=0;entryX=0.7;entryY=0.933;entryDx=0;entryDy=0;entryPerimeter=0;endArrow=none;endFill=0;exitPerimeter=0;" parent="1" source="MwyNq6LjHcyO__oW5cuV-13" target="MwyNq6LjHcyO__oW5cuV-10" edge="1">
          <mxGeometry relative="1" as="geometry" />
        </mxCell>
        <mxCell id="MwyNq6LjHcyO__oW5cuV-13" value="" style="ellipse;whiteSpace=wrap;html=1;aspect=fixed;" parent="1" vertex="1">
          <mxGeometry x="328" y="247" width="11" height="11" as="geometry" />
        </mxCell>
        <mxCell id="MwyNq6LjHcyO__oW5cuV-14" value="Модель" style="text;html=1;strokeColor=none;fillColor=none;align=center;verticalAlign=middle;whiteSpace=wrap;rounded=0;fontSize=12;" parent="1" vertex="1">
          <mxGeometry x="262.5" y="179" width="60" height="30" as="geometry" />
        </mxCell>
        <mxCell id="MwyNq6LjHcyO__oW5cuV-18" value="" style="ellipse;whiteSpace=wrap;html=1;aspect=fixed;" parent="1" vertex="1">
          <mxGeometry x="292" y="209" width="11" height="11" as="geometry" />
        </mxCell>
        <mxCell id="MwyNq6LjHcyO__oW5cuV-20" value="" style="ellipse;whiteSpace=wrap;html=1;aspect=fixed;" parent="1" vertex="1">
          <mxGeometry x="303" y="247" width="11" height="11" as="geometry" />
        </mxCell>
        <mxCell id="MwyNq6LjHcyO__oW5cuV-22" value="" style="endArrow=none;html=1;rounded=0;fontSize=14;exitX=0.5;exitY=0;exitDx=0;exitDy=0;entryX=0.192;entryY=0.929;entryDx=0;entryDy=0;entryPerimeter=0;" parent="1" source="MwyNq6LjHcyO__oW5cuV-20" target="MwyNq6LjHcyO__oW5cuV-10" edge="1">
          <mxGeometry width="50" height="50" relative="1" as="geometry">
            <mxPoint x="249" y="280" as="sourcePoint" />
            <mxPoint x="299" y="230" as="targetPoint" />
          </mxGeometry>
        </mxCell>
        <mxCell id="MwyNq6LjHcyO__oW5cuV-24" value="" style="endArrow=classic;html=1;rounded=0;fontSize=12;" parent="1" edge="1">
          <mxGeometry width="50" height="50" relative="1" as="geometry">
            <mxPoint x="160" y="230" as="sourcePoint" />
            <mxPoint x="250" y="230" as="targetPoint" />
          </mxGeometry>
        </mxCell>
        <mxCell id="MwyNq6LjHcyO__oW5cuV-25" value="Обучение" style="text;html=1;strokeColor=none;fillColor=none;align=center;verticalAlign=middle;whiteSpace=wrap;rounded=0;fontSize=12;" parent="1" vertex="1">
          <mxGeometry x="150" y="200" width="110" height="30" as="geometry" />
        </mxCell>
        <mxCell id="MwyNq6LjHcyO__oW5cuV-26" value="" style="rounded=0;whiteSpace=wrap;html=1;fontSize=12;" parent="1" vertex="1">
          <mxGeometry x="475" y="190.5" width="80" height="80" as="geometry" />
        </mxCell>
        <mxCell id="MwyNq6LjHcyO__oW5cuV-27" value="" style="ellipse;whiteSpace=wrap;html=1;aspect=fixed;" parent="1" vertex="1">
          <mxGeometry x="485" y="210.5" width="10" height="10" as="geometry" />
        </mxCell>
        <mxCell id="MwyNq6LjHcyO__oW5cuV-28" value="" style="ellipse;whiteSpace=wrap;html=1;aspect=fixed;" parent="1" vertex="1">
          <mxGeometry x="499" y="220.5" width="10" height="10" as="geometry" />
        </mxCell>
        <mxCell id="MwyNq6LjHcyO__oW5cuV-29" value="" style="ellipse;whiteSpace=wrap;html=1;aspect=fixed;" parent="1" vertex="1">
          <mxGeometry x="492" y="241.5" width="10" height="10" as="geometry" />
        </mxCell>
        <mxCell id="MwyNq6LjHcyO__oW5cuV-30" value="" style="ellipse;whiteSpace=wrap;html=1;aspect=fixed;" parent="1" vertex="1">
          <mxGeometry x="522" y="240.5" width="10" height="10" as="geometry" />
        </mxCell>
        <mxCell id="MwyNq6LjHcyO__oW5cuV-31" value="" style="ellipse;whiteSpace=wrap;html=1;aspect=fixed;" parent="1" vertex="1">
          <mxGeometry x="522" y="206.5" width="10" height="10" as="geometry" />
        </mxCell>
        <mxCell id="MwyNq6LjHcyO__oW5cuV-32" value="" style="ellipse;whiteSpace=wrap;html=1;aspect=fixed;" parent="1" vertex="1">
          <mxGeometry x="534" y="229.5" width="10" height="10" as="geometry" />
        </mxCell>
        <mxCell id="MwyNq6LjHcyO__oW5cuV-33" value="" style="ellipse;whiteSpace=wrap;html=1;aspect=fixed;" parent="1" vertex="1">
          <mxGeometry x="482" y="253.5" width="10" height="10" as="geometry" />
        </mxCell>
        <mxCell id="MwyNq6LjHcyO__oW5cuV-34" value="" style="ellipse;whiteSpace=wrap;html=1;aspect=fixed;" parent="1" vertex="1">
          <mxGeometry x="534" y="196.5" width="10" height="10" as="geometry" />
        </mxCell>
        <mxCell id="MwyNq6LjHcyO__oW5cuV-35" value="" style="ellipse;whiteSpace=wrap;html=1;aspect=fixed;" parent="1" vertex="1">
          <mxGeometry x="513" y="225.5" width="10" height="10" as="geometry" />
        </mxCell>
        <mxCell id="MwyNq6LjHcyO__oW5cuV-36" value="" style="ellipse;whiteSpace=wrap;html=1;aspect=fixed;" parent="1" vertex="1">
          <mxGeometry x="503" y="249.5" width="10" height="10" as="geometry" />
        </mxCell>
        <mxCell id="MwyNq6LjHcyO__oW5cuV-37" value="" style="ellipse;whiteSpace=wrap;html=1;aspect=fixed;" parent="1" vertex="1">
          <mxGeometry x="499" y="199.5" width="10" height="10" as="geometry" />
        </mxCell>
        <mxCell id="MwyNq6LjHcyO__oW5cuV-38" value="" style="ellipse;whiteSpace=wrap;html=1;aspect=fixed;" parent="1" vertex="1">
          <mxGeometry x="534" y="251.5" width="10" height="10" as="geometry" />
        </mxCell>
        <mxCell id="MwyNq6LjHcyO__oW5cuV-39" value="Ошибки" style="text;html=1;strokeColor=none;fillColor=none;align=center;verticalAlign=middle;whiteSpace=wrap;rounded=0;fontSize=12;" parent="1" vertex="1">
          <mxGeometry x="454" y="136" width="110" height="30" as="geometry" />
        </mxCell>
        <mxCell id="MwyNq6LjHcyO__oW5cuV-40" value="" style="endArrow=classic;html=1;rounded=0;fontSize=12;" parent="1" edge="1">
          <mxGeometry width="50" height="50" relative="1" as="geometry">
            <mxPoint x="360" y="228.57000000000005" as="sourcePoint" />
            <mxPoint x="450" y="228.57000000000005" as="targetPoint" />
          </mxGeometry>
        </mxCell>
        <mxCell id="MwyNq6LjHcyO__oW5cuV-41" value="Тест" style="text;html=1;strokeColor=none;fillColor=none;align=center;verticalAlign=middle;whiteSpace=wrap;rounded=0;fontSize=12;" parent="1" vertex="1">
          <mxGeometry x="350" y="198.57" width="110" height="30" as="geometry" />
        </mxCell>
        <mxCell id="MwyNq6LjHcyO__oW5cuV-42" value="" style="endArrow=classic;html=1;rounded=0;fontSize=12;entryX=0.5;entryY=0;entryDx=0;entryDy=0;" parent="1" target="MwyNq6LjHcyO__oW5cuV-27" edge="1">
          <mxGeometry width="50" height="50" relative="1" as="geometry">
            <mxPoint x="511" y="160" as="sourcePoint" />
            <mxPoint x="471" y="180" as="targetPoint" />
          </mxGeometry>
        </mxCell>
        <mxCell id="MwyNq6LjHcyO__oW5cuV-43" value="" style="endArrow=classic;html=1;rounded=0;fontSize=12;entryX=0.5;entryY=0;entryDx=0;entryDy=0;" parent="1" target="MwyNq6LjHcyO__oW5cuV-36" edge="1">
          <mxGeometry width="50" height="50" relative="1" as="geometry">
            <mxPoint x="511" y="160" as="sourcePoint" />
            <mxPoint x="471" y="180" as="targetPoint" />
          </mxGeometry>
        </mxCell>
        <mxCell id="MwyNq6LjHcyO__oW5cuV-46" value="" style="endArrow=classic;html=1;rounded=0;fontSize=12;" parent="1" target="MwyNq6LjHcyO__oW5cuV-34" edge="1">
          <mxGeometry width="50" height="50" relative="1" as="geometry">
            <mxPoint x="511" y="160" as="sourcePoint" />
            <mxPoint x="521" y="170" as="targetPoint" />
          </mxGeometry>
        </mxCell>
        <mxCell id="MwyNq6LjHcyO__oW5cuV-47" style="rounded=0;orthogonalLoop=1;jettySize=auto;html=1;exitX=0;exitY=1;exitDx=0;exitDy=0;entryX=1;entryY=0;entryDx=0;entryDy=0;endArrow=none;endFill=0;" parent="1" target="MwyNq6LjHcyO__oW5cuV-50" edge="1">
          <mxGeometry relative="1" as="geometry">
            <mxPoint x="711.3180194846632" y="216.6819805153367" as="sourcePoint" />
          </mxGeometry>
        </mxCell>
        <mxCell id="MwyNq6LjHcyO__oW5cuV-48" style="edgeStyle=none;rounded=0;orthogonalLoop=1;jettySize=auto;html=1;exitX=1;exitY=1;exitDx=0;exitDy=0;entryX=0;entryY=0;entryDx=0;entryDy=0;endArrow=none;endFill=0;" parent="1" target="MwyNq6LjHcyO__oW5cuV-54" edge="1">
          <mxGeometry relative="1" as="geometry">
            <mxPoint x="760.16" y="248.2199999999999" as="targetPoint" />
            <mxPoint x="717.6819805153367" y="216.6819805153367" as="sourcePoint" />
          </mxGeometry>
        </mxCell>
        <mxCell id="MwyNq6LjHcyO__oW5cuV-49" style="edgeStyle=none;rounded=0;orthogonalLoop=1;jettySize=auto;html=1;exitX=0.283;exitY=0.95;exitDx=0;exitDy=0;entryX=0.732;entryY=0.054;entryDx=0;entryDy=0;endArrow=none;endFill=0;entryPerimeter=0;exitPerimeter=0;" parent="1" source="MwyNq6LjHcyO__oW5cuV-50" target="MwyNq6LjHcyO__oW5cuV-51" edge="1">
          <mxGeometry relative="1" as="geometry" />
        </mxCell>
        <mxCell id="MwyNq6LjHcyO__oW5cuV-50" value="" style="ellipse;whiteSpace=wrap;html=1;aspect=fixed;" parent="1" vertex="1">
          <mxGeometry x="690" y="225" width="11" height="11" as="geometry" />
        </mxCell>
        <mxCell id="MwyNq6LjHcyO__oW5cuV-51" value="" style="ellipse;whiteSpace=wrap;html=1;aspect=fixed;" parent="1" vertex="1">
          <mxGeometry x="677" y="247" width="11" height="11" as="geometry" />
        </mxCell>
        <mxCell id="MwyNq6LjHcyO__oW5cuV-52" style="edgeStyle=none;rounded=0;orthogonalLoop=1;jettySize=auto;html=1;exitX=0;exitY=0;exitDx=0;exitDy=0;entryX=0.7;entryY=0.933;entryDx=0;entryDy=0;entryPerimeter=0;endArrow=none;endFill=0;" parent="1" source="MwyNq6LjHcyO__oW5cuV-53" target="MwyNq6LjHcyO__oW5cuV-50" edge="1">
          <mxGeometry relative="1" as="geometry" />
        </mxCell>
        <mxCell id="MwyNq6LjHcyO__oW5cuV-53" value="" style="ellipse;whiteSpace=wrap;html=1;aspect=fixed;" parent="1" vertex="1">
          <mxGeometry x="704" y="246" width="11" height="11" as="geometry" />
        </mxCell>
        <mxCell id="MwyNq6LjHcyO__oW5cuV-54" value="" style="ellipse;whiteSpace=wrap;html=1;aspect=fixed;" parent="1" vertex="1">
          <mxGeometry x="731" y="224" width="11" height="11" as="geometry" />
        </mxCell>
        <mxCell id="MwyNq6LjHcyO__oW5cuV-55" style="edgeStyle=none;rounded=0;orthogonalLoop=1;jettySize=auto;html=1;exitX=0.293;exitY=0.01;exitDx=0;exitDy=0;entryX=0.7;entryY=0.933;entryDx=0;entryDy=0;entryPerimeter=0;endArrow=none;endFill=0;exitPerimeter=0;" parent="1" source="MwyNq6LjHcyO__oW5cuV-56" target="MwyNq6LjHcyO__oW5cuV-54" edge="1">
          <mxGeometry relative="1" as="geometry" />
        </mxCell>
        <mxCell id="MwyNq6LjHcyO__oW5cuV-56" value="" style="ellipse;whiteSpace=wrap;html=1;aspect=fixed;" parent="1" vertex="1">
          <mxGeometry x="745" y="246" width="11" height="11" as="geometry" />
        </mxCell>
        <mxCell id="MwyNq6LjHcyO__oW5cuV-57" value="Модель" style="text;html=1;strokeColor=none;fillColor=none;align=center;verticalAlign=middle;whiteSpace=wrap;rounded=0;fontSize=12;" parent="1" vertex="1">
          <mxGeometry x="679.5" y="178" width="60" height="30" as="geometry" />
        </mxCell>
        <mxCell id="MwyNq6LjHcyO__oW5cuV-58" value="" style="ellipse;whiteSpace=wrap;html=1;aspect=fixed;" parent="1" vertex="1">
          <mxGeometry x="709" y="208" width="11" height="11" as="geometry" />
        </mxCell>
        <mxCell id="MwyNq6LjHcyO__oW5cuV-59" value="" style="ellipse;whiteSpace=wrap;html=1;aspect=fixed;" parent="1" vertex="1">
          <mxGeometry x="720" y="246" width="11" height="11" as="geometry" />
        </mxCell>
        <mxCell id="MwyNq6LjHcyO__oW5cuV-60" value="" style="endArrow=none;html=1;rounded=0;fontSize=14;exitX=0.5;exitY=0;exitDx=0;exitDy=0;entryX=0.192;entryY=0.929;entryDx=0;entryDy=0;entryPerimeter=0;" parent="1" source="MwyNq6LjHcyO__oW5cuV-59" target="MwyNq6LjHcyO__oW5cuV-54" edge="1">
          <mxGeometry width="50" height="50" relative="1" as="geometry">
            <mxPoint x="666" y="279" as="sourcePoint" />
            <mxPoint x="716" y="229" as="targetPoint" />
          </mxGeometry>
        </mxCell>
        <mxCell id="MwyNq6LjHcyO__oW5cuV-61" value="" style="endArrow=classic;html=1;rounded=0;fontSize=12;" parent="1" edge="1">
          <mxGeometry width="50" height="50" relative="1" as="geometry">
            <mxPoint x="577.0000000000001" y="229" as="sourcePoint" />
            <mxPoint x="667.0000000000001" y="229" as="targetPoint" />
          </mxGeometry>
        </mxCell>
        <mxCell id="MwyNq6LjHcyO__oW5cuV-62" value="Обучение" style="text;html=1;strokeColor=none;fillColor=none;align=center;verticalAlign=middle;whiteSpace=wrap;rounded=0;fontSize=12;" parent="1" vertex="1">
          <mxGeometry x="567" y="199" width="110" height="30" as="geometry" />
        </mxCell>
        <mxCell id="MwyNq6LjHcyO__oW5cuV-63" value="&lt;font style=&quot;font-size: 14px;&quot;&gt;...&lt;/font&gt;" style="text;html=1;strokeColor=none;fillColor=none;align=center;verticalAlign=middle;whiteSpace=wrap;rounded=0;fontSize=12;" parent="1" vertex="1">
          <mxGeometry x="767" y="209" width="60" height="30" as="geometry" />
        </mxCell>
        <mxCell id="fsNTQk9_Hadf411PjViv-1" value="" style="shape=curlyBracket;whiteSpace=wrap;html=1;rounded=1;labelPosition=left;verticalLabelPosition=middle;align=right;verticalAlign=middle;fontSize=14;rotation=-90;" parent="1" vertex="1">
          <mxGeometry x="519.25" y="27.25" width="20" height="548.5" as="geometry" />
        </mxCell>
        <mxCell id="P3Dg8EySYh2UqvkFKg_D-1" value="Результат" style="text;html=1;strokeColor=none;fillColor=none;align=center;verticalAlign=middle;whiteSpace=wrap;rounded=0;fontSize=12;" parent="1" vertex="1">
          <mxGeometry x="476" y="313" width="110" height="30" as="geometry" />
        </mxCell>
      </root>
    </mxGraphModel>
  </diagram>
</mxfile>
